{
.appVersion = "965";
copyright = "Copyright 2017 Google Inc. All Rights Reserved.";
customParameters = (
{
name = glyphOrder;
value = (
.notdef,
NULL,
CR,
space,
u13000,
u13001,
u13002,
u13003,
u13004,
u13005,
u13006,
u13007,
u13008,
u13009,
u1300A,
u1300B,
u1300C,
u1300D,
u1300E,
u1300F,
u13010,
u13011,
u13012,
u13013,
u13014,
u13015,
u13016,
u13017,
u13018,
u13019,
u1301A,
u1301B,
u1301C,
u1301D,
u1301E,
u1301F,
u13020,
u13021,
u13022,
u13023,
u13024,
u13025,
u13026,
u13027,
u13028,
u13029,
u1302A,
u1302B,
u1302C,
u1302D,
u1302E,
u1302F,
u13030,
u13031,
u13032,
u13033,
u13034,
u13035,
u13036,
u13037,
u13038,
u13039,
u1303A,
u1303B,
u1303C,
u1303D,
u1303E,
u1303F,
u13040,
u13041,
u13042,
u13043,
u13044,
u13045,
u13046,
u13047,
u13048,
u13049,
u1304A,
u1304B,
u1304C,
u1304D,
u1304E,
u1304F,
u13050,
u13051,
u13052,
u13053,
u13054,
u13055,
u13056,
u13057,
u13058,
u13059,
u1305A,
u1305B,
u1305C,
u1305D,
u1305E,
u1305F,
u13060,
u13061,
u13062,
u13063,
u13064,
u13065,
u13066,
u13067,
u13068,
u13069,
u1306A,
u1306B,
u1306C,
u1306D,
u1306E,
u1306F,
u13070,
u13071,
u13072,
u13073,
u13074,
u13075,
u13076,
u13077,
u13078,
u13079,
u1307A,
u1307B,
u1307C,
u1307D,
u1307E,
u1307F,
u13080,
u13081,
u13082,
u13083,
u13084,
u13085,
u13086,
u13087,
u13088,
u13089,
u1308A,
u1308B,
u1308C,
u1308D,
u1308E,
u1308F,
u13090,
u13091,
u13092,
u13093,
u13094,
u13095,
u13096,
u13097,
u13098,
u13099,
u1309A,
u1309B,
u1309C,
u1309D,
u1309E,
u1309F,
u130A0,
u130A1,
u130A2,
u130A3,
u130A4,
u130A5,
u130A6,
u130A7,
u130A8,
u130A9,
u130AA,
u130AB,
u130AC,
u130AD,
u130AE,
u130AF,
u130B0,
u130B1,
u130B2,
u130B3,
u130B4,
u130B5,
u130B6,
u130B7,
u130B8,
u130B9,
u130BA,
u130BB,
u130BC,
u130BD,
u130BE,
u130BF,
u130C0,
u130C1,
u130C2,
u130C3,
u130C4,
u130C5,
u130C6,
u130C7,
u130C8,
u130C9,
u130CA,
u130CB,
u130CC,
u130CD,
u130CE,
u130CF,
u130D0,
u130D1,
u130D2,
u130D3,
u130D4,
u130D5,
u130D6,
u130D7,
u130D8,
u130D9,
u130DA,
u130DB,
u130DC,
u130DD,
u130DE,
u130DF,
u130E0,
u130E1,
u130E2,
u130E3,
u130E4,

glyphs = (
{
glyphname = .notdef;
lastChange = "2017-01-25 19:58:54 +0000";
layers = (
{
layerId = UUID0;
paths = (
{
closed = 1;
nodes = (
"505 0 LINE",
"505 714 LINE",
"94 714 LINE",
"94 0 LINE"
);
},
{
closed = 1;
nodes = (
"145 663 LINE",
"454 663 LINE",
"454 51 LINE",
"145 51 LINE"
);
}
);
width = 600;
}
);
},
{
glyphname = u13000;
lastChange = "2017-01-25 19:58:54 +0000";
layers = (
{
layerId = UUID0;
paths = (
{
closed = 1;
nodes = (
"170 0 LINE",
"217 13 LINE",
"233 4 OFFCURVE",
"252 0 OFFCURVE",
"271 0 CURVE SMOOTH",
"278 0 OFFCURVE",
"320 1 OFFCURVE",
"372 9 CURVE SMOOTH",
"569 38 LINE",
"705 0 LINE",
"794 0 LINE",
"794 45 LINE",
"709 60 LINE",
"660 95 LINE",
"660 285 LINE",
"640 287 LINE",
"652 446 LINE",
"815 381 LINE",
"849 422 LINE",
"772 662 LINE SMOOTH",
"766 681 OFFCURVE",
"762 712 OFFCURVE",
"727 720 CURVE SMOOTH",
"624 745 LINE",
"624 783 LINE",
"660 832 OFFCURVE",
"684 865 OFFCURVE",
"684 902 CURVE SMOOTH",
"684 963 OFFCURVE",
"620 1001 OFFCURVE",
"548 1001 CURVE SMOOTH",
"496 1001 OFFCURVE",
"468 978 OFFCURVE",
"460 942 CURVE SMOOTH",
"459 938 OFFCURVE",
"459 933 OFFCURVE",
"458 929 CURVE",
"442 892 OFFCURVE",
"425 856 OFFCURVE",
"409 819 CURVE",
"440 817 LINE",
"464 754 LINE",
"504 769 LINE",
"511 743 LINE",
"457 730 LINE SMOOTH",
"413 719 OFFCURVE",
"382 678 OFFCURVE",
"354 650 CURVE SMOOTH",
"292 589 LINE",
"174 700 LINE",
"161 743 LINE",
"134 779 LINE",
"62 814 LINE",
"49 790 LINE",
"98 757 LINE",
"107 732 LINE",
"67 749 LINE",
"52 728 LINE",
"297 490 LINE",
"326 491 LINE",
"441 593 LINE",
"472 351 LINE",
"457 259 LINE",
"307 427 LINE SMOOTH",
"292 444 OFFCURVE",
"269 453 OFFCURVE",
"249 453 CURVE SMOOTH",
"207 453 OFFCURVE",
"186 417 OFFCURVE",
"186 382 CURVE SMOOTH",
"186 374 OFFCURVE",
"190 354 OFFCURVE",
"192 347 CURVE SMOOTH",
"246 151 LINE",
"202 131 OFFCURVE",
"179 107 OFFCURVE",
"179 80 CURVE SMOOTH",
"179 76 OFFCURVE",
"179 73 OFFCURVE",
"180 69 CURVE",
"166 60 LINE",
"82 45 LINE",
"82 0 LINE"
);
},
{
closed = 1;
nodes = (
"101 33 LINE",
"173 42 LINE",
"185 50 LINE",
"188 42 OFFCURVE",
"193 34 OFFCURVE",
"199 27 CURVE",
"168 19 LINE",
"101 19 LINE"
);
},
{
closed = 1;
nodes = (
"211 348 LINE SMOOTH",
"208 359 OFFCURVE",
"205 373 OFFCURVE",
"205 382 CURVE SMOOTH",
"205 413 OFFCURVE",
"222 434 OFFCURVE",
"248 434 CURVE SMOOTH",
"257 434 OFFCURVE",
"267 432 OFFCURVE",
"274 428 CURVE",
"246 365 LINE",
"307 181 LINE",
"263 159 LINE"
);
},
{
closed = 1;
nodes = (
"580 55 LINE",
"373 27 LINE SMOOTH",
"342 23 OFFCURVE",
"294 20 OFFCURVE",
"272 20 CURVE SMOOTH",
"243 20 OFFCURVE",
"198 31 OFFCURVE",
"198 82 CURVE SMOOTH",
"198 98 OFFCURVE",
"207 113 OFFCURVE",
"227 123 CURVE",
"276 63 LINE",
"645 83 LINE",
"703 42 LINE",
"775 33 LINE",
"775 19 LINE",
"708 19 LINE"
);
},
{
closed = 1;
nodes = (
"245 132 LINE",
"465 234 LINE",
"634 270 LINE",
"643 270 LINE",
"643 100 LINE",
"287 80 LINE"
);
},
{
closed = 1;
nodes = (
"266 366 LINE",
"290 420 LINE",
"448 245 LINE",
"325 189 LINE"
);
},
{
closed = 1;
nodes = (
"490 352 LINE",
"455 627 LINE",
"319 509 LINE",
"300 509 LINE",
"72 728 LINE",
"76 733 LINE",
"122 712 LINE",
"128 717 LINE",
"114 759 LINE",
"67 790 LINE",
"71 797 LINE",
"124 769 LINE",
"146 737 LINE",
"165 685 LINE",
"215 638 OFFCURVE",
"245 612 OFFCURVE",
"294 566 CURVE",
"368 640 LINE SMOOTH",
"390 662 OFFCURVE",
"430 708 OFFCURVE",
"456 713 CURVE SMOOTH",
"532 729 LINE",
"517 791 LINE",
"472 776 LINE",
"452 831 LINE",
"433 832 LINE",
"473 923 LINE",
"558 875 LINE",
"564 883 OFFCURVE",
"569 887 OFFCURVE",
"579 887 CURVE SMOOTH",
"589 887 OFFCURVE",
"590 877 OFFCURVE",
"590 873 CURVE SMOOTH",
"590 868 OFFCURVE",
"583 857 OFFCURVE",
"579 851 CURVE SMOOTH",
"557 820 LINE",
"605 779 LINE",
"605 732 LINE",
"724 703 LINE SMOOTH",
"743 698 OFFCURVE",
"750 673 OFFCURVE",
"756 655 CURVE SMOOTH",
"830 426 LINE",
"810 401 LINE",
"755 422 OFFCURVE",
"701 443 OFFCURVE",
"645 465 CURVE SMOOTH",
"600 483 OFFCURVE",
"555 502 OFFCURVE",
"510 520 CURVE",
"512 525 LINE",
"563 520 LINE",
"567 526 LINE",
"540 562 LINE",
"495 574 LINE",
"496 582 LINE",
"547 574 LINE",
"578 551 LINE",
"604 507 LINE",
"774 455 LINE",
"779 464 LINE",
"703 621 LINE",
"683 622 LINE",
"643 511 LINE",
"610 522 LINE",
"589 561 LINE",
"553 587 LINE",
"481 595 LINE",
"477 567 LINE",
"525 555 LINE",
"542 534 LINE",
"499 538 LINE",
"491 513 LINE",
"635 451 LINE",
"622 286 LINE",
"474 253 LINE"
);
},
{
closed = 1;
nodes = (
"660 507 LINE",
"692 604 LINE",
"757 479 LINE"
);
},
{
closed = 1;
nodes = (
"504 866 OFFCURVE",
"511 867 OFFCURVE",
"521 868 CURVE",
"512 882 OFFCURVE",
"504 888 OFFCURVE",
"489 888 CURVE SMOOTH",
"485 888 OFFCURVE",
"469 886 OFFCURVE",
"462 878 CURVE",
"472 871 OFFCURVE",
"482 866 OFFCURVE",
"497 866 CURVE SMOOTH"
);
},
{
closed = 1;
nodes = (
"578 825 LINE",
"592 843 LINE SMOOTH",
"598 851 OFFCURVE",
"607 866 OFFCURVE",
"607 875 CURVE SMOOTH",
"607 890 OFFCURVE",
"597 905 OFFCURVE",
"580 905 CURVE SMOOTH",
"571 905 OFFCURVE",
"563 900 OFFCURVE",
"556 895 CURVE",
"478 939 LINE",
"488 970 OFFCURVE",
"516 982 OFFCURVE",
"549 982 CURVE SMOOTH",
"592 982 OFFCURVE",
"665 958 OFFCURVE",
"665 906 CURVE SMOOTH",
"665 868 OFFCURVE",
"639 832 OFFCURVE",
"612 795 CURVE"
);
}
);
width = 898;
}
);
unicode = 13000;
},
{
glyphname = u13001;
lastChange = "2017-01-25 19:58:54 +0000";
layers = (
{
layerId = UUID0;
paths = (
{
closed = 1;
nodes = (
"138 0 LINE",
"185 13 LINE",
"200 4 OFFCURVE",
"219 0 OFFCURVE",
"238 0 CURVE SMOOTH",
"245 0 OFFCURVE",
"287 1 OFFCURVE",
"339 9 CURVE SMOOTH",
"537 38 LINE",
"672 0 LINE",
"761 0 LINE",
"761 45 LINE",
"677 60 LINE",
"627 95 LINE",
"627 285 LINE",
"607 287 LINE",
"619 446 LINE",
"660 604 LINE",
"721 419 LINE",
"707 230 LINE",
"691 187 LINE",
"691 111 LINE",
"733 120 LINE",
"733 133 LINE",
"774 146 LINE",
"774 244 LINE",
"810 420 LINE",
"739 662 LINE SMOOTH",
"733 681 OFFCURVE",
"729 712 OFFCURVE",
"694 720 CURVE SMOOTH",
"591 745 LINE",
"591 783 LINE",
"627 832 OFFCURVE",
"651 865 OFFCURVE",
"651 902 CURVE SMOOTH",
"651 963 OFFCURVE",
"587 1001 OFFCURVE",
"515 1001 CURVE SMOOTH",
"463 1001 OFFCURVE",
"438 980 OFFCURVE",
"428 942 CURVE",
"426 929 LINE",
"376 819 LINE",
"407 817 LINE",
"431 754 LINE",
"472 769 LINE",
"478 743 LINE",
"424 730 LINE SMOOTH",
"380 719 OFFCURVE",
"356 707 OFFCURVE",
"333 688 CURVE",
"218 622 LINE",
"248 659 OFFCURVE",
"284 704 OFFCURVE",
"303 730 CURVE",
"383 741 LINE",
"401 777 LINE",
"388 815 LINE",
"304 815 LINE",
"267 797 LINE",
"80 563 LINE",
"88 528 LINE",
"121 507 LINE",
"381 600 LINE",
"439 351 LINE",
"424 259 LINE",
"274 427 LINE SMOOTH",
"259 444 OFFCURVE",
"236 453 OFFCURVE",
"216 453 CURVE SMOOTH",
"174 453 OFFCURVE",
"153 417 OFFCURVE",
"153 382 CURVE SMOOTH",
"153 374 OFFCURVE",
"157 354 OFFCURVE",
"159 347 CURVE SMOOTH",
"213 151 LINE",
"169 131 OFFCURVE",
"146 107 OFFCURVE",
"146 80 CURVE SMOOTH",
"146 76 OFFCURVE",
"146 73 OFFCURVE",
"147 69 CURVE",
"133 60 LINE",
"49 45 LINE",
"49 0 LINE"
);
},
{
closed = 1;
nodes = (
"68 33 LINE",
"140 42 LINE",
"152 50 LINE",
"155 42 OFFCURVE",
"160 34 OFFCURVE",
"166 27 CURVE",
"135 19 LINE",
"68 19 LINE"
);
},
{
closed = 1;
nodes = (
"179 348 LINE SMOOTH",
"176 359 OFFCURVE",
"172 373 OFFCURVE",
"172 382 CURVE SMOOTH",
"172 413 OFFCURVE",
"189 434 OFFCURVE",
"215 434 CURVE SMOOTH",
"224 434 OFFCURVE",
"234 432 OFFCURVE",
"242 428 CURVE",
"213 365 LINE",
"274 181 LINE",
"230 159 LINE"
);
},
{
closed = 1;
nodes = (
"547 55 LINE",
"340 27 LINE SMOOTH",
"309 23 OFFCURVE",
"262 20 OFFCURVE",
"239 20 CURVE SMOOTH",
"210 20 OFFCURVE",
"165 31 OFFCURVE",
"165 82 CURVE SMOOTH",
"165 98 OFFCURVE",
"174 113 OFFCURVE",
"194 123 CURVE",
"244 63 LINE",
"612 83 LINE",
"670 42 LINE",
"742 33 LINE",
"742 19 LINE",
"675 19 LINE"
);
},
{
closed = 1;
nodes = (
"212 132 LINE",
"432 234 LINE",
"602 270 LINE",
"610 270 LINE",
"610 100 LINE",
"254 80 LINE"
);
},
{
closed = 1;
nodes = (
"233 366 LINE",
"257 420 LINE",
"416 245 LINE",
"292 189 LINE"
);
},
{
closed = 1;
nodes = (
"707 186 LINE",
"723 228 LINE",
"741 418 LINE",
"670 621 LINE",
"647 622 LINE",
"602 451 LINE",
"589 286 LINE",
"441 253 LINE",
"458 352 LINE",
"395 625 LINE",
"128 528 LINE",
"104 541 LINE",
"102 561 LINE",
"124 588 OFFCURVE",
"227 712 OFFCURVE",
"282 783 CURVE",
"309 798 LINE",
"374 798 LINE",
"375 791 OFFCURVE",
"379 784 OFFCURVE",
"381 778 CURVE",
"375 765 OFFCURVE",
"372 760 OFFCURVE",
"371 756 CURVE",
"292 747 LINE",
"186 606 LINE",
"193 594 LINE",
"345 674 LINE",
"360 693 OFFCURVE",
"397 708 OFFCURVE",
"423 713 CURVE SMOOTH",
"500 729 LINE",
"484 791 LINE",
"439 776 LINE",
"419 831 LINE",
"400 832 LINE",
"440 923 LINE",
"525 875 LINE",
"532 883 OFFCURVE",
"537 887 OFFCURVE",
"546 887 CURVE SMOOTH",
"557 887 OFFCURVE",
"557 877 OFFCURVE",
"557 873 CURVE SMOOTH",
"557 868 OFFCURVE",
"551 857 OFFCURVE",
"546 851 CURVE SMOOTH",
"524 820 LINE",
"573 779 LINE",
"573 732 LINE",
"691 703 LINE SMOOTH",
"710 698 OFFCURVE",
"718 673 OFFCURVE",
"723 655 CURVE SMOOTH",
"791 424 LINE",
"754 238 LINE",
"754 158 LINE",
"720 147 LINE",
"720 132 LINE",
"707 129 LINE"
);
},
{
closed = 1;
nodes = (
"471 866 OFFCURVE",
"479 867 OFFCURVE",
"488 868 CURVE",
"479 882 OFFCURVE",
"471 888 OFFCURVE",
"456 888 CURVE SMOOTH",
"453 888 OFFCURVE",
"437 886 OFFCURVE",
"430 878 CURVE",
"439 871 OFFCURVE",
"449 866 OFFCURVE",
"464 866 CURVE SMOOTH"
);
},
{
closed = 1;
nodes = (
"545 825 LINE",
"560 843 LINE SMOOTH",
"566 851 OFFCURVE",
"575 866 OFFCURVE",
"575 875 CURVE SMOOTH",
"575 890 OFFCURVE",
"564 905 OFFCURVE",
"547 905 CURVE SMOOTH",
"538 905 OFFCURVE",
"530 900 OFFCURVE",
"523 895 CURVE",
"445 939 LINE",
"455 970 OFFCURVE",
"483 982 OFFCURVE",
"516 982 CURVE SMOOTH",
"559 982 OFFCURVE",
"632 958 OFFCURVE",
"632 906 CURVE SMOOTH",
"632 868 OFFCURVE",
"606 832 OFFCURVE",
"579 795 CURVE"
);
}
);
width = 859;
}
);
unicode = 13001;
},
{
glyphname = u13002;
lastChange = "2017-01-25 19:58:54 +0000";
layers = (
{
layerId = UUID0;
paths = (
{
closed = 1;
nodes = (
"170 0 LINE",
"217 13 LINE",
"233 4 OFFCURVE",
"252 0 OFFCURVE",
"271 0 CURVE SMOOTH",
"278 0 OFFCURVE",
"338 7 OFFCURVE",
"396 29 CURVE SMOOTH",
"619 112 LINE",
"635 78 LINE SMOOTH",
"640 67 OFFCURVE",
"645 61 OFFCURVE",
"632 54 CURVE SMOOTH",
"602 39 LINE",
"617 0 LINE",
"635 0 OFFCURVE",
"680 17 OFFCURVE",
"695 27 CURVE SMOOTH",
"712 38 OFFCURVE",
"722 60 OFFCURVE",
"716 85 CURVE SMOOTH",
"695 176 LINE",
"660 176 LINE",
"660 325 LINE",
"640 328 LINE",
"652 446 LINE",
"815 381 LINE",
"849 422 LINE",
"772 662 LINE SMOOTH",
"766 681 OFFCURVE",
"762 712 OFFCURVE",
"727 720 CURVE SMOOTH",
"624 745 LINE",
"624 783 LINE",
"660 832 OFFCURVE",
"684 865 OFFCURVE",
"684 902 CURVE SMOOTH",
"684 963 OFFCURVE",
"620 1001 OFFCURVE",
"548 1001 CURVE SMOOTH",
"496 1001 OFFCURVE",
"470 980 OFFCURVE",
"460 942 CURVE",
"458 929 LINE",
"409 819 LINE",
"440 817 LINE",
"464 754 LINE",
"504 769 LINE",
"511 743 LINE",
"457 730 LINE SMOOTH",
"413 719 OFFCURVE",
"382 678 OFFCURVE",
"354 650 CURVE SMOOTH",
"292 589 LINE",
"174 700 LINE",
"161 743 LINE",
"134 779 LINE",
"62 814 LINE",
"49 790 LINE",
"98 757 LINE",
"107 732 LINE",
"67 749 LINE",
"52 728 LINE",
"297 490 LINE",
"326 491 LINE",
"441 593 LINE",
"472 351 LINE",
"457 299 LINE",
"307 427 LINE",
"292 444 OFFCURVE",
"269 453 OFFCURVE",
"249 453 CURVE SMOOTH",
"207 453 OFFCURVE",
"186 417 OFFCURVE",
"186 382 CURVE SMOOTH",
"186 374 OFFCURVE",
"190 354 OFFCURVE",
"192 347 CURVE SMOOTH",
"243 157 LINE",
"199 137 OFFCURVE",
"179 107 OFFCURVE",
"179 80 CURVE SMOOTH",
"179 76 OFFCURVE",
"179 73 OFFCURVE",
"180 69 CURVE",
"166 60 LINE",
"82 45 LINE",
"82 0 LINE"
);
},
{
closed = 1;
nodes = (
"101 33 LINE",
"173 42 LINE",
"185 50 LINE",
"188 42 OFFCURVE",
"193 34 OFFCURVE",
"199 27 CURVE",
"168 19 LINE",
"101 19 LINE"
);
},
{
closed = 1;
nodes = (
"622 31 LINE",
"650 43 LINE",
"660 48 OFFCURVE",
"664 66 OFFCURVE",
"653 82 CURVE",
"626 136 LINE",
"396 50 LINE SMOOTH",
"346 33 OFFCURVE",
"294 20 OFFCURVE",
"272 20 CURVE SMOOTH",
"243 20 OFFCURVE",
"198 31 OFFCURVE",
"198 82 CURVE SMOOTH",
"198 98 OFFCURVE",
"207 113 OFFCURVE",
"227 123 CURVE",
"276 63 LINE",
"402 127 OFFCURVE",
"541 158 OFFCURVE",
"679 160 CURVE",
"698 85 LINE SMOOTH",
"702 70 OFFCURVE",
"699 51 OFFCURVE",
"686 42 CURVE SMOOTH",
"673 33 OFFCURVE",
"641 21 OFFCURVE",
"628 16 CURVE"
);
},
{
closed = 1;
nodes = (
"211 348 LINE SMOOTH",
"208 359 OFFCURVE",
"205 373 OFFCURVE",
"205 382 CURVE SMOOTH",
"205 413 OFFCURVE",
"222 434 OFFCURVE",
"248 434 CURVE SMOOTH",
"257 434 OFFCURVE",
"267 432 OFFCURVE",
"274 428 CURVE",
"246 365 LINE",
"304 194 LINE",
"260 165 LINE"
);
},
{
closed = 1;
nodes = (
"245 132 LINE",
"468 274 LINE",
"634 311 LINE",
"643 311 LINE",
"643 174 LINE",
"520 167 OFFCURVE",
"387 140 OFFCURVE",
"281 86 CURVE"
);
},
{
closed = 1;
nodes = (
"266 366 LINE",
"290 420 LINE",
"448 286 LINE",
"322 203 LINE"
);
},
{
closed = 1;
nodes = (
"490 352 LINE",
"457 617 LINE",
"443 617 LINE",
"319 509 LINE",
"300 509 LINE",
"72 728 LINE",
"76 733 LINE",
"122 712 LINE",
"128 717 LINE",
"114 759 LINE",
"67 790 LINE",
"71 797 LINE",
"124 769 LINE",
"146 737 LINE",
"165 685 LINE",
"215 638 OFFCURVE",
"245 612 OFFCURVE",
"294 566 CURVE",
"368 640 LINE SMOOTH",
"390 662 OFFCURVE",
"430 708 OFFCURVE",
"456 713 CURVE SMOOTH",
"532 729 LINE",
"517 791 LINE",
"472 776 LINE",
"452 831 LINE",
"433 832 LINE",
"473 923 LINE",
"558 875 LINE",
"564 883 OFFCURVE",
"569 887 OFFCURVE",
"579 887 CURVE SMOOTH",
"589 887 OFFCURVE",
"590 877 OFFCURVE",
"590 873 CURVE SMOOTH",
"590 868 OFFCURVE",
"583 857 OFFCURVE",
"579 851 CURVE SMOOTH",
"557 820 LINE",
"605 779 LINE",
"605 732 LINE",
"724 703 LINE SMOOTH",
"743 698 OFFCURVE",
"750 673 OFFCURVE",
"756 655 CURVE SMOOTH",
"830 426 LINE",
"810 401 LINE",
"645 465 LINE",
"510 520 LINE",
"512 525 LINE",
"563 520 LINE",
"567 526 LINE",
"540 562 LINE",
"495 574 LINE",
"496 582 LINE",
"547 574 LINE",
"578 551 LINE",
"604 507 LINE",
"774 455 LINE",
"779 464 LINE",
"703 621 LINE",
"683 622 LINE",
"643 511 LINE",
"610 522 LINE",
"589 561 LINE",
"553 587 LINE",
"481 595 LINE",
"477 567 LINE",
"525 555 LINE",
"542 534 LINE",
"499 538 LINE",
"491 513 LINE",
"635 451 LINE",
"622 326 LINE",
"474 293 LINE"
);
},
{
closed = 1;
nodes = (
"660 507 LINE",
"692 604 LINE",
"757 479 LINE"
);
},
{
closed = 1;
nodes = (
"504 866 OFFCURVE",
"511 867 OFFCURVE",
"521 868 CURVE",
"512 882 OFFCURVE",
"504 888 OFFCURVE",
"489 888 CURVE SMOOTH",
"485 888 OFFCURVE",
"469 886 OFFCURVE",
"462 878 CURVE",
"472 871 OFFCURVE",
"482 866 OFFCURVE",
"497 866 CURVE SMOOTH"
);
},
{
closed = 1;
nodes = (
"578 825 LINE",
"592 843 LINE",
"598 851 OFFCURVE",
"607 866 OFFCURVE",
"607 875 CURVE SMOOTH",
"607 890 OFFCURVE",
"597 905 OFFCURVE",
"580 905 CURVE SMOOTH",
"571 905 OFFCURVE",
"563 900 OFFCURVE",
"556 895 CURVE",
"478 939 LINE",
"488 970 OFFCURVE",
"516 982 OFFCURVE",
"549 982 CURVE SMOOTH",
"592 982 OFFCURVE",
"665 958 OFFCURVE",
"665 906 CURVE SMOOTH",
"665 868 OFFCURVE",
"639 832 OFFCURVE",
"612 795 CURVE"
);
}
);
width = 898;
}
);
unicode = 13002;
},
{
glyphname = u13003;
lastChange = "2017-01-25 19:58:54 +0000";
layers = (
{
layerId = UUID0;
paths = (
{
closed = 1;
nodes = (
"170 0 LINE",
"217 13 LINE",
"233 4 OFFCURVE",
"252 0 OFFCURVE",
"271 0 CURVE SMOOTH",
"278 0 OFFCURVE",
"320 2 OFFCURVE",
"372 9 CURVE SMOOTH",
"576 35 LINE",
"705 0 LINE",
"794 0 LINE",
"794 45 LINE",
"709 60 LINE",
"660 95 LINE",
"660 285 LINE",
"640 287 LINE",
"649 345 OFFCURVE",
"668 423 OFFCURVE",
"683 481 CURVE SMOOTH",
"700 548 OFFCURVE",
"724 623 OFFCURVE",
"724 646 CURVE SMOOTH",
"724 674 OFFCURVE",
"724 709 OFFCURVE",
"673 728 CURVE SMOOTH",
"624 746 LINE",
"624 783 LINE",
"660 832 OFFCURVE",
"684 865 OFFCURVE",
"684 902 CURVE SMOOTH",
"684 963 OFFCURVE",
"620 1001 OFFCURVE",
"548 1001 CURVE SMOOTH",
"496 1001 OFFCURVE",
"470 980 OFFCURVE",
"460 942 CURVE",
"458 929 LINE",
"409 819 LINE",
"440 817 LINE",
"464 754 LINE",
"504 769 LINE",
"511 743 LINE",
"457 730 LINE SMOOTH",
"423 722 OFFCURVE",
"397 695 OFFCURVE",
"374 671 CURVE",
"360 684 LINE",
"347 728 LINE",
"320 763 LINE",
"248 799 LINE",
"235 774 LINE",
"284 742 LINE",
"293 716 LINE",
"253 733 LINE",
"238 712 LINE",
"328 624 LINE",
"292 589 LINE",
"174 700 LINE",
"161 743 LINE",
"134 779 LINE",
"62 814 LINE",
"49 790 LINE",
"98 757 LINE",
"107 732 LINE",
"67 749 LINE",
"52 728 LINE",
"297 490 LINE",
"326 491 LINE",
"399 555 LINE",
"453 503 LINE",
"472 351 LINE",
"457 259 LINE",
"307 427 LINE SMOOTH",
"292 444 OFFCURVE",
"269 453 OFFCURVE",
"249 453 CURVE SMOOTH",
"207 453 OFFCURVE",
"186 417 OFFCURVE",
"186 382 CURVE SMOOTH",
"186 374 OFFCURVE",
"190 354 OFFCURVE",
"192 347 CURVE SMOOTH",
"246 151 LINE",
"202 131 OFFCURVE",
"179 107 OFFCURVE",
"179 80 CURVE SMOOTH",
"179 76 OFFCURVE",
"179 73 OFFCURVE",
"180 69 CURVE",
"166 60 LINE",
"82 45 LINE",
"82 0 LINE"
);
},
{
closed = 1;
nodes = (
"101 33 LINE",
"173 42 LINE",
"185 50 LINE",
"188 42 OFFCURVE",
"193 34 OFFCURVE",
"199 27 CURVE",
"168 19 LINE",
"101 19 LINE"
);
},
{
closed = 1;
nodes = (
"211 348 LINE SMOOTH",
"208 359 OFFCURVE",
"205 373 OFFCURVE",
"205 382 CURVE SMOOTH",
"205 413 OFFCURVE",
"222 434 OFFCURVE",
"248 434 CURVE SMOOTH",
"257 434 OFFCURVE",
"267 432 OFFCURVE",
"274 428 CURVE",
"246 365 LINE",
"307 181 LINE",
"263 159 LINE"
);
},
{
closed = 1;
nodes = (
"580 55 LINE",
"373 29 LINE SMOOTH",
"342 25 OFFCURVE",
"294 21 OFFCURVE",
"272 21 CURVE SMOOTH",
"243 21 OFFCURVE",
"198 31 OFFCURVE",
"198 82 CURVE SMOOTH",
"198 98 OFFCURVE",
"207 113 OFFCURVE",
"227 123 CURVE",
"276 63 LINE",
"645 83 LINE",
"703 42 LINE",
"775 33 LINE",
"775 19 LINE",
"708 19 LINE"
);
},
{
closed = 1;
nodes = (
"245 132 LINE",
"465 234 LINE",
"634 270 LINE",
"643 270 LINE",
"643 100 LINE",
"287 80 LINE"
);
},
{
closed = 1;
nodes = (
"266 366 LINE",
"290 420 LINE",
"448 245 LINE",
"325 189 LINE"
);
},
{
closed = 1;
nodes = (
"72 728 LINE",
"76 733 LINE",
"122 712 LINE",
"128 717 LINE",
"114 759 LINE",
"67 790 LINE",
"71 797 LINE",
"124 769 LINE",
"146 737 LINE",
"165 685 LINE",
"215 638 OFFCURVE",
"245 612 OFFCURVE",
"294 566 CURVE",
"340 612 LINE",
"386 568 LINE",
"319 509 LINE",
"300 509 LINE"
);
},
{
closed = 1;
nodes = (
"490 352 LINE",
"473 483 LINE",
"483 474 LINE",
"512 476 LINE",
"647 587 LINE",
"643 606 LINE",
"505 494 LINE",
"486 494 LINE",
"258 712 LINE",
"262 717 LINE",
"308 696 LINE",
"314 702 LINE",
"300 743 LINE",
"253 774 LINE",
"257 782 LINE",
"310 753 LINE",
"332 721 LINE",
"351 669 LINE",
"401 622 OFFCURVE",
"442 587 OFFCURVE",
"480 550 CURVE",
"556 619 LINE",
"577 640 OFFCURVE",
"610 672 OFFCURVE",
"636 677 CURVE",
"637 694 LINE",
"593 684 OFFCURVE",
"570 656 OFFCURVE",
"542 628 CURVE",
"478 573 LINE",
"459 590 LINE",
"455 627 LINE",
"437 612 LINE",
"386 659 LINE",
"408 682 OFFCURVE",
"436 709 OFFCURVE",
"456 713 CURVE SMOOTH",
"532 729 LINE",
"517 791 LINE",
"472 776 LINE",
"452 831 LINE",
"433 832 LINE",
"473 923 LINE",
"558 875 LINE",
"564 883 OFFCURVE",
"569 887 OFFCURVE",
"579 887 CURVE SMOOTH",
"589 887 OFFCURVE",
"590 877 OFFCURVE",
"590 873 CURVE SMOOTH",
"590 868 OFFCURVE",
"583 857 OFFCURVE",
"579 851 CURVE SMOOTH",
"557 820 LINE",
"605 779 LINE",
"605 732 LINE",
"667 709 LINE SMOOTH",
"701 696 OFFCURVE",
"702 667 OFFCURVE",
"702 645 CURVE SMOOTH",
"702 628 OFFCURVE",
"689 576 OFFCURVE",
"666 487 CURVE SMOOTH",
"651 429 OFFCURVE",
"632 353 OFFCURVE",
"622 286 CURVE",
"474 253 LINE"
);
},
{
closed = 1;
nodes = (
"504 866 OFFCURVE",
"511 867 OFFCURVE",
"521 868 CURVE",
"512 882 OFFCURVE",
"504 888 OFFCURVE",
"489 888 CURVE SMOOTH",
"485 888 OFFCURVE",
"469 886 OFFCURVE",
"462 878 CURVE",
"472 871 OFFCURVE",
"482 866 OFFCURVE",
"497 866 CURVE SMOOTH"
);
},
{
closed = 1;
nodes = (
"578 825 LINE",
"592 843 LINE",
"598 851 OFFCURVE",
"607 866 OFFCURVE",
"607 875 CURVE SMOOTH",
"607 890 OFFCURVE",
"597 905 OFFCURVE",
"580 905 CURVE SMOOTH",
"571 905 OFFCURVE",
"563 900 OFFCURVE",
"556 895 CURVE",
"478 939 LINE",
"488 970 OFFCURVE",
"516 982 OFFCURVE",
"549 982 CURVE SMOOTH",
"592 982 OFFCURVE",
"665 958 OFFCURVE",
"665 906 CURVE SMOOTH",
"665 868 OFFCURVE",
"639 832 OFFCURVE",
"612 795 CURVE"
);
}
);
width = 843;
}
);
unicode = 13003;
},
{
glyphname = u13004;
lastChange = "2017-01-25 19:58:54 +0000";
layers = (
{
layerId = UUID0;
paths = (
{
closed = 1;
nodes = (
"346 0 LINE",
"354 63 LINE SMOOTH",
"354 64 OFFCURVE",
"375 118 OFFCURVE",
"379 130 CURVE SMOOTH",
"381 136 OFFCURVE",
"403 191 OFFCURVE",
"417 225 CURVE",
"431 180 OFFCURVE",
"448 129 OFFCURVE",
"460 85 CURVE",
"435 57 LINE",
"361 45 LINE",
"361 0 LINE",
"520 0 LINE",
"556 30 LINE",
"542 59 OFFCURVE",
"530 92 OFFCURVE",
"529 110 CURVE SMOOTH",
"528 124 OFFCURVE",
"532 156 OFFCURVE",
"528 189 CURVE SMOOTH",
"524 225 OFFCURVE",
"515 254 OFFCURVE",
"513 270 CURVE",
"532 255 OFFCURVE",
"679 184 OFFCURVE",
"768 184 CURVE SMOOTH",
"837 184 OFFCURVE",
"859 231 OFFCURVE",
"859 272 CURVE SMOOTH",
"859 328 OFFCURVE",
"805 396 OFFCURVE",
"788 417 CURVE",
"777 451 OFFCURVE",
"733 564 OFFCURVE",
"701 611 CURVE SMOOTH",
"674 651 OFFCURVE",
"614 664 OFFCURVE",
"597 667 CURVE",
"589 701 LINE",
"605 724 OFFCURVE",
"634 766 OFFCURVE",
"634 802 CURVE SMOOTH",
"634 857 OFFCURVE",
"575 891 OFFCURVE",
"524 891 CURVE SMOOTH",
"449 891 OFFCURVE",
"439 833 OFFCURVE",
"438 831 CURVE",
"433 813 LINE",
"397 727 LINE",
"427 727 LINE",
"438 667 LINE",
"486 681 LINE",
"494 649 LINE",
"409 628 LINE",
"348 744 LINE",
"352 787 LINE",
"342 826 LINE",
"295 882 LINE",
"276 866 LINE",
"305 821 LINE",
"303 797 LINE",
"276 825 LINE",
"256 813 LINE",
"339 614 LINE",
"228 789 LINE",
"228 800 LINE",
"213 837 LINE",
"163 876 LINE",
"163 896 LINE",
"587 896 LINE",
"587 958 LINE",
"370 958 LINE",
"370 1001 LINE",
"49 1001 LINE",
"49 674 LINE",
"97 674 LINE",
"97 482 LINE",
"163 482 LINE",
"163 758 LINE",
"188 736 LINE",
"306 529 LINE",
"338 527 LINE",
"472 557 LINE",
"544 478 LINE",
"601 432 LINE",
"646 346 LINE",
"644 343 LINE",
"610 363 OFFCURVE",
"531 411 OFFCURVE",
"450 411 CURVE SMOOTH",
"432 411 OFFCURVE",
"408 399 OFFCURVE",
"402 389 CURVE",
"369 379 OFFCURVE",
"354 343 OFFCURVE",
"342 298 CURVE SMOOTH",
"332 262 OFFCURVE",
"297 116 OFFCURVE",
"292 96 CURVE",
"273 68 LINE",
"235 57 LINE",
"154 45 LINE",
"154 0 LINE"
);
},
{
closed = 1;
nodes = (
"173 33 LINE",
"242 42 LINE",
"284 54 LINE",
"309 88 LINE",
"321 137 OFFCURVE",
"352 263 OFFCURVE",
"358 288 CURVE SMOOTH",
"365 316 OFFCURVE",
"378 353 OFFCURVE",
"397 366 CURVE",
"395 354 OFFCURVE",
"395 345 OFFCURVE",
"396 332 CURVE SMOOTH",
"398 312 OFFCURVE",
"403 285 OFFCURVE",
"411 256 CURVE",
"361 136 LINE SMOOTH",
"359 131 OFFCURVE",
"342 83 OFFCURVE",
"336 66 CURVE",
"335 58 OFFCURVE",
"331 31 OFFCURVE",
"329 19 CURVE",
"173 19 LINE"
);
},
{
closed = 1;
nodes = (
"381 33 LINE",
"443 41 LINE",
"481 78 LINE",
"464 132 OFFCURVE",
"417 288 OFFCURVE",
"415 331 CURVE SMOOTH",
"414 358 OFFCURVE",
"417 392 OFFCURVE",
"454 392 CURVE SMOOTH",
"535 392 OFFCURVE",
"610 342 OFFCURVE",
"659 316 CURVE",
"673 328 LINE",
"619 438 LINE",
"559 487 LINE",
"477 578 LINE",
"335 545 LINE",
"318 546 LINE",
"200 748 LINE",
"163 778 LINE",
"163 787 LINE",
"185 787 LINE",
"191 815 LINE",
"163 850 LINE",
"163 858 LINE",
"201 831 LINE",
"213 799 LINE",
"214 783 LINE",
"333 592 LINE",
"511 639 LINE",
"497 700 LINE",
"449 687 LINE",
"440 741 LINE",
"420 741 LINE",
"445 801 LINE",
"522 779 LINE",
"526 789 OFFCURVE",
"530 794 OFFCURVE",
"541 794 CURVE SMOOTH",
"551 794 OFFCURVE",
"552 783 OFFCURVE",
"552 780 CURVE SMOOTH",
"552 775 OFFCURVE",
"549 766 OFFCURVE",
"533 725 CURVE",
"570 708 LINE",
"583 652 LINE",
"594 650 OFFCURVE",
"657 643 OFFCURVE",
"685 603 CURVE SMOOTH",
"715 560 OFFCURVE",
"761 443 OFFCURVE",
"773 404 CURVE",
"789 388 OFFCURVE",
"840 315 OFFCURVE",
"840 272 CURVE SMOOTH",
"840 240 OFFCURVE",
"817 204 OFFCURVE",
"767 204 CURVE SMOOTH",
"690 204 OFFCURVE",
"553 260 OFFCURVE",
"501 298 CURVE",
"488 291 LINE",
"492 279 OFFCURVE",
"504 235 OFFCURVE",
"510 190 CURVE SMOOTH",
"515 153 OFFCURVE",
"512 124 OFFCURVE",
"512 110 CURVE SMOOTH",
"512 86 OFFCURVE",
"529 48 OFFCURVE",
"534 38 CURVE",
"511 19 LINE",
"381 19 LINE"
);
},
{
closed = 1;
nodes = (
"163 831 LINE",
"178 812 LINE",
"175 797 LINE",
"163 797 LINE"
);
},
{
closed = 1;
nodes = (
"115 693 LINE",
"67 693 LINE",
"67 982 LINE",
"353 982 LINE",
"353 940 LINE",
"569 940 LINE",
"569 914 LINE",
"145 914 LINE",
"145 501 LINE",
"115 501 LINE"
);
},
{
closed = 1;
nodes = (
"273 806 LINE",
"277 809 LINE",
"308 774 LINE",
"315 777 LINE",
"319 816 LINE",
"291 859 LINE",
"297 865 LINE",
"331 822 LINE",
"337 787 LINE",
"334 737 LINE",
"393 623 LINE",
"356 614 LINE"
);
},
{
closed = 1;
nodes = (
"485 756 OFFCURVE",
"492 757 OFFCURVE",
"501 758 CURVE",
"493 772 OFFCURVE",
"485 778 OFFCURVE",
"470 778 CURVE SMOOTH",
"466 778 OFFCURVE",
"450 776 OFFCURVE",
"443 769 CURVE",
"453 761 OFFCURVE",
"463 756 OFFCURVE",
"478 756 CURVE SMOOTH"
);
},
{
closed = 1;
nodes = (
"553 735 LINE",
"564 764 OFFCURVE",
"568 776 OFFCURVE",
"568 784 CURVE SMOOTH",
"568 798 OFFCURVE",
"555 811 OFFCURVE",
"542 811 CURVE SMOOTH",
"529 811 OFFCURVE",
"521 807 OFFCURVE",
"515 798 CURVE",
"452 817 LINE",
"455 826 LINE",
"457 836 OFFCURVE",
"471 872 OFFCURVE",
"522 872 CURVE SMOOTH",
"571 872 OFFCURVE",
"615 837 OFFCURVE",
"615 802 CURVE SMOOTH",
"615 773 OFFCURVE",
"593 739 OFFCURVE",
"580 721 CURVE"
);
}
);
width = 908;
}
);
unicode = 13004;
},
{
glyphname = u13005;
lastChange = "2017-01-25 19:58:54 +0000";
layers = (
{
layerId = UUID0;
paths = (
{
closed = 1;
nodes = (
"253 0 LINE",
"292 12 LINE",
"305 4 OFFCURVE",
"320 0 OFFCURVE",
"336 0 CURVE SMOOTH",
"342 0 OFFCURVE",
"377 2 OFFCURVE",
"420 8 CURVE SMOOTH",
"590 33 LINE",
"697 0 LINE",
"775 0 LINE",
"775 42 LINE",
"705 55 LINE",
"664 88 LINE",
"664 265 LINE",
"647 267 LINE",
"652 316 OFFCURVE",
"670 372 OFFCURVE",
"683 420 CURVE SMOOTH",
"698 475 OFFCURVE",
"717 548 OFFCURVE",
"717 573 CURVE SMOOTH",
"717 599 OFFCURVE",
"717 631 OFFCURVE",
"674 649 CURVE SMOOTH",
"634 666 LINE",
"634 700 LINE",
"664 746 OFFCURVE",
"684 777 OFFCURVE",
"684 812 CURVE SMOOTH",
"684 853 OFFCURVE",
"654 882 OFFCURVE",
"614 896 CURVE",
"672 896 LINE",
"672 958 LINE",
"410 958 LINE",
"410 1001 LINE",
"49 1001 LINE",
"49 653 LINE",
"97 653 LINE",
"97 450 LINE",
"163 450 LINE",
"163 636 LINE",
"354 428 LINE",
"382 430 LINE",
"443 489 LINE",
"483 440 LINE",
"500 299 LINE",
"487 247 LINE",
"370 371 LINE SMOOTH",
"356 385 OFFCURVE",
"333 394 OFFCURVE",
"317 394 CURVE SMOOTH",
"282 394 OFFCURVE",
"265 361 OFFCURVE",
"265 328 CURVE SMOOTH",
"265 320 OFFCURVE",
"268 302 OFFCURVE",
"270 295 CURVE SMOOTH",
"314 141 LINE",
"278 122 OFFCURVE",
"259 100 OFFCURVE",
"259 74 CURVE SMOOTH",
"259 71 OFFCURVE",
"259 68 OFFCURVE",
"259 64 CURVE",
"248 55 LINE",
"180 42 LINE",
"180 0 LINE"
);
},
{
closed = 1;
nodes = (
"195 30 LINE",
"255 39 LINE",
"265 46 LINE",
"268 39 OFFCURVE",
"271 31 OFFCURVE",
"276 25 CURVE",
"251 17 LINE",
"195 17 LINE"
);
},
{
closed = 1;
nodes = (
"592 51 LINE",
"420 27 LINE SMOOTH",
"394 23 OFFCURVE",
"356 19 OFFCURVE",
"337 19 CURVE SMOOTH",
"313 19 OFFCURVE",
"276 28 OFFCURVE",
"276 76 CURVE SMOOTH",
"276 91 OFFCURVE",
"284 105 OFFCURVE",
"299 115 CURVE",
"341 58 LINE",
"646 77 LINE",
"694 39 LINE",
"755 30 LINE",
"755 17 LINE",
"699 17 LINE"
);
},
{
closed = 1;
nodes = (
"287 296 LINE SMOOTH",
"284 307 OFFCURVE",
"281 319 OFFCURVE",
"281 328 CURVE SMOOTH",
"281 357 OFFCURVE",
"295 376 OFFCURVE",
"317 376 CURVE SMOOTH",
"325 376 OFFCURVE",
"333 375 OFFCURVE",
"339 371 CURVE",
"315 313 LINE",
"366 168 LINE",
"330 148 LINE"
);
},
{
closed = 1;
nodes = (
"314 123 LINE",
"498 217 LINE",
"638 251 LINE",
"645 251 LINE",
"645 92 LINE",
"349 74 LINE"
);
},
{
closed = 1;
nodes = (
"333 311 LINE",
"354 360 LINE",
"479 228 LINE",
"381 176 LINE"
);
},
{
closed = 1;
nodes = (
"167 669 LINE",
"163 664 LINE",
"163 698 LINE",
"192 677 LINE",
"200 653 LINE"
);
},
{
closed = 1;
nodes = (
"171 649 LINE",
"174 654 LINE",
"213 635 LINE",
"218 640 LINE",
"206 678 LINE",
"167 708 LINE",
"170 714 LINE",
"214 688 LINE",
"233 658 LINE",
"248 609 LINE",
"356 499 LINE",
"394 542 LINE",
"432 501 LINE",
"376 446 LINE",
"360 446 LINE"
);
},
{
closed = 1;
nodes = (
"518 300 LINE",
"504 422 LINE",
"512 414 LINE",
"537 415 LINE",
"648 517 LINE",
"645 536 LINE",
"530 432 LINE",
"516 432 LINE",
"326 635 LINE",
"329 640 LINE",
"367 621 LINE",
"373 625 LINE",
"360 664 LINE",
"322 693 LINE",
"325 699 LINE",
"369 673 LINE",
"387 643 LINE",
"402 594 LINE",
"509 484 LINE",
"573 545 LINE",
"591 563 OFFCURVE",
"618 594 OFFCURVE",
"639 600 CURVE",
"640 619 LINE",
"604 608 OFFCURVE",
"587 580 OFFCURVE",
"562 557 CURVE SMOOTH",
"508 506 LINE",
"493 521 LINE",
"489 556 LINE",
"474 542 LINE",
"433 584 LINE",
"451 605 OFFCURVE",
"474 630 OFFCURVE",
"491 634 CURVE",
"554 649 LINE",
"541 708 LINE",
"504 694 LINE",
"486 746 LINE",
"470 747 LINE",
"504 831 LINE",
"575 786 LINE",
"580 793 OFFCURVE",
"583 797 OFFCURVE",
"592 797 CURVE SMOOTH",
"601 797 OFFCURVE",
"601 788 OFFCURVE",
"601 784 CURVE SMOOTH",
"601 780 OFFCURVE",
"596 770 OFFCURVE",
"592 764 CURVE SMOOTH",
"574 735 LINE",
"614 697 LINE",
"614 654 LINE",
"665 632 LINE",
"694 620 OFFCURVE",
"694 593 OFFCURVE",
"694 572 CURVE SMOOTH",
"694 557 OFFCURVE",
"683 508 OFFCURVE",
"664 426 CURVE SMOOTH",
"651 371 OFFCURVE",
"634 324 OFFCURVE",
"628 265 CURVE",
"504 235 LINE"
);
},
{
closed = 1;
nodes = (
"258 624 LINE",
"247 664 LINE",
"225 697 LINE",
"165 730 LINE",
"163 727 LINE",
"163 896 LINE",
"527 896 LINE",
"509 888 OFFCURVE",
"497 866 OFFCURVE",
"494 849 CURVE SMOOTH",
"492 836 LINE",
"451 734 LINE",
"477 732 LINE",
"497 674 LINE",
"530 688 LINE",
"535 663 LINE",
"491 651 LINE SMOOTH",
"462 643 OFFCURVE",
"441 620 OFFCURVE",
"422 596 CURVE",
"411 608 LINE",
"402 649 LINE",
"379 682 LINE",
"319 715 LINE",
"306 692 LINE",
"347 662 LINE",
"354 639 LINE",
"322 655 LINE",
"309 635 LINE",
"384 553 LINE",
"356 522 LINE"
);
},
{
closed = 1;
nodes = (
"115 672 LINE",
"67 672 LINE",
"67 982 LINE",
"392 982 LINE",
"392 940 LINE",
"654 940 LINE",
"654 914 LINE",
"145 914 LINE",
"145 468 LINE",
"115 468 LINE"
);
},
{
closed = 1;
nodes = (
"529 778 OFFCURVE",
"536 778 OFFCURVE",
"543 780 CURVE",
"536 793 OFFCURVE",
"529 798 OFFCURVE",
"517 798 CURVE SMOOTH",
"515 798 OFFCURVE",
"501 796 OFFCURVE",
"496 789 CURVE",
"503 782 OFFCURVE",
"512 778 OFFCURVE",
"524 778 CURVE SMOOTH"
);
},
{
closed = 1;
nodes = (
"591 740 LINE",
"603 757 LINE SMOOTH",
"608 764 OFFCURVE",
"616 778 OFFCURVE",
"616 786 CURVE SMOOTH",
"616 800 OFFCURVE",
"607 814 OFFCURVE",
"593 814 CURVE SMOOTH",
"585 814 OFFCURVE",
"579 810 OFFCURVE",
"573 804 CURVE",
"508 846 LINE",
"517 875 OFFCURVE",
"540 886 OFFCURVE",
"567 886 CURVE SMOOTH",
"603 886 OFFCURVE",
"664 863 OFFCURVE",
"664 815 CURVE SMOOTH",
"664 779 OFFCURVE",
"642 747 OFFCURVE",
"620 712 CURVE"
);
}
);
width = 824;
}
);
unicode = 13005;
},
{
glyphname = u13006;
lastChange = "2017-01-25 19:58:54 +0000";
layers = (
{
layerId = UUID0;
paths = (
{
closed = 1;
nodes = (
"96 0 LINE",
"96 38 LINE",
"96 46 OFFCURVE",
"70 83 OFFCURVE",
"69 97 CURVE SMOOTH",
"68 120 OFFCURVE",
"106 139 OFFCURVE",
"106 165 CURVE SMOOTH",
"106 190 OFFCURVE",
"78 215 OFFCURVE",
"76 232 CURVE SMOOTH",
"74 246 OFFCURVE",
"105 262 OFFCURVE",
"104 278 CURVE SMOOTH",
"102 311 OFFCURVE",
"74 334 OFFCURVE",
"72 353 CURVE SMOOTH",
"70 375 OFFCURVE",
"115 403 OFFCURVE",
"119 427 CURVE SMOOTH",
"122 443 OFFCURVE",
"85 487 OFFCURVE",
"83 507 CURVE SMOOTH",
"82 520 OFFCURVE",
"138 551 OFFCURVE",
"139 572 CURVE SMOOTH",
"140 593 OFFCURVE",
"111 622 OFFCURVE",
"109 641 CURVE SMOOTH",
"107 658 OFFCURVE",
"163 692 OFFCURVE",
"168 709 CURVE SMOOTH",
"173 725 OFFCURVE",
"150 747 OFFCURVE",
"157 765 CURVE SMOOTH",
"163 781 OFFCURVE",
"233 789 OFFCURVE",
"241 800 CURVE SMOOTH",
"250 812 OFFCURVE",
"236 860 OFFCURVE",
"244 870 CURVE SMOOTH",
"250 877 OFFCURVE",
"291 864 OFFCURVE",
"304 875 CURVE SMOOTH",
"317 886 OFFCURVE",
"319 917 OFFCURVE",
"330 929 CURVE SMOOTH",
"336 936 OFFCURVE",
"409 902 OFFCURVE",
"424 903 CURVE SMOOTH",
"440 904 OFFCURVE",
"475 917 OFFCURVE",
"481 919 CURVE",
"477 903 OFFCURVE",
"466 884 OFFCURVE",
"461 874 CURVE",
"477 865 LINE",
"479 869 OFFCURVE",
"485 880 OFFCURVE",
"492 897 CURVE",
"505 881 OFFCURVE",
"530 868 OFFCURVE",
"560 862 CURVE",
"536 855 OFFCURVE",
"521 840 OFFCURVE",
"514 812 CURVE",
"512 800 LINE",
"472 702 LINE",
"499 701 LINE",
"519 645 LINE",
"552 658 LINE",
"557 634 LINE",
"513 623 LINE SMOOTH",
"484 616 OFFCURVE",
"463 593 OFFCURVE",
"444 570 CURVE",
"433 582 LINE",
"424 621 LINE",
"401 653 LINE",
"341 685 LINE",
"328 663 LINE",
"369 633 LINE",
"376 611 LINE",
"344 626 LINE",
"331 607 LINE",
"406 529 LINE",
"378 500 LINE",
"280 597 LINE",
"269 635 LINE",
"247 667 LINE",
"187 698 LINE",
"175 677 LINE",
"214 647 LINE",
"222 625 LINE",
"189 640 LINE",
"175 620 LINE",
"376 410 LINE",
"404 411 LINE",
"465 468 LINE",
"505 421 LINE",
"522 286 LINE",
"509 236 LINE",
"392 354 LINE SMOOTH",
"378 369 OFFCURVE",
"355 377 OFFCURVE",
"339 377 CURVE SMOOTH",
"304 377 OFFCURVE",
"287 346 OFFCURVE",
"287 314 CURVE SMOOTH",
"287 306 OFFCURVE",
"290 289 OFFCURVE",
"292 283 CURVE SMOOTH",
"336 135 LINE",
"300 116 OFFCURVE",
"281 95 OFFCURVE",
"281 71 CURVE SMOOTH",
"281 68 OFFCURVE",
"281 65 OFFCURVE",
"281 62 CURVE",
"270 53 LINE",
"202 40 LINE",
"202 0 LINE",
"275 0 LINE",
"314 12 LINE",
"327 4 OFFCURVE",
"342 0 OFFCURVE",
"358 0 CURVE SMOOTH",
"364 0 OFFCURVE",
"399 2 OFFCURVE",
"442 8 CURVE SMOOTH",
"612 32 LINE",
"719 0 LINE",
"797 0 LINE",
"797 40 LINE",
"727 53 LINE",
"686 84 LINE",
"686 253 LINE",
"669 255 LINE",
"674 302 OFFCURVE",
"692 355 OFFCURVE",
"705 402 CURVE SMOOTH",
"719 454 OFFCURVE",
"739 525 OFFCURVE",
"739 548 CURVE SMOOTH",
"739 573 OFFCURVE",
"739 606 OFFCURVE",
"696 622 CURVE SMOOTH",
"656 637 LINE",
"656 670 LINE",
"686 714 OFFCURVE",
"706 743 OFFCURVE",
"706 776 CURVE SMOOTH",
"706 819 OFFCURVE",
"672 847 OFFCURVE",
"635 859 CURVE",
"689 866 OFFCURVE",
"730 893 OFFCURVE",
"730 925 CURVE SMOOTH",
"730 962 OFFCURVE",
"673 993 OFFCURVE",
"605 993 CURVE SMOOTH",
"556 993 OFFCURVE",
"512 982 OFFCURVE",
"492 953 CURVE",
"486 966 OFFCURVE",
"480 978 OFFCURVE",
"477 984 CURVE",
"461 976 LINE",
"468 963 OFFCURVE",
"474 952 OFFCURVE",
"479 938 CURVE",
"461 932 OFFCURVE",
"442 920 OFFCURVE",
"426 922 CURVE SMOOTH",
"417 923 OFFCURVE",
"333 959 OFFCURVE",
"319 953 CURVE SMOOTH",
"307 948 OFFCURVE",
"305 905 OFFCURVE",
"291 893 CURVE SMOOTH",
"283 886 OFFCURVE",
"228 895 OFFCURVE",
"223 887 CURVE SMOOTH",
"215 874 OFFCURVE",
"229 833 OFFCURVE",
"221 813 CURVE SMOOTH",
"217 803 OFFCURVE",
"142 792 OFFCURVE",
"134 777 CURVE SMOOTH",
"123 757 OFFCURVE",
"146 731 OFFCURVE",
"146 715 CURVE SMOOTH",
"146 703 OFFCURVE",
"90 666 OFFCURVE",
"90 644 CURVE SMOOTH",
"90 624 OFFCURVE",
"120 594 OFFCURVE",
"120 576 CURVE SMOOTH",
"120 563 OFFCURVE",
"64 532 OFFCURVE",
"63 510 CURVE SMOOTH",
"62 479 OFFCURVE",
"100 444 OFFCURVE",
"99 428 CURVE SMOOTH",
"98 412 OFFCURVE",
"52 378 OFFCURVE",
"52 354 CURVE SMOOTH",
"52 336 OFFCURVE",
"85 299 OFFCURVE",
"85 281 CURVE SMOOTH",
"85 265 OFFCURVE",
"55 253 OFFCURVE",
"56 235 CURVE SMOOTH",
"57 210 OFFCURVE",
"87 186 OFFCURVE",
"87 167 CURVE SMOOTH",
"87 153 OFFCURVE",
"49 121 OFFCURVE",
"49 100 CURVE SMOOTH",
"49 72 OFFCURVE",
"73 52 OFFCURVE",
"77 35 CURVE",
"77 0 LINE"
);
},
{
closed = 1;
nodes = (
"217 29 LINE",
"277 37 LINE",
"287 44 LINE",
"290 37 OFFCURVE",
"293 30 OFFCURVE",
"298 24 CURVE",
"273 16 LINE",
"217 16 LINE"
);
},
{
closed = 1;
nodes = (
"309 284 LINE SMOOTH",
"306 294 OFFCURVE",
"303 305 OFFCURVE",
"303 314 CURVE SMOOTH",
"303 342 OFFCURVE",
"317 360 OFFCURVE",
"339 360 CURVE SMOOTH",
"347 360 OFFCURVE",
"354 359 OFFCURVE",
"361 354 CURVE",
"337 299 LINE",
"388 161 LINE",
"352 142 LINE"
);
},
{
closed = 1;
nodes = (
"614 49 LINE",
"442 26 LINE SMOOTH",
"420 23 OFFCURVE",
"378 18 OFFCURVE",
"359 18 CURVE SMOOTH",
"335 18 OFFCURVE",
"298 27 OFFCURVE",
"298 72 CURVE SMOOTH",
"298 87 OFFCURVE",
"306 101 OFFCURVE",
"321 110 CURVE",
"363 56 LINE",
"668 74 LINE",
"716 37 LINE",
"777 29 LINE",
"777 16 LINE",
"721 16 LINE"
);
},
{
closed = 1;
nodes = (
"336 117 LINE",
"520 208 LINE",
"660 240 LINE",
"667 240 LINE",
"667 88 LINE",
"371 70 LINE"
);
},
{
closed = 1;
nodes = (
"355 298 LINE",
"376 344 LINE",
"501 218 LINE",
"403 168 LINE"
);
},
{
closed = 1;
nodes = (
"193 622 LINE",
"196 626 LINE",
"235 607 LINE",
"240 612 LINE",
"228 649 LINE",
"189 677 LINE",
"192 683 LINE",
"236 658 LINE",
"255 629 LINE",
"270 583 LINE",
"378 478 LINE",
"416 518 LINE",
"454 479 LINE",
"398 427 LINE",
"382 427 LINE"
);
},
{
closed = 1;
nodes = (
"540 287 LINE",
"526 404 LINE",
"534 396 LINE",
"559 396 LINE",
"670 494 LINE",
"667 513 LINE",
"552 414 LINE",
"538 414 LINE",
"348 608 LINE",
"351 612 LINE",
"389 594 LINE",
"395 598 LINE",
"382 635 LINE",
"344 663 LINE",
"347 669 LINE",
"391 644 LINE",
"409 615 LINE",
"424 568 LINE",
"531 463 LINE",
"595 521 LINE SMOOTH",
"614 539 OFFCURVE",
"640 568 OFFCURVE",
"661 574 CURVE",
"662 592 LINE",
"626 582 OFFCURVE",
"608 556 OFFCURVE",
"583 533 CURVE SMOOTH",
"530 484 LINE",
"515 499 LINE",
"511 532 LINE",
"496 518 LINE",
"455 559 LINE",
"473 579 OFFCURVE",
"496 603 OFFCURVE",
"513 607 CURVE SMOOTH",
"576 622 LINE",
"563 677 LINE",
"526 665 LINE",
"508 713 LINE",
"492 714 LINE",
"526 795 LINE",
"597 752 LINE",
"602 759 OFFCURVE",
"605 763 OFFCURVE",
"614 763 CURVE SMOOTH",
"623 763 OFFCURVE",
"623 753 OFFCURVE",
"623 750 CURVE SMOOTH",
"623 746 OFFCURVE",
"617 736 OFFCURVE",
"614 731 CURVE SMOOTH",
"596 703 LINE",
"636 667 LINE",
"636 625 LINE",
"687 605 LINE SMOOTH",
"715 594 OFFCURVE",
"716 568 OFFCURVE",
"716 547 CURVE SMOOTH",
"716 533 OFFCURVE",
"705 486 OFFCURVE",
"686 408 CURVE SMOOTH",
"673 355 OFFCURVE",
"656 310 OFFCURVE",
"650 254 CURVE",
"526 225 LINE"
);
},
{
closed = 1;
nodes = (
"551 744 OFFCURVE",
"558 745 OFFCURVE",
"565 746 CURVE",
"558 759 OFFCURVE",
"551 763 OFFCURVE",
"539 763 CURVE SMOOTH",
"537 763 OFFCURVE",
"523 762 OFFCURVE",
"518 755 CURVE",
"525 749 OFFCURVE",
"534 744 OFFCURVE",
"546 744 CURVE SMOOTH"
);
},
{
closed = 1;
nodes = (
"613 708 LINE",
"625 724 LINE SMOOTH",
"630 731 OFFCURVE",
"638 745 OFFCURVE",
"638 752 CURVE SMOOTH",
"638 765 OFFCURVE",
"629 779 OFFCURVE",
"615 779 CURVE SMOOTH",
"607 779 OFFCURVE",
"601 775 OFFCURVE",
"595 770 CURVE",
"530 810 LINE",
"539 837 OFFCURVE",
"562 848 OFFCURVE",
"589 848 CURVE SMOOTH",
"625 848 OFFCURVE",
"686 826 OFFCURVE",
"686 780 CURVE SMOOTH",
"686 746 OFFCURVE",
"664 714 OFFCURVE",
"642 682 CURVE"
);
},
{
closed = 1;
nodes = (
"556 877 OFFCURVE",
"513 894 OFFCURVE",
"504 917 CURVE",
"493 917 LINE",
"493 932 LINE",
"504 932 LINE",
"511 955 OFFCURVE",
"554 973 OFFCURVE",
"605 973 CURVE SMOOTH",
"662 973 OFFCURVE",
"708 951 OFFCURVE",
"708 925 CURVE SMOOTH",
"708 898 OFFCURVE",
"662 877 OFFCURVE",
"605 877 CURVE SMOOTH"
);
}
);
width = 846;
}
);
unicode = 13006;
},
{
glyphname = u13007;
lastChange = "2017-01-25 19:58:54 +0000";
layers = (
{
layerId = UUID0;
paths = (
{
closed = 1;
nodes = (
"96 0 LINE",
"96 38 LINE",
"96 46 OFFCURVE",
"69 85 OFFCURVE",
"69 97 CURVE SMOOTH",
"69 121 OFFCURVE",
"106 139 OFFCURVE",
"106 165 CURVE SMOOTH",
"106 190 OFFCURVE",
"78 215 OFFCURVE",
"76 232 CURVE SMOOTH",
"74 246 OFFCURVE",
"104 261 OFFCURVE",
"104 278 CURVE SMOOTH",
"104 308 OFFCURVE",
"74 334 OFFCURVE",
"72 353 CURVE SMOOTH",
"70 375 OFFCURVE",
"115 403 OFFCURVE",
"119 427 CURVE SMOOTH",
"122 443 OFFCURVE",
"85 487 OFFCURVE",
"83 507 CURVE SMOOTH",
"82 520 OFFCURVE",
"138 551 OFFCURVE",
"139 572 CURVE SMOOTH",
"140 593 OFFCURVE",
"111 622 OFFCURVE",
"109 641 CURVE SMOOTH",
"107 658 OFFCURVE",
"163 692 OFFCURVE",
"168 709 CURVE SMOOTH",
"173 725 OFFCURVE",
"150 747 OFFCURVE",
"157 765 CURVE SMOOTH",
"163 781 OFFCURVE",
"233 789 OFFCURVE",
"241 800 CURVE SMOOTH",
"250 812 OFFCURVE",
"236 860 OFFCURVE",
"244 870 CURVE SMOOTH",
"250 877 OFFCURVE",
"291 864 OFFCURVE",
"304 875 CURVE SMOOTH",
"316 885 OFFCURVE",
"320 917 OFFCURVE",
"330 929 CURVE SMOOTH",
"336 937 OFFCURVE",
"409 902 OFFCURVE",
"424 903 CURVE SMOOTH",
"440 904 OFFCURVE",
"475 917 OFFCURVE",
"481 919 CURVE",
"478 905 OFFCURVE",
"467 886 OFFCURVE",
"461 874 CURVE",
"477 865 LINE",
"480 870 OFFCURVE",
"486 883 OFFCURVE",
"492 897 CURVE",
"512 874 OFFCURVE",
"556 857 OFFCURVE",
"605 857 CURVE SMOOTH",
"673 857 OFFCURVE",
"730 888 OFFCURVE",
"730 925 CURVE SMOOTH",
"730 962 OFFCURVE",
"673 993 OFFCURVE",
"605 993 CURVE SMOOTH",
"556 993 OFFCURVE",
"512 976 OFFCURVE",
"492 953 CURVE",
"486 967 OFFCURVE",
"478 981 OFFCURVE",
"477 984 CURVE",
"461 976 LINE",
"465 969 OFFCURVE",
"474 953 OFFCURVE",
"479 938 CURVE",
"461 932 OFFCURVE",
"442 920 OFFCURVE",
"426 922 CURVE SMOOTH",
"417 923 OFFCURVE",
"333 959 OFFCURVE",
"319 953 CURVE SMOOTH",
"307 948 OFFCURVE",
"305 905 OFFCURVE",
"291 893 CURVE SMOOTH",
"283 886 OFFCURVE",
"228 895 OFFCURVE",
"223 887 CURVE SMOOTH",
"214 873 OFFCURVE",
"228 833 OFFCURVE",
"221 813 CURVE SMOOTH",
"217 803 OFFCURVE",
"141 792 OFFCURVE",
"134 777 CURVE SMOOTH",
"125 757 OFFCURVE",
"146 731 OFFCURVE",
"146 715 CURVE SMOOTH",
"146 703 OFFCURVE",
"90 666 OFFCURVE",
"90 644 CURVE SMOOTH",
"90 624 OFFCURVE",
"120 594 OFFCURVE",
"120 576 CURVE SMOOTH",
"120 563 OFFCURVE",
"64 532 OFFCURVE",
"63 510 CURVE SMOOTH",
"62 479 OFFCURVE",
"100 444 OFFCURVE",
"99 428 CURVE SMOOTH",
"98 412 OFFCURVE",
"52 378 OFFCURVE",
"52 354 CURVE SMOOTH",
"52 336 OFFCURVE",
"85 299 OFFCURVE",
"85 281 CURVE SMOOTH",
"85 265 OFFCURVE",
"55 253 OFFCURVE",
"56 235 CURVE SMOOTH",
"57 210 OFFCURVE",
"87 186 OFFCURVE",
"87 167 CURVE SMOOTH",
"87 153 OFFCURVE",
"49 121 OFFCURVE",
"49 100 CURVE SMOOTH",
"49 72 OFFCURVE",
"73 52 OFFCURVE",
"77 35 CURVE",
"77 0 LINE"
);
},
{
closed = 1;
nodes = (
"473 0 LINE",
"473 106 LINE",
"123 106 LINE",
"123 0 LINE"
);
},
{
closed = 1;
nodes = (
"143 87 LINE",
"453 87 LINE",
"453 20 LINE",
"143 20 LINE"
);
},
{
closed = 1;
nodes = (
"903 41 LINE",
"928 54 LINE SMOOTH",
"938 59 OFFCURVE",
"941 75 OFFCURVE",
"933 92 CURVE SMOOTH",
"907 146 LINE",
"690 60 LINE SMOOTH",
"644 42 OFFCURVE",
"594 29 OFFCURVE",
"573 29 CURVE SMOOTH",
"537 29 OFFCURVE",
"503 51 OFFCURVE",
"503 87 CURVE SMOOTH",
"503 104 OFFCURVE",
"514 122 OFFCURVE",
"532 132 CURVE",
"577 73 LINE",
"696 138 OFFCURVE",
"826 168 OFFCURVE",
"958 170 CURVE",
"975 96 LINE SMOOTH",
"979 80 OFFCURVE",
"976 61 OFFCURVE",
"964 51 CURVE SMOOTH",
"953 42 OFFCURVE",
"916 29 OFFCURVE",
"909 26 CURVE"
);
},
{
closed = 1;
nodes = (
"547 145 LINE",
"753 289 LINE",
"913 324 LINE",
"920 324 LINE",
"920 188 LINE",
"804 180 OFFCURVE",
"681 150 OFFCURVE",
"582 96 CURVE"
);
},
{
closed = 1;
nodes = (
"338 191 LINE",
"371 220 LINE",
"367 226 LINE",
"326 225 LINE",
"287 193 LINE",
"281 200 LINE",
"325 241 LINE",
"368 241 LINE",
"416 256 LINE",
"548 318 LINE",
"581 400 OFFCURVE",
"633 514 OFFCURVE",
"656 527 CURVE",
"656 553 LINE",
"627 539 OFFCURVE",
"609 495 OFFCURVE",
"595 469 CURVE",
"579 475 OFFCURVE",
"561 480 OFFCURVE",
"542 485 CURVE SMOOTH",
"535 487 LINE",
"494 364 LINE",
"480 353 LINE",
"339 304 LINE",
"271 247 LINE",
"266 252 LINE",
"302 284 LINE",
"298 290 LINE",
"257 288 LINE",
"218 257 LINE",
"212 263 LINE",
"256 304 LINE",
"297 307 LINE",
"339 328 LINE",
"458 382 LINE",
"496 510 LINE",
"500 524 OFFCURVE",
"506 550 OFFCURVE",
"527 560 CURVE SMOOTH",
"566 579 LINE",
"539 645 LINE",
"503 625 LINE",
"476 671 LINE",
"459 668 LINE",
"478 743 LINE",
"559 727 LINE",
"562 735 OFFCURVE",
"566 741 OFFCURVE",
"576 741 CURVE SMOOTH",
"584 741 OFFCURVE",
"585 730 OFFCURVE",
"585 728 CURVE SMOOTH",
"585 723 OFFCURVE",
"583 714 OFFCURVE",
"581 708 CURVE SMOOTH",
"568 675 LINE",
"613 655 LINE",
"627 599 LINE",
"682 594 LINE SMOOTH",
"745 588 OFFCURVE",
"845 435 OFFCURVE",
"903 342 CURVE",
"771 313 LINE",
"745 374 OFFCURVE",
"715 406 OFFCURVE",
"672 433 CURVE",
"686 460 LINE",
"669 468 LINE",
"588 299 LINE",
"577 289 LINE",
"411 236 LINE",
"342 185 LINE"
);
},
{
closed = 1;
nodes = (
"593 10 OFFCURVE",
"636 18 OFFCURVE",
"690 39 CURVE SMOOTH",
"900 122 LINE",
"916 88 LINE SMOOTH",
"921 78 OFFCURVE",
"925 71 OFFCURVE",
"914 63 CURVE",
"884 48 LINE",
"898 10 LINE",
"917 10 OFFCURVE",
"958 27 OFFCURVE",
"973 37 CURVE SMOOTH",
"988 47 OFFCURVE",
"999 70 OFFCURVE",
"992 96 CURVE",
"972 188 LINE",
"939 188 LINE",
"939 342 LINE",
"928 342 LINE",
"867 439 OFFCURVE",
"766 604 OFFCURVE",
"689 612 CURVE SMOOTH",
"643 617 LINE",
"633 655 LINE",
"648 678 OFFCURVE",
"671 721 OFFCURVE",
"671 749 CURVE SMOOTH",
"671 810 OFFCURVE",
"625 842 OFFCURVE",
"561 842 CURVE SMOOTH",
"512 842 OFFCURVE",
"465 806 OFFCURVE",
"462 756 CURVE",
"462 745 LINE",
"441 652 LINE",
"468 656 LINE",
"500 604 LINE",
"531 623 LINE",
"544 588 LINE",
"513 573 LINE SMOOTH",
"494 564 OFFCURVE",
"484 540 OFFCURVE",
"479 521 CURVE SMOOTH",
"444 398 LINE",
"332 341 LINE",
"296 321 LINE",
"250 317 LINE",
"195 263 LINE",
"212 241 LINE",
"261 278 LINE",
"282 278 LINE",
"253 252 LINE",
"268 230 LINE",
"345 292 LINE",
"489 338 LINE",
"512 355 LINE",
"547 464 LINE",
"561 460 OFFCURVE",
"575 456 OFFCURVE",
"587 452 CURVE",
"534 330 LINE",
"409 269 LINE",
"367 256 LINE",
"319 253 LINE",
"264 199 LINE",
"281 178 LINE",
"330 214 LINE",
"351 215 LINE",
"322 189 LINE",
"336 167 LINE",
"417 223 LINE",
"585 274 LINE",
"603 288 LINE",
"664 415 LINE",
"702 391 OFFCURVE",
"728 361 OFFCURVE",
"751 308 CURVE",
"748 308 LINE",
"542 166 LINE",
"499 138 OFFCURVE",
"484 116 OFFCURVE",
"484 87 CURVE SMOOTH",
"484 39 OFFCURVE",
"524 10 OFFCURVE",
"571 10 CURVE SMOOTH"
);
},
{
closed = 1;
nodes = (
"506 708 OFFCURVE",
"516 710 OFFCURVE",
"528 714 CURVE",
"520 723 OFFCURVE",
"513 727 OFFCURVE",
"504 727 CURVE SMOOTH",
"502 727 OFFCURVE",
"500 727 OFFCURVE",
"497 727 CURVE SMOOTH",
"495 727 OFFCURVE",
"481 722 OFFCURVE",
"477 714 CURVE",
"484 710 OFFCURVE",
"491 708 OFFCURVE",
"500 708 CURVE SMOOTH"
);
},
{
closed = 1;
nodes = (
"587 684 LINE",
"594 704 LINE SMOOTH",
"597 711 OFFCURVE",
"602 724 OFFCURVE",
"602 731 CURVE SMOOTH",
"602 745 OFFCURVE",
"592 756 OFFCURVE",
"578 756 CURVE SMOOTH",
"563 756 OFFCURVE",
"558 750 OFFCURVE",
"554 744 CURVE",
"479 757 LINE",
"483 794 OFFCURVE",
"522 823 OFFCURVE",
"561 823 CURVE SMOOTH",
"608 823 OFFCURVE",
"650 799 OFFCURVE",
"650 749 CURVE SMOOTH",
"650 720 OFFCURVE",
"630 688 OFFCURVE",
"619 670 CURVE"
);
},
{
closed = 1;
nodes = (
"556 877 OFFCURVE",
"513 894 OFFCURVE",
"504 917 CURVE",
"493 917 LINE",
"493 932 LINE",
"504 932 LINE",
"511 955 OFFCURVE",
"554 973 OFFCURVE",
"605 973 CURVE SMOOTH",
"662 973 OFFCURVE",
"708 951 OFFCURVE",
"708 925 CURVE SMOOTH",
"708 898 OFFCURVE",
"662 877 OFFCURVE",
"605 877 CURVE SMOOTH"
);
}
);
width = 1043;
}
);
unicode = 13007;
},
{
glyphname = u13008;
lastChange = "2017-01-25 19:58:54 +0000";
layers = (
{
layerId = UUID0;
paths = (
{
closed = 1;
nodes = (
"228 50 LINE",
"247 57 LINE",
"228 23 LINE",
"249 7 LINE",
"308 86 LINE",
"467 291 LINE",
"482 315 LINE",
"547 469 LINE",
"561 465 OFFCURVE",
"563 464 OFFCURVE",
"576 460 CURVE",
"506 286 LINE",
"412 127 LINE",
"376 101 LINE",
"332 83 LINE",
"297 15 LINE",
"320 0 LINE",
"354 50 LINE",
"374 57 LINE",
"355 23 LINE",
"376 7 LINE",
"435 86 LINE",
"573 245 LINE",
"585 269 LINE",
"652 423 LINE",
"690 399 OFFCURVE",
"728 356 OFFCURVE",
"751 303 CURVE",
"748 303 LINE",
"539 154 LINE SMOOTH",
"492 121 OFFCURVE",
"484 102 OFFCURVE",
"484 78 CURVE SMOOTH",
"484 29 OFFCURVE",
"524 0 OFFCURVE",
"571 0 CURVE SMOOTH",
"593 0 OFFCURVE",
"636 8 OFFCURVE",
"690 29 CURVE SMOOTH",
"900 112 LINE",
"915 79 LINE SMOOTH",
"920 69 OFFCURVE",
"926 60 OFFCURVE",
"912 53 CURVE SMOOTH",
"884 39 LINE",
"898 0 LINE",
"917 0 OFFCURVE",
"958 17 OFFCURVE",
"973 27 CURVE SMOOTH",
"988 38 OFFCURVE",
"998 60 OFFCURVE",
"993 81 CURVE SMOOTH",
"972 179 LINE",
"939 179 LINE",
"939 337 LINE",
"928 337 LINE",
"867 435 OFFCURVE",
"767 609 OFFCURVE",
"689 617 CURVE SMOOTH",
"643 622 LINE",
"633 660 LINE",
"648 683 OFFCURVE",
"671 726 OFFCURVE",
"671 754 CURVE SMOOTH",
"671 814 OFFCURVE",
"625 847 OFFCURVE",
"561 847 CURVE SMOOTH",
"512 847 OFFCURVE",
"465 811 OFFCURVE",
"462 761 CURVE",
"462 750 LINE",
"441 657 LINE",
"468 661 LINE",
"500 608 LINE",
"531 628 LINE",
"544 593 LINE",
"513 578 LINE SMOOTH",
"493 568 OFFCURVE",
"486 544 OFFCURVE",
"479 525 CURVE SMOOTH",
"406 337 LINE",
"285 127 LINE",
"249 101 LINE",
"205 83 LINE",
"170 15 LINE",
"193 0 LINE"
);
},
{
closed = 1;
nodes = (
"903 31 LINE",
"928 44 LINE SMOOTH",
"939 50 OFFCURVE",
"940 68 OFFCURVE",
"932 84 CURVE SMOOTH",
"907 136 LINE",
"690 50 LINE SMOOTH",
"644 32 OFFCURVE",
"594 20 OFFCURVE",
"573 20 CURVE SMOOTH",
"537 20 OFFCURVE",
"503 42 OFFCURVE",
"503 77 CURVE SMOOTH",
"503 94 OFFCURVE",
"514 112 OFFCURVE",
"532 122 CURVE",
"577 63 LINE",
"696 128 OFFCURVE",
"826 159 OFFCURVE",
"958 160 CURVE",
"975 86 LINE SMOOTH",
"979 70 OFFCURVE",
"976 52 OFFCURVE",
"964 42 CURVE SMOOTH",
"955 35 OFFCURVE",
"927 23 OFFCURVE",
"909 16 CURVE"
);
},
{
closed = 1;
nodes = (
"96 0 LINE",
"96 38 LINE",
"96 46 OFFCURVE",
"70 83 OFFCURVE",
"69 98 CURVE SMOOTH",
"67 118 OFFCURVE",
"106 139 OFFCURVE",
"106 165 CURVE SMOOTH",
"106 190 OFFCURVE",
"78 215 OFFCURVE",
"76 232 CURVE SMOOTH",
"74 246 OFFCURVE",
"104 261 OFFCURVE",
"104 278 CURVE SMOOTH",
"104 308 OFFCURVE",
"74 334 OFFCURVE",
"72 353 CURVE SMOOTH",
"70 375 OFFCURVE",
"115 403 OFFCURVE",
"119 427 CURVE SMOOTH",
"122 443 OFFCURVE",
"85 486 OFFCURVE",
"83 507 CURVE SMOOTH",
"82 520 OFFCURVE",
"138 551 OFFCURVE",
"139 572 CURVE SMOOTH",
"140 593 OFFCURVE",
"111 622 OFFCURVE",
"109 641 CURVE SMOOTH",
"107 658 OFFCURVE",
"163 692 OFFCURVE",
"168 709 CURVE SMOOTH",
"173 725 OFFCURVE",
"150 747 OFFCURVE",
"157 765 CURVE SMOOTH",
"163 781 OFFCURVE",
"189 789 OFFCURVE",
"197 800 CURVE SMOOTH",
"205 811 OFFCURVE",
"192 860 OFFCURVE",
"200 870 CURVE SMOOTH",
"206 877 OFFCURVE",
"247 864 OFFCURVE",
"260 875 CURVE SMOOTH",
"272 886 OFFCURVE",
"276 916 OFFCURVE",
"286 929 CURVE SMOOTH",
"292 937 OFFCURVE",
"362 903 OFFCURVE",
"380 903 CURVE SMOOTH",
"396 903 OFFCURVE",
"431 917 OFFCURVE",
"437 919 CURVE",
"434 907 OFFCURVE",
"424 886 OFFCURVE",
"417 874 CURVE",
"433 865 LINE",
"436 871 OFFCURVE",
"443 885 OFFCURVE",
"448 897 CURVE",
"468 874 OFFCURVE",
"512 857 OFFCURVE",
"562 857 CURVE SMOOTH",
"629 857 OFFCURVE",
"686 888 OFFCURVE",
"686 925 CURVE SMOOTH",
"686 962 OFFCURVE",
"629 993 OFFCURVE",
"562 993 CURVE SMOOTH",
"512 993 OFFCURVE",
"468 976 OFFCURVE",
"448 953 CURVE",
"443 964 OFFCURVE",
"436 977 OFFCURVE",
"433 984 CURVE",
"417 976 LINE",
"422 967 OFFCURVE",
"431 950 OFFCURVE",
"435 938 CURVE",
"417 932 OFFCURVE",
"398 920 OFFCURVE",
"382 922 CURVE SMOOTH",
"373 923 OFFCURVE",
"290 959 OFFCURVE",
"275 953 CURVE SMOOTH",
"263 948 OFFCURVE",
"261 905 OFFCURVE",
"247 893 CURVE SMOOTH",
"239 886 OFFCURVE",
"184 895 OFFCURVE",
"179 887 CURVE SMOOTH",
"170 872 OFFCURVE",
"184 832 OFFCURVE",
"177 813 CURVE SMOOTH",
"173 803 OFFCURVE",
"142 792 OFFCURVE",
"134 777 CURVE SMOOTH",
"125 759 OFFCURVE",
"146 728 OFFCURVE",
"146 715 CURVE SMOOTH",
"146 703 OFFCURVE",
"90 666 OFFCURVE",
"90 644 CURVE SMOOTH",
"90 624 OFFCURVE",
"120 594 OFFCURVE",
"120 576 CURVE SMOOTH",
"120 563 OFFCURVE",
"64 532 OFFCURVE",
"63 510 CURVE SMOOTH",
"62 479 OFFCURVE",
"100 444 OFFCURVE",
"99 428 CURVE SMOOTH",
"98 412 OFFCURVE",
"52 378 OFFCURVE",
"52 354 CURVE SMOOTH",
"52 336 OFFCURVE",
"85 299 OFFCURVE",
"85 281 CURVE SMOOTH",
"85 265 OFFCURVE",
"56 254 OFFCURVE",
"56 235 CURVE SMOOTH",
"56 213 OFFCURVE",
"87 186 OFFCURVE",
"87 167 CURVE SMOOTH",
"87 153 OFFCURVE",
"49 121 OFFCURVE",
"49 100 CURVE SMOOTH",
"49 72 OFFCURVE",
"73 52 OFFCURVE",
"77 35 CURVE",
"77 0 LINE"
);
},
{
closed = 1;
nodes = (
"186 21 LINE",
"214 73 LINE",
"255 88 LINE",
"296 117 LINE",
"423 330 LINE",
"496 515 LINE",
"499 531 OFFCURVE",
"509 555 OFFCURVE",
"525 563 CURVE SMOOTH",
"566 584 LINE",
"539 650 LINE",
"503 630 LINE",
"476 676 LINE",
"459 673 LINE",
"478 748 LINE",
"559 731 LINE",
"562 740 OFFCURVE",
"566 746 OFFCURVE",
"576 746 CURVE SMOOTH",
"585 746 OFFCURVE",
"585 734 OFFCURVE",
"585 732 CURVE SMOOTH",
"585 728 OFFCURVE",
"583 719 OFFCURVE",
"581 713 CURVE SMOOTH",
"568 680 LINE",
"613 660 LINE",
"627 604 LINE",
"682 599 LINE SMOOTH",
"746 593 OFFCURVE",
"845 430 OFFCURVE",
"903 337 CURVE",
"771 308 LINE",
"745 369 OFFCURVE",
"704 415 OFFCURVE",
"661 441 CURVE",
"675 469 LINE",
"658 477 LINE",
"568 274 LINE",
"561 262 LINE",
"424 97 LINE",
"376 26 LINE",
"370 31 LINE",
"392 69 LINE",
"386 73 LINE",
"348 59 LINE",
"320 16 LINE",
"313 21 LINE",
"341 73 LINE",
"382 88 LINE",
"423 117 LINE",
"524 279 LINE",
"562 381 OFFCURVE",
"622 522 OFFCURVE",
"645 536 CURVE",
"645 562 LINE",
"616 547 OFFCURVE",
"598 503 OFFCURVE",
"584 478 CURVE",
"567 483 OFFCURVE",
"561 485 OFFCURVE",
"535 492 CURVE",
"471 327 LINE",
"456 302 LINE",
"297 97 LINE",
"249 26 LINE",
"243 31 LINE",
"265 69 LINE",
"259 73 LINE",
"221 59 LINE",
"193 16 LINE"
);
},
{
closed = 1;
nodes = (
"547 135 LINE",
"753 284 LINE",
"913 319 LINE",
"920 319 LINE",
"920 178 LINE",
"804 170 OFFCURVE",
"681 141 OFFCURVE",
"582 86 CURVE"
);
},
{
closed = 1;
nodes = (
"506 712 OFFCURVE",
"516 715 OFFCURVE",
"528 719 CURVE",
"520 728 OFFCURVE",
"513 732 OFFCURVE",
"504 732 CURVE SMOOTH",
"502 732 OFFCURVE",
"500 732 OFFCURVE",
"497 731 CURVE SMOOTH",
"495 731 OFFCURVE",
"481 727 OFFCURVE",
"477 719 CURVE",
"484 715 OFFCURVE",
"491 712 OFFCURVE",
"500 712 CURVE SMOOTH"
);
},
{
closed = 1;
nodes = (
"587 689 LINE",
"594 708 LINE SMOOTH",
"597 716 OFFCURVE",
"602 729 OFFCURVE",
"602 736 CURVE SMOOTH",
"602 750 OFFCURVE",
"592 761 OFFCURVE",
"578 761 CURVE SMOOTH",
"563 761 OFFCURVE",
"558 755 OFFCURVE",
"554 749 CURVE",
"479 762 LINE",
"483 799 OFFCURVE",
"522 828 OFFCURVE",
"561 828 CURVE SMOOTH",
"608 828 OFFCURVE",
"650 804 OFFCURVE",
"650 753 CURVE SMOOTH",
"650 725 OFFCURVE",
"630 693 OFFCURVE",
"619 675 CURVE"
);
},
{
closed = 1;
nodes = (
"512 877 OFFCURVE",
"469 894 OFFCURVE",
"460 917 CURVE",
"449 917 LINE",
"449 932 LINE",
"460 932 LINE",
"467 955 OFFCURVE",
"510 973 OFFCURVE",
"562 973 CURVE SMOOTH",
"618 973 OFFCURVE",
"665 951 OFFCURVE",
"665 925 CURVE SMOOTH",
"665 898 OFFCURVE",
"618 877 OFFCURVE",
"562 877 CURVE SMOOTH"
);
}
);
width = 1043;
}
);
unicode = 13008;
},
{
glyphname = u13009;
lastChange = "2017-01-25 19:58:54 +0000";
layers = (
{
layerId = UUID0;
paths = (
{
closed = 1;
nodes = (
"240 0 LINE",
"249 66 LINE",
"252 70 OFFCURVE",
"257 78 OFFCURVE",
"262 86 CURVE",
"261 83 OFFCURVE",
"261 81 OFFCURVE",
"261 78 CURVE SMOOTH",
"261 29 OFFCURVE",
"301 0 OFFCURVE",
"348 0 CURVE SMOOTH",
"370 0 OFFCURVE",
"413 8 OFFCURVE",
"467 29 CURVE SMOOTH",
"677 112 LINE",
"693 78 LINE SMOOTH",
"699 65 OFFCURVE",
"700 59 OFFCURVE",
"688 53 CURVE SMOOTH",
"661 39 LINE",
"675 0 LINE",
"693 0 OFFCURVE",
"735 17 OFFCURVE",
"750 27 CURVE SMOOTH",
"765 37 OFFCURVE",
"775 60 OFFCURVE",
"769 86 CURVE",
"749 179 LINE",
"716 179 LINE",
"716 337 LINE",
"721 446 LINE",
"761 604 LINE",
"820 437 LINE",
"949 271 LINE",
"1003 184 LINE",
"1039 203 LINE",
"1021 237 LINE",
"1041 229 LINE",
"1072 177 LINE",
"1098 192 LINE",
"1065 267 LINE",
"1020 285 LINE",
"985 313 LINE",
"899 477 LINE",
"841 662 LINE SMOOTH",
"835 681 OFFCURVE",
"832 711 OFFCURVE",
"795 720 CURVE SMOOTH",
"693 745 LINE",
"693 783 LINE",
"729 832 OFFCURVE",
"752 865 OFFCURVE",
"752 902 CURVE SMOOTH",
"752 963 OFFCURVE",
"689 1001 OFFCURVE",
"617 1001 CURVE SMOOTH",
"565 1001 OFFCURVE",
"539 980 OFFCURVE",
"529 942 CURVE",
"527 929 LINE",
"478 819 LINE",
"509 817 LINE",
"533 754 LINE",
"573 769 LINE",
"580 743 LINE",
"525 730 LINE SMOOTH",
"482 720 OFFCURVE",
"449 708 OFFCURVE",
"431 685 CURVE",
"312 509 LINE",
"169 392 LINE",
"69 358 LINE",
"79 330 LINE",
"121 340 LINE",
"108 322 LINE",
"51 304 LINE",
"60 271 LINE",
"139 287 LINE",
"168 326 LINE",
"257 383 LINE",
"253 373 OFFCURVE",
"249 361 OFFCURVE",
"245 347 CURVE SMOOTH",
"237 321 OFFCURVE",
"207 188 OFFCURVE",
"187 96 CURVE",
"167 68 LINE",
"130 57 LINE",
"49 45 LINE",
"49 0 LINE"
);
},
{
closed = 1;
nodes = (
"68 33 LINE",
"136 42 LINE",
"178 54 LINE",
"204 88 LINE",
"225 181 OFFCURVE",
"255 314 OFFCURVE",
"262 337 CURVE SMOOTH",
"269 363 OFFCURVE",
"276 382 OFFCURVE",
"288 394 CURVE SMOOTH",
"293 399 OFFCURVE",
"318 409 OFFCURVE",
"328 409 CURVE SMOOTH",
"401 409 OFFCURVE",
"474 342 OFFCURVE",
"515 293 CURVE",
"425 230 LINE",
"410 254 OFFCURVE",
"361 328 OFFCURVE",
"331 336 CURVE",
"320 331 LINE",
"318 296 OFFCURVE",
"311 246 OFFCURVE",
"296 206 CURVE SMOOTH",
"284 173 OFFCURVE",
"253 100 OFFCURVE",
"230 66 CURVE",
"228 52 OFFCURVE",
"225 29 OFFCURVE",
"224 19 CURVE",
"68 19 LINE"
);
},
{
closed = 1;
nodes = (
"296 156 OFFCURVE",
"309 186 OFFCURVE",
"314 199 CURVE SMOOTH",
"325 228 OFFCURVE",
"335 273 OFFCURVE",
"336 309 CURVE",
"360 295 OFFCURVE",
"396 241 OFFCURVE",
"410 220 CURVE",
"319 156 LINE SMOOTH",
"303 145 OFFCURVE",
"291 136 OFFCURVE",
"282 127 CURVE"
);
},
{
closed = 1;
nodes = (
"680 31 LINE",
"705 44 LINE SMOOTH",
"714 49 OFFCURVE",
"717 65 OFFCURVE",
"709 82 CURVE SMOOTH",
"684 136 LINE",
"467 50 LINE SMOOTH",
"420 31 OFFCURVE",
"371 20 OFFCURVE",
"350 20 CURVE SMOOTH",
"313 20 OFFCURVE",
"280 42 OFFCURVE",
"280 77 CURVE SMOOTH",
"280 94 OFFCURVE",
"291 112 OFFCURVE",
"309 122 CURVE",
"354 63 LINE",
"473 128 OFFCURVE",
"603 159 OFFCURVE",
"734 160 CURVE",
"752 86 LINE SMOOTH",
"756 70 OFFCURVE",
"752 51 OFFCURVE",
"741 42 CURVE SMOOTH",
"732 35 OFFCURVE",
"704 23 OFFCURVE",
"686 16 CURVE"
);
},
{
closed = 1;
nodes = (
"324 135 LINE",
"540 287 LINE",
"697 322 LINE",
"697 178 LINE",
"581 170 OFFCURVE",
"458 141 OFFCURVE",
"358 86 CURVE"
);
},
{
closed = 1;
nodes = (
"491 358 OFFCURVE",
"403 428 OFFCURVE",
"329 428 CURVE",
"363 450 LINE",
"483 600 LINE",
"535 378 LINE",
"530 306 LINE"
);
},
{
closed = 1;
nodes = (
"960 281 LINE",
"832 453 LINE",
"772 621 LINE",
"749 622 LINE",
"704 451 LINE",
"699 341 LINE",
"547 309 LINE",
"554 379 LINE",
"495 630 LINE",
"488 630 LINE",
"357 469 LINE",
"157 338 LINE",
"132 301 LINE",
"74 289 LINE",
"71 296 LINE",
"120 311 LINE",
"143 346 LINE",
"139 356 LINE",
"91 345 LINE",
"89 352 LINE",
"174 378 LINE",
"327 497 LINE",
"444 673 LINE",
"458 692 OFFCURVE",
"499 708 OFFCURVE",
"524 713 CURVE SMOOTH",
"601 729 LINE",
"586 791 LINE",
"541 776 LINE",
"521 831 LINE",
"501 832 LINE",
"542 923 LINE",
"627 875 LINE",
"633 883 OFFCURVE",
"638 887 OFFCURVE",
"647 887 CURVE SMOOTH",
"658 887 OFFCURVE",
"659 877 OFFCURVE",
"659 873 CURVE SMOOTH",
"659 868 OFFCURVE",
"652 857 OFFCURVE",
"648 851 CURVE SMOOTH",
"625 820 LINE",
"674 779 LINE",
"674 732 LINE",
"793 703 LINE SMOOTH",
"812 698 OFFCURVE",
"819 673 OFFCURVE",
"825 655 CURVE SMOOTH",
"881 471 LINE",
"974 304 LINE",
"1013 272 LINE",
"1055 257 LINE",
"1080 203 LINE",
"1073 199 LINE",
"1047 243 LINE",
"1008 258 LINE",
"1001 251 LINE",
"1023 208 LINE",
"1008 199 LINE"
);
},
{
closed = 1;
nodes = (
"573 866 OFFCURVE",
"580 867 OFFCURVE",
"589 868 CURVE",
"581 882 OFFCURVE",
"573 888 OFFCURVE",
"558 888 CURVE SMOOTH",
"554 888 OFFCURVE",
"538 886 OFFCURVE",
"531 878 CURVE",
"541 871 OFFCURVE",
"551 866 OFFCURVE",
"566 866 CURVE SMOOTH"
);
},
{
closed = 1;
nodes = (
"647 825 LINE",
"661 843 LINE",
"667 851 OFFCURVE",
"676 866 OFFCURVE",
"676 875 CURVE SMOOTH",
"676 890 OFFCURVE",
"666 905 OFFCURVE",
"649 905 CURVE SMOOTH",
"640 905 OFFCURVE",
"632 900 OFFCURVE",
"625 895 CURVE",
"547 939 LINE",
"557 970 OFFCURVE",
"585 982 OFFCURVE",
"618 982 CURVE SMOOTH",
"661 982 OFFCURVE",
"734 958 OFFCURVE",
"734 906 CURVE SMOOTH",
"734 868 OFFCURVE",
"708 832 OFFCURVE",
"681 795 CURVE"
);
}
);
width = 1146;
}
);
unicode = 13009;
},
{
glyphname = u1300A;
lastChange = "2017-01-25 19:58:54 +0000";
layers = (
{
layerId = UUID0;
paths = (
{
closed = 1;
nodes = (
"240 0 LINE",
"249 66 LINE",
"252 70 OFFCURVE",
"257 78 OFFCURVE",
"262 86 CURVE",
"261 83 OFFCURVE",
"261 81 OFFCURVE",
"261 78 CURVE SMOOTH",
"261 29 OFFCURVE",
"301 0 OFFCURVE",
"348 0 CURVE SMOOTH",
"370 0 OFFCURVE",
"413 8 OFFCURVE",
"467 29 CURVE SMOOTH",
"677 112 LINE",
"693 78 LINE SMOOTH",
"698 68 OFFCURVE",
"702 60 OFFCURVE",
"690 54 CURVE SMOOTH",
"661 39 LINE",
"675 0 LINE",
"693 0 OFFCURVE",
"735 17 OFFCURVE",
"750 27 CURVE SMOOTH",
"765 37 OFFCURVE",
"775 60 OFFCURVE",
"769 86 CURVE",
"749 179 LINE",
"716 179 LINE",
"716 337 LINE",
"721 446 LINE",
"763 632 LINE",
"887 612 OFFCURVE",
"956 606 OFFCURVE",
"1015 614 CURVE",
"1030 624 LINE",
"1008 727 OFFCURVE",
"996 829 OFFCURVE",
"990 912 CURVE",
"1004 958 LINE",
"969 1031 LINE",
"937 1019 LINE",
"957 962 LINE",
"950 941 LINE",
"933 981 LINE",
"905 972 LINE",
"938 872 LINE",
"935 842 OFFCURVE",
"931 799 OFFCURVE",
"930 789 CURVE SMOOTH",
"928 756 OFFCURVE",
"932 724 OFFCURVE",
"937 694 CURVE",
"914 698 OFFCURVE",
"814 728 OFFCURVE",
"759 739 CURVE SMOOTH",
"734 744 OFFCURVE",
"715 746 OFFCURVE",
"693 745 CURVE",
"693 783 LINE",
"729 832 OFFCURVE",
"752 865 OFFCURVE",
"752 902 CURVE SMOOTH",
"752 963 OFFCURVE",
"689 1001 OFFCURVE",
"617 1001 CURVE SMOOTH",
"565 1001 OFFCURVE",
"539 980 OFFCURVE",
"529 942 CURVE",
"527 929 LINE",
"478 819 LINE",
"509 817 LINE",
"533 754 LINE",
"573 769 LINE",
"580 743 LINE",
"525 730 LINE SMOOTH",
"482 720 OFFCURVE",
"444 708 OFFCURVE",
"425 685 CURVE SMOOTH",
"386 637 OFFCURVE",
"319 519 OFFCURVE",
"313 446 CURVE",
"336 434 LINE",
"392 431 OFFCURVE",
"457 437 OFFCURVE",
"515 465 CURVE",
"535 378 LINE",
"530 306 LINE",
"491 357 OFFCURVE",
"405 412 OFFCURVE",
"330 412 CURVE SMOOTH",
"318 412 OFFCURVE",
"288 404 OFFCURVE",
"279 396 CURVE SMOOTH",
"265 383 OFFCURVE",
"256 362 OFFCURVE",
"247 331 CURVE SMOOTH",
"239 304 OFFCURVE",
"208 181 OFFCURVE",
"187 96 CURVE",
"167 68 LINE",
"130 57 LINE",
"49 45 LINE",
"49 0 LINE"
);
},
{
closed = 1;
nodes = (
"68 33 LINE",
"136 42 LINE",
"178 54 LINE",
"204 88 LINE",
"226 174 OFFCURVE",
"257 298 OFFCURVE",
"264 321 CURVE SMOOTH",
"271 347 OFFCURVE",
"278 365 OFFCURVE",
"290 377 CURVE SMOOTH",
"296 383 OFFCURVE",
"321 393 OFFCURVE",
"330 393 CURVE SMOOTH",
"403 393 OFFCURVE",
"474 340 OFFCURVE",
"515 293 CURVE",
"425 230 LINE",
"410 251 OFFCURVE",
"364 312 OFFCURVE",
"333 320 CURVE",
"322 315 LINE",
"320 280 OFFCURVE",
"311 245 OFFCURVE",
"296 206 CURVE SMOOTH",
"284 174 OFFCURVE",
"253 100 OFFCURVE",
"230 66 CURVE",
"228 52 OFFCURVE",
"225 29 OFFCURVE",
"224 19 CURVE",
"68 19 LINE"
);
},
{
closed = 1;
nodes = (
"296 156 OFFCURVE",
"309 186 OFFCURVE",
"314 199 CURVE SMOOTH",
"325 228 OFFCURVE",
"338 257 OFFCURVE",
"338 292 CURVE",
"362 279 OFFCURVE",
"396 237 OFFCURVE",
"409 219 CURVE",
"319 156 LINE",
"303 146 OFFCURVE",
"291 136 OFFCURVE",
"282 127 CURVE"
);
},
{
closed = 1;
nodes = (
"680 31 LINE",
"705 44 LINE SMOOTH",
"714 49 OFFCURVE",
"717 65 OFFCURVE",
"709 82 CURVE SMOOTH",
"684 136 LINE",
"467 50 LINE SMOOTH",
"420 31 OFFCURVE",
"371 20 OFFCURVE",
"350 20 CURVE SMOOTH",
"313 20 OFFCURVE",
"280 42 OFFCURVE",
"280 77 CURVE SMOOTH",
"280 94 OFFCURVE",
"291 112 OFFCURVE",
"309 122 CURVE",
"354 63 LINE",
"473 128 OFFCURVE",
"603 159 OFFCURVE",
"734 160 CURVE",
"752 86 LINE SMOOTH",
"756 70 OFFCURVE",
"752 51 OFFCURVE",
"741 42 CURVE SMOOTH",
"732 35 OFFCURVE",
"704 23 OFFCURVE",
"686 16 CURVE"
);
},
{
closed = 1;
nodes = (
"324 135 LINE",
"540 287 LINE",
"697 322 LINE",
"697 178 LINE",
"581 170 OFFCURVE",
"458 141 OFFCURVE",
"358 86 CURVE"
);
},
{
closed = 1;
nodes = (
"430 529 OFFCURVE",
"439 546 OFFCURVE",
"483 600 CURVE",
"498 535 LINE",
"462 525 OFFCURVE",
"440 521 OFFCURVE",
"425 519 CURVE"
);
},
{
closed = 1;
nodes = (
"554 379 LINE",
"531 474 LINE",
"547 483 OFFCURVE",
"568 495 OFFCURVE",
"580 501 CURVE",
"685 509 LINE",
"683 539 LINE",
"639 539 LINE",
"656 554 LINE",
"716 557 LINE",
"715 591 LINE",
"634 596 LINE",
"597 564 LINE",
"577 558 OFFCURVE",
"542 548 OFFCURVE",
"516 541 CURVE",
"495 632 LINE",
"489 632 LINE",
"423 555 OFFCURVE",
"401 512 OFFCURVE",
"395 496 CURVE",
"465 500 OFFCURVE",
"532 525 OFFCURVE",
"605 550 CURVE",
"638 580 LINE",
"697 578 LINE",
"698 570 LINE",
"647 567 LINE",
"616 539 LINE",
"618 528 LINE",
"667 528 LINE",
"667 521 LINE",
"578 516 LINE",
"511 477 OFFCURVE",
"427 445 OFFCURVE",
"342 452 CURVE",
"330 457 LINE",
"340 513 OFFCURVE",
"391 614 OFFCURVE",
"438 673 CURVE SMOOTH",
"453 692 OFFCURVE",
"499 708 OFFCURVE",
"524 713 CURVE SMOOTH",
"601 729 LINE",
"586 791 LINE",
"541 776 LINE",
"521 831 LINE",
"501 832 LINE",
"542 923 LINE",
"627 875 LINE",
"633 883 OFFCURVE",
"638 887 OFFCURVE",
"647 887 CURVE SMOOTH",
"658 887 OFFCURVE",
"659 877 OFFCURVE",
"659 873 CURVE SMOOTH",
"659 868 OFFCURVE",
"652 857 OFFCURVE",
"648 851 CURVE SMOOTH",
"625 820 LINE",
"674 779 LINE",
"674 726 LINE",
"691 729 OFFCURVE",
"727 728 OFFCURVE",
"757 722 CURVE SMOOTH",
"850 703 OFFCURVE",
"916 679 OFFCURVE",
"941 675 CURVE",
"958 683 LINE",
"954 706 OFFCURVE",
"948 761 OFFCURVE",
"948 782 CURVE SMOOTH",
"948 792 OFFCURVE",
"950 841 OFFCURVE",
"952 875 CURVE",
"922 960 LINE",
"929 962 LINE",
"949 917 LINE",
"958 919 LINE",
"973 959 LINE",
"956 1007 LINE",
"963 1010 LINE",
"988 956 LINE",
"974 914 LINE",
"978 819 OFFCURVE",
"994 713 OFFCURVE",
"1008 632 CURVE",
"971 629 OFFCURVE",
"901 626 OFFCURVE",
"750 653 CURVE",
"704 451 LINE",
"699 341 LINE",
"547 309 LINE"
);
},
{
closed = 1;
nodes = (
"573 866 OFFCURVE",
"580 867 OFFCURVE",
"589 868 CURVE",
"581 882 OFFCURVE",
"573 888 OFFCURVE",
"558 888 CURVE SMOOTH",
"554 888 OFFCURVE",
"538 886 OFFCURVE",
"531 878 CURVE",
"541 871 OFFCURVE",
"551 866 OFFCURVE",
"566 866 CURVE SMOOTH"
);
},
{
closed = 1;
nodes = (
"647 825 LINE",
"661 843 LINE",
"667 851 OFFCURVE",
"676 866 OFFCURVE",
"676 875 CURVE SMOOTH",
"676 890 OFFCURVE",
"666 905 OFFCURVE",
"649 905 CURVE SMOOTH",
"640 905 OFFCURVE",
"632 900 OFFCURVE",
"625 895 CURVE",
"547 939 LINE",
"557 970 OFFCURVE",
"585 982 OFFCURVE",
"618 982 CURVE SMOOTH",
"661 982 OFFCURVE",
"734 958 OFFCURVE",
"734 906 CURVE SMOOTH",
"734 868 OFFCURVE",
"708 832 OFFCURVE",
"681 795 CURVE"
);
}
);
width = 1079;
}
);
unicode = 1300A;
},
{
glyphname = u1300B;
lastChange = "2017-01-25 19:58:54 +0000";
layers = (
{
layerId = UUID0;
paths = (
{
closed = 1;
nodes = (
"138 0 LINE",
"185 13 LINE",
"200 4 OFFCURVE",
"219 0 OFFCURVE",
"238 0 CURVE SMOOTH",
"245 0 OFFCURVE",
"287 1 OFFCURVE",
"339 9 CURVE SMOOTH",
"537 38 LINE",
"672 0 LINE",
"761 0 LINE",
"761 45 LINE",
"677 60 LINE",
"627 95 LINE",
"627 285 LINE",
"607 287 LINE",
"645 519 LINE",
"709 376 LINE",
"658 131 LINE",
"683 123 LINE",
"705 159 LINE",
"712 132 LINE",
"693 87 LINE",
"718 74 LINE",
"754 136 LINE",
"757 180 LINE",
"741 223 LINE",
"782 383 LINE",
"723 579 LINE SMOOTH",
"717 598 OFFCURVE",
"709 627 OFFCURVE",
"674 637 CURVE SMOOTH",
"591 662 LINE",
"591 700 LINE",
"627 749 OFFCURVE",
"651 782 OFFCURVE",
"651 819 CURVE SMOOTH",
"651 863 OFFCURVE",
"619 895 OFFCURVE",
"574 909 CURVE",
"618 1001 LINE",
"445 1001 LINE",
"438 1010 LINE",
"374 962 LINE",
"354 922 LINE",
"348 876 LINE",
"225 716 LINE",
"225 678 LINE",
"390 579 LINE",
"439 351 LINE",
"424 259 LINE",
"274 427 LINE SMOOTH",
"259 444 OFFCURVE",
"236 453 OFFCURVE",
"216 453 CURVE SMOOTH",
"174 453 OFFCURVE",
"153 417 OFFCURVE",
"153 382 CURVE SMOOTH",
"153 374 OFFCURVE",
"157 354 OFFCURVE",
"159 347 CURVE SMOOTH",
"213 151 LINE",
"169 131 OFFCURVE",
"146 107 OFFCURVE",
"146 80 CURVE SMOOTH",
"146 76 OFFCURVE",
"146 73 OFFCURVE",
"147 69 CURVE",
"133 60 LINE",
"49 45 LINE",
"49 0 LINE"
);
},
{
closed = 1;
nodes = (
"71 33 LINE",
"140 42 LINE",
"152 50 LINE",
"155 42 OFFCURVE",
"160 34 OFFCURVE",
"166 27 CURVE",
"135 19 LINE",
"71 19 LINE"
);
},
{
closed = 1;
nodes = (
"179 348 LINE SMOOTH",
"176 359 OFFCURVE",
"172 373 OFFCURVE",
"172 382 CURVE SMOOTH",
"172 413 OFFCURVE",
"189 434 OFFCURVE",
"215 434 CURVE SMOOTH",
"224 434 OFFCURVE",
"234 432 OFFCURVE",
"242 428 CURVE",
"213 365 LINE",
"274 181 LINE",
"230 159 LINE"
);
},
{
closed = 1;
nodes = (
"547 55 LINE",
"340 27 LINE SMOOTH",
"309 23 OFFCURVE",
"262 20 OFFCURVE",
"239 20 CURVE SMOOTH",
"210 20 OFFCURVE",
"165 31 OFFCURVE",
"165 82 CURVE SMOOTH",
"165 98 OFFCURVE",
"174 113 OFFCURVE",
"194 123 CURVE",
"244 63 LINE",
"612 83 LINE",
"670 42 LINE",
"739 33 LINE",
"739 19 LINE",
"675 19 LINE"
);
},
{
closed = 1;
nodes = (
"212 132 LINE",
"432 234 LINE",
"602 270 LINE",
"610 270 LINE",
"610 100 LINE",
"254 80 LINE"
);
},
{
closed = 1;
nodes = (
"233 366 LINE",
"257 420 LINE",
"416 245 LINE",
"292 189 LINE"
);
},
{
closed = 1;
nodes = (
"709 97 LINE",
"727 141 LINE",
"715 184 LINE",
"707 184 LINE",
"681 141 LINE",
"676 143 LINE",
"728 378 LINE",
"654 538 LINE",
"633 539 LINE",
"589 286 LINE",
"441 253 LINE",
"458 352 LINE",
"408 587 LINE",
"243 688 LINE",
"242 712 LINE",
"360 863 LINE",
"369 918 LINE",
"385 954 LINE",
"432 991 LINE",
"436 986 LINE",
"437 984 LINE",
"397 946 LINE",
"390 902 LINE",
"397 898 LINE",
"439 927 LINE",
"443 923 LINE",
"375 842 LINE",
"294 698 LINE",
"480 629 LINE",
"496 629 LINE",
"484 708 LINE",
"439 693 LINE",
"419 748 LINE",
"400 749 LINE",
"440 840 LINE",
"525 792 LINE",
"532 800 OFFCURVE",
"537 804 OFFCURVE",
"546 804 CURVE SMOOTH",
"557 804 OFFCURVE",
"557 794 OFFCURVE",
"557 790 CURVE SMOOTH",
"557 785 OFFCURVE",
"551 774 OFFCURVE",
"546 768 CURVE SMOOTH",
"524 737 LINE",
"573 696 LINE",
"573 649 LINE",
"672 620 LINE SMOOTH",
"690 615 OFFCURVE",
"702 590 OFFCURVE",
"707 572 CURVE SMOOTH",
"763 388 LINE",
"723 224 LINE",
"741 177 LINE",
"741 138 LINE",
"716 93 LINE"
);
},
{
closed = 1;
nodes = (
"317 706 LINE",
"387 830 LINE",
"463 926 LINE",
"444 944 LINE",
"409 920 LINE",
"413 947 LINE",
"441 975 LINE",
"472 911 LINE",
"448 902 OFFCURVE",
"434 884 OFFCURVE",
"428 859 CURVE",
"426 846 LINE",
"376 736 LINE",
"407 734 LINE",
"431 671 LINE",
"472 686 LINE",
"479 645 LINE"
);
},
{
closed = 1;
nodes = (
"471 783 OFFCURVE",
"479 784 OFFCURVE",
"488 785 CURVE",
"479 799 OFFCURVE",
"471 805 OFFCURVE",
"456 805 CURVE SMOOTH",
"453 805 OFFCURVE",
"437 803 OFFCURVE",
"430 795 CURVE",
"439 788 OFFCURVE",
"449 783 OFFCURVE",
"464 783 CURVE SMOOTH"
);
},
{
closed = 1;
nodes = (
"545 742 LINE",
"560 760 LINE",
"565 768 OFFCURVE",
"575 783 OFFCURVE",
"575 792 CURVE SMOOTH",
"575 807 OFFCURVE",
"564 822 OFFCURVE",
"547 822 CURVE SMOOTH",
"538 822 OFFCURVE",
"530 817 OFFCURVE",
"523 812 CURVE",
"445 856 LINE",
"455 887 OFFCURVE",
"483 899 OFFCURVE",
"516 899 CURVE SMOOTH",
"559 899 OFFCURVE",
"632 875 OFFCURVE",
"632 823 CURVE SMOOTH",
"632 785 OFFCURVE",
"606 749 OFFCURVE",
"579 712 CURVE"
);
},
{
closed = 1;
nodes = (
"454 986 LINE",
"593 986 LINE",
"561 920 LINE",
"487 920 LINE"
);
}
);
width = 831;
}
);
unicode = 1300B;
},
{
glyphname = u1300C;
lastChange = "2017-01-25 19:58:54 +0000";
layers = (
{
layerId = UUID0;
paths = (
{
closed = 1;
nodes = (
"152 19 OFFCURVE",
"196 63 OFFCURVE",
"204 118 CURVE SMOOTH",
"213 178 OFFCURVE",
"184 205 OFFCURVE",
"152 214 CURVE",
"209 654 LINE",
"216 638 LINE",
"396 495 LINE",
"426 495 LINE",
"563 600 LINE",
"621 351 LINE",
"606 259 LINE",
"457 427 LINE SMOOTH",
"442 444 OFFCURVE",
"418 453 OFFCURVE",
"398 453 CURVE SMOOTH",
"356 453 OFFCURVE",
"335 417 OFFCURVE",
"335 382 CURVE SMOOTH",
"335 374 OFFCURVE",
"339 354 OFFCURVE",
"341 347 CURVE SMOOTH",
"395 151 LINE",
"352 131 OFFCURVE",
"329 107 OFFCURVE",
"329 80 CURVE SMOOTH",
"329 76 OFFCURVE",
"329 73 OFFCURVE",
"329 69 CURVE",
"315 60 LINE",
"231 45 LINE",
"231 0 LINE",
"320 0 LINE",
"367 13 LINE",
"382 4 OFFCURVE",
"401 0 OFFCURVE",
"420 0 CURVE SMOOTH",
"427 0 OFFCURVE",
"469 1 OFFCURVE",
"521 9 CURVE SMOOTH",
"719 38 LINE",
"854 0 LINE",
"943 0 LINE",
"943 45 LINE",
"859 60 LINE",
"809 95 LINE",
"809 285 LINE",
"789 287 LINE",
"801 446 LINE",
"842 604 LINE",
"903 419 LINE",
"889 230 LINE",
"874 187 LINE",
"874 111 LINE",
"915 120 LINE",
"915 133 LINE",
"957 146 LINE",
"957 244 LINE",
"992 420 LINE",
"921 662 LINE SMOOTH",
"915 681 OFFCURVE",
"911 712 OFFCURVE",
"876 720 CURVE SMOOTH",
"773 745 LINE",
"773 783 LINE",
"810 832 OFFCURVE",
"833 865 OFFCURVE",
"833 902 CURVE SMOOTH",
"833 963 OFFCURVE",
"770 1001 OFFCURVE",
"697 1001 CURVE SMOOTH",
"646 1001 OFFCURVE",
"620 980 OFFCURVE",
"610 942 CURVE",
"608 929 LINE",
"558 819 LINE",
"589 817 LINE",
"613 754 LINE",
"654 769 LINE",
"660 743 LINE",
"606 730 LINE SMOOTH",
"563 720 OFFCURVE",
"538 706 OFFCURVE",
"515 688 CURVE SMOOTH",
"400 600 LINE",
"277 700 LINE",
"264 743 LINE",
"237 779 LINE",
"226 783 LINE",
"251 976 LINE",
"222 979 LINE",
"198 795 LINE",
"178 804 LINE",
"170 788 LINE",
"160 795 LINE",
"132 728 LINE",
"177 677 LINE",
"183 677 LINE",
"123 217 LINE",
"90 216 OFFCURVE",
"58 196 OFFCURVE",
"50 138 CURVE SMOOTH",
"42 83 OFFCURVE",
"74 29 OFFCURVE",
"110 0 CURVE"
);
},
{
closed = 1;
nodes = (
"87 54 OFFCURVE",
"68 97 OFFCURVE",
"73 134 CURVE SMOOTH",
"80 184 OFFCURVE",
"109 196 OFFCURVE",
"135 192 CURVE SMOOTH",
"162 188 OFFCURVE",
"188 169 OFFCURVE",
"181 120 CURVE SMOOTH",
"176 83 OFFCURVE",
"146 46 OFFCURVE",
"114 27 CURVE"
);
},
{
closed = 1;
nodes = (
"250 33 LINE",
"322 42 LINE",
"334 50 LINE",
"337 42 OFFCURVE",
"342 34 OFFCURVE",
"348 27 CURVE",
"317 19 LINE",
"250 19 LINE"
);
},
{
closed = 1;
nodes = (
"361 348 LINE SMOOTH",
"358 359 OFFCURVE",
"354 373 OFFCURVE",
"354 382 CURVE SMOOTH",
"354 413 OFFCURVE",
"372 434 OFFCURVE",
"397 434 CURVE SMOOTH",
"406 434 OFFCURVE",
"416 432 OFFCURVE",
"424 428 CURVE",
"396 365 LINE",
"456 181 LINE",
"412 159 LINE"
);
},
{
closed = 1;
nodes = (
"725 59 LINE",
"519 29 LINE SMOOTH",
"488 24 OFFCURVE",
"444 20 OFFCURVE",
"421 20 CURVE SMOOTH",
"392 20 OFFCURVE",
"347 31 OFFCURVE",
"347 82 CURVE SMOOTH",
"347 98 OFFCURVE",
"356 113 OFFCURVE",
"376 123 CURVE",
"426 63 LINE",
"794 83 LINE",
"852 42 LINE",
"924 33 LINE",
"924 19 LINE",
"857 19 LINE"
);
},
{
closed = 1;
nodes = (
"394 132 LINE",
"614 234 LINE",
"784 270 LINE",
"792 270 LINE",
"792 100 LINE",
"436 80 LINE"
);
},
{
closed = 1;
nodes = (
"415 366 LINE",
"439 420 LINE",
"598 245 LINE",
"474 189 LINE"
);
},
{
closed = 1;
nodes = (
"148 730 LINE",
"167 773 LINE",
"206 751 LINE",
"218 723 LINE",
"203 695 LINE",
"181 694 LINE"
);
},
{
closed = 1;
nodes = (
"889 186 LINE",
"905 228 LINE",
"923 418 LINE",
"853 621 LINE",
"829 622 LINE",
"784 451 LINE",
"771 286 LINE",
"623 253 LINE",
"640 352 LINE",
"576 625 LINE",
"565 625 LINE",
"418 515 LINE",
"400 515 LINE",
"229 652 LINE",
"216 688 LINE",
"234 718 LINE",
"217 759 LINE",
"184 779 LINE",
"188 787 LINE",
"227 769 LINE",
"249 737 LINE",
"268 685 LINE",
"403 580 LINE",
"525 674 LINE SMOOTH",
"552 695 OFFCURVE",
"576 706 OFFCURVE",
"608 713 CURVE SMOOTH",
"682 729 LINE",
"667 791 LINE",
"622 776 LINE",
"601 831 LINE",
"582 832 LINE",
"622 923 LINE",
"708 875 LINE",
"714 883 OFFCURVE",
"719 887 OFFCURVE",
"728 887 CURVE SMOOTH",
"739 887 OFFCURVE",
"739 877 OFFCURVE",
"739 873 CURVE SMOOTH",
"739 868 OFFCURVE",
"733 857 OFFCURVE",
"729 851 CURVE SMOOTH",
"706 820 LINE",
"755 779 LINE",
"755 732 LINE",
"874 703 LINE SMOOTH",
"892 699 OFFCURVE",
"900 673 OFFCURVE",
"905 655 CURVE SMOOTH",
"973 424 LINE",
"937 238 LINE",
"937 158 LINE",
"902 147 LINE",
"902 132 LINE",
"889 129 LINE"
);
},
{
closed = 1;
nodes = (
"653 866 OFFCURVE",
"661 867 OFFCURVE",
"670 868 CURVE",
"661 882 OFFCURVE",
"653 888 OFFCURVE",
"638 888 CURVE SMOOTH",
"635 888 OFFCURVE",
"619 886 OFFCURVE",
"612 878 CURVE",
"621 871 OFFCURVE",
"631 866 OFFCURVE",
"646 866 CURVE SMOOTH"
);
},
{
closed = 1;
nodes = (
"728 825 LINE",
"742 843 LINE",
"748 851 OFFCURVE",
"757 866 OFFCURVE",
"757 875 CURVE SMOOTH",
"757 890 OFFCURVE",
"747 905 OFFCURVE",
"729 905 CURVE SMOOTH",
"720 905 OFFCURVE",
"712 900 OFFCURVE",
"706 895 CURVE",
"627 939 LINE",
"637 970 OFFCURVE",
"666 982 OFFCURVE",
"698 982 CURVE SMOOTH",
"741 982 OFFCURVE",
"814 958 OFFCURVE",
"814 906 CURVE SMOOTH",
"814 868 OFFCURVE",
"788 832 OFFCURVE",
"761 795 CURVE"
);
}
);
width = 1041;
}
);
unicode = 1300C;
},
{
glyphname = u1300D;
lastChange = "2017-01-25 19:58:54 +0000";
layers = (
{
layerId = UUID0;
paths = (
{
closed = 1;
nodes = (
"292 0 LINE",
"339 13 LINE",
"355 4 OFFCURVE",
"374 0 OFFCURVE",
"393 0 CURVE SMOOTH",
"400 0 OFFCURVE",
"442 1 OFFCURVE",
"494 9 CURVE SMOOTH",
"691 38 LINE",
"827 0 LINE",
"916 0 LINE",
"916 45 LINE",
"832 60 LINE",
"782 95 LINE",
"782 285 LINE",
"762 287 LINE",
"776 464 LINE",
"970 441 LINE",
"1001 492 LINE",
"909 659 LINE SMOOTH",
"899 676 OFFCURVE",
"883 712 OFFCURVE",
"848 720 CURVE SMOOTH",
"831 724 LINE",
"876 771 OFFCURVE",
"929 809 OFFCURVE",
"987 836 CURVE",
"977 857 LINE",
"912 826 OFFCURVE",
"853 783 OFFCURVE",
"804 730 CURVE",
"746 745 LINE",
"746 783 LINE",
"782 832 OFFCURVE",
"805 865 OFFCURVE",
"805 902 CURVE SMOOTH",
"805 963 OFFCURVE",
"742 1001 OFFCURVE",
"669 1001 CURVE SMOOTH",
"618 1001 OFFCURVE",
"592 980 OFFCURVE",
"582 942 CURVE",
"580 929 LINE",
"530 819 LINE",
"562 817 LINE",
"585 754 LINE",
"626 769 LINE",
"632 743 LINE",
"578 730 LINE SMOOTH",
"535 720 OFFCURVE",
"504 677 OFFCURVE",
"476 650 CURVE SMOOTH",
"419 595 LINE",
"299 694 LINE",
"286 738 LINE",
"262 769 LINE",
"309 850 LINE",
"367 863 LINE",
"375 851 OFFCURVE",
"381 840 OFFCURVE",
"385 833 CURVE",
"405 847 LINE",
"401 856 OFFCURVE",
"394 869 OFFCURVE",
"383 883 CURVE",
"388 920 OFFCURVE",
"400 947 OFFCURVE",
"408 962 CURVE SMOOTH",
"441 1020 LINE",
"358 1068 LINE",
"324 1010 LINE SMOOTH",
"313 991 OFFCURVE",
"294 968 OFFCURVE",
"269 949 CURVE",
"253 952 OFFCURVE",
"236 951 OFFCURVE",
"227 951 CURVE",
"224 926 LINE",
"235 927 OFFCURVE",
"247 927 OFFCURVE",
"259 925 CURVE",
"276 869 LINE",
"228 786 LINE",
"202 798 LINE",
"192 783 LINE",
"184 787 LINE",
"170 780 LINE",
"151 736 LINE",
"153 723 LINE",
"170 689 LINE",
"133 623 LINE SMOOTH",
"110 581 OFFCURVE",
"71 531 OFFCURVE",
"49 506 CURVE",
"105 473 LINE",
"117 504 OFFCURVE",
"142 562 OFFCURVE",
"166 604 CURVE SMOOTH",
"201 665 LINE",
"223 667 LINE",
"232 660 LINE",
"242 635 LINE",
"418 490 LINE",
"448 491 LINE",
"563 593 LINE",
"593 351 LINE",
"579 259 LINE",
"429 427 LINE SMOOTH",
"414 444 OFFCURVE",
"391 453 OFFCURVE",
"371 453 CURVE SMOOTH",
"329 453 OFFCURVE",
"308 417 OFFCURVE",
"308 382 CURVE SMOOTH",
"308 374 OFFCURVE",
"312 354 OFFCURVE",
"314 347 CURVE SMOOTH",
"368 151 LINE",
"324 131 OFFCURVE",
"301 107 OFFCURVE",
"301 80 CURVE SMOOTH",
"301 76 OFFCURVE",
"301 73 OFFCURVE",
"302 69 CURVE",
"288 60 LINE",
"204 45 LINE",
"204 0 LINE"
);
},
{
closed = 1;
nodes = (
"223 33 LINE",
"295 42 LINE",
"307 50 LINE",
"310 42 OFFCURVE",
"315 34 OFFCURVE",
"321 27 CURVE",
"290 19 LINE",
"223 19 LINE"
);
},
{
closed = 1;
nodes = (
"333 348 LINE SMOOTH",
"330 359 OFFCURVE",
"327 373 OFFCURVE",
"327 382 CURVE SMOOTH",
"327 413 OFFCURVE",
"344 434 OFFCURVE",
"370 434 CURVE SMOOTH",
"379 434 OFFCURVE",
"389 432 OFFCURVE",
"396 428 CURVE",
"368 365 LINE",
"429 181 LINE",
"385 159 LINE"
);
},
{
closed = 1;
nodes = (
"702 55 LINE",
"495 27 LINE SMOOTH",
"464 23 OFFCURVE",
"417 20 OFFCURVE",
"394 20 CURVE SMOOTH",
"365 20 OFFCURVE",
"320 31 OFFCURVE",
"320 82 CURVE SMOOTH",
"320 98 OFFCURVE",
"329 113 OFFCURVE",
"349 123 CURVE",
"398 63 LINE",
"767 83 LINE",
"825 42 LINE",
"897 33 LINE",
"897 19 LINE",
"830 19 LINE"
);
},
{
closed = 1;
nodes = (
"367 132 LINE",
"587 234 LINE",
"756 270 LINE",
"765 270 LINE",
"765 100 LINE",
"409 80 LINE"
);
},
{
closed = 1;
nodes = (
"388 366 LINE",
"412 420 LINE",
"570 245 LINE",
"447 189 LINE"
);
},
{
closed = 1;
nodes = (
"184 694 LINE",
"168 728 LINE",
"167 737 LINE",
"184 772 LINE",
"232 741 LINE",
"240 718 LINE",
"221 683 LINE",
"204 682 LINE"
);
},
{
closed = 1;
nodes = (
"612 352 LINE",
"578 617 LINE",
"565 617 LINE",
"440 509 LINE",
"422 509 LINE",
"254 649 LINE",
"247 669 LINE",
"232 677 LINE",
"256 713 LINE",
"245 746 LINE",
"200 775 LINE",
"205 784 LINE",
"254 756 LINE",
"271 731 LINE",
"290 679 LINE",
"422 572 LINE",
"489 640 LINE SMOOTH",
"510 662 OFFCURVE",
"552 708 OFFCURVE",
"577 713 CURVE SMOOTH",
"654 729 LINE",
"639 791 LINE",
"594 776 LINE",
"573 831 LINE",
"554 832 LINE",
"594 923 LINE",
"680 875 LINE",
"686 883 OFFCURVE",
"691 887 OFFCURVE",
"700 887 CURVE SMOOTH",
"711 887 OFFCURVE",
"711 877 OFFCURVE",
"711 873 CURVE SMOOTH",
"711 868 OFFCURVE",
"705 857 OFFCURVE",
"701 851 CURVE SMOOTH",
"678 820 LINE",
"727 779 LINE",
"727 732 LINE",
"791 716 LINE",
"749 668 OFFCURVE",
"715 612 OFFCURVE",
"693 552 CURVE",
"672 561 LINE",
"663 548 LINE",
"659 551 LINE",
"624 509 LINE",
"626 480 LINE",
"664 449 LINE",
"704 444 LINE",
"744 474 LINE",
"759 467 LINE",
"744 286 LINE",
"596 253 LINE"
);
},
{
closed = 1;
nodes = (
"281 920 LINE",
"293 917 OFFCURVE",
"306 912 OFFCURVE",
"319 904 CURVE SMOOTH",
"332 896 OFFCURVE",
"343 888 OFFCURVE",
"352 879 CURVE",
"296 866 LINE"
);
},
{
closed = 1;
nodes = (
"674 539 LINE",
"678 545 LINE",
"688 540 LINE",
"687 537 OFFCURVE",
"686 533 OFFCURVE",
"685 529 CURVE"
);
},
{
closed = 1;
nodes = (
"357 909 OFFCURVE",
"345 919 OFFCURVE",
"332 926 CURVE SMOOTH",
"319 933 OFFCURVE",
"305 939 OFFCURVE",
"292 943 CURVE",
"313 962 OFFCURVE",
"329 983 OFFCURVE",
"340 1001 CURVE SMOOTH",
"365 1043 LINE",
"417 1013 LINE",
"392 971 LINE SMOOTH",
"381 953 OFFCURVE",
"372 927 OFFCURVE",
"366 900 CURVE"
);
},
{
closed = 1;
nodes = (
"771 479 LINE",
"744 490 LINE",
"702 459 LINE",
"668 463 LINE",
"638 488 LINE",
"637 504 LINE",
"662 535 LINE",
"699 503 LINE",
"706 512 LINE",
"704 514 LINE",
"709 529 LINE",
"747 509 LINE",
"916 502 LINE",
"919 518 LINE",
"815 622 LINE",
"798 622 LINE",
"771 523 LINE",
"753 525 LINE",
"714 542 LINE",
"737 604 OFFCURVE",
"773 661 OFFCURVE",
"817 709 CURVE",
"846 703 LINE SMOOTH",
"864 699 OFFCURVE",
"886 663 OFFCURVE",
"895 646 CURVE SMOOTH",
"980 492 LINE",
"959 458 LINE"
);
},
{
closed = 1;
nodes = (
"789 522 LINE",
"810 605 LINE",
"898 518 LINE"
);
},
{
closed = 1;
nodes = (
"625 866 OFFCURVE",
"633 867 OFFCURVE",
"642 868 CURVE",
"633 882 OFFCURVE",
"625 888 OFFCURVE",
"610 888 CURVE SMOOTH",
"607 888 OFFCURVE",
"591 886 OFFCURVE",
"584 878 CURVE",
"593 871 OFFCURVE",
"604 866 OFFCURVE",
"619 866 CURVE SMOOTH"
);
},
{
closed = 1;
nodes = (
"700 825 LINE",
"714 843 LINE",
"720 851 OFFCURVE",
"729 866 OFFCURVE",
"729 875 CURVE SMOOTH",
"729 890 OFFCURVE",
"719 905 OFFCURVE",
"702 905 CURVE SMOOTH",
"692 905 OFFCURVE",
"685 900 OFFCURVE",
"678 895 CURVE",
"600 939 LINE",
"609 970 OFFCURVE",
"638 982 OFFCURVE",
"670 982 CURVE SMOOTH",
"713 982 OFFCURVE",
"787 958 OFFCURVE",
"787 906 CURVE SMOOTH",
"787 868 OFFCURVE",
"760 832 OFFCURVE",
"733 795 CURVE"
);
}
);
width = 1050;
}
);
unicode = 1300D;
},
{
glyphname = u1300E;
lastChange = "2017-01-25 19:58:54 +0000";
layers = (
{
layerId = UUID0;
paths = (
{
closed = 1;
nodes = (
"261 0 LINE",
"270 66 LINE",
"273 70 OFFCURVE",
"278 78 OFFCURVE",
"283 86 CURVE",
"282 83 OFFCURVE",
"282 81 OFFCURVE",
"282 78 CURVE SMOOTH",
"282 29 OFFCURVE",
"322 0 OFFCURVE",
"369 0 CURVE SMOOTH",
"391 0 OFFCURVE",
"434 8 OFFCURVE",
"488 29 CURVE SMOOTH",
"698 112 LINE",
"714 78 LINE SMOOTH",
"719 68 OFFCURVE",
"723 60 OFFCURVE",
"711 54 CURVE SMOOTH",
"682 39 LINE",
"696 0 LINE",
"714 0 OFFCURVE",
"756 17 OFFCURVE",
"771 27 CURVE SMOOTH",
"786 37 OFFCURVE",
"796 60 OFFCURVE",
"790 86 CURVE",
"770 179 LINE",
"737 179 LINE",
"737 337 LINE",
"741 427 LINE",
"878 419 LINE",
"912 460 LINE",
"863 656 LINE SMOOTH",
"857 682 OFFCURVE",
"852 712 OFFCURVE",
"816 720 CURVE SMOOTH",
"799 724 LINE",
"863 813 LINE",
"839 830 LINE",
"769 731 LINE",
"704 745 LINE",
"705 771 LINE",
"719 767 LINE",
"755 816 OFFCURVE",
"773 865 OFFCURVE",
"773 902 CURVE SMOOTH",
"773 945 OFFCURVE",
"742 976 OFFCURVE",
"699 991 CURVE",
"703 997 LINE",
"720 989 OFFCURVE",
"750 979 OFFCURVE",
"765 991 CURVE SMOOTH",
"778 1002 OFFCURVE",
"769 1036 OFFCURVE",
"765 1044 CURVE",
"782 1045 OFFCURVE",
"813 1054 OFFCURVE",
"813 1076 CURVE SMOOTH",
"813 1091 OFFCURVE",
"806 1102 OFFCURVE",
"784 1102 CURVE SMOOTH",
"760 1102 OFFCURVE",
"746 1090 OFFCURVE",
"716 1052 CURVE SMOOTH",
"701 1033 OFFCURVE",
"690 1012 OFFCURVE",
"680 996 CURVE",
"667 999 OFFCURVE",
"652 1001 OFFCURVE",
"638 1001 CURVE SMOOTH",
"586 1001 OFFCURVE",
"560 980 OFFCURVE",
"550 942 CURVE",
"548 929 LINE",
"499 819 LINE",
"530 817 LINE",
"545 776 LINE",
"493 763 LINE",
"511 723 LINE",
"564 758 LINE",
"594 769 LINE",
"601 743 LINE",
"546 730 LINE SMOOTH",
"503 720 OFFCURVE",
"468 709 OFFCURVE",
"452 685 CURVE SMOOTH",
"372 565 LINE",
"231 546 LINE",
"206 571 LINE",
"167 576 LINE",
"167 955 LINE",
"119 955 LINE",
"119 903 OFFCURVE",
"97 875 OFFCURVE",
"83 844 CURVE SMOOTH",
"67 809 OFFCURVE",
"49 773 OFFCURVE",
"49 716 CURVE SMOOTH",
"49 651 OFFCURVE",
"83 572 OFFCURVE",
"107 538 CURVE",
"108 534 LINE",
"100 531 LINE",
"94 512 OFFCURVE",
"94 502 OFFCURVE",
"97 488 CURVE",
"75 448 OFFCURVE",
"49 400 OFFCURVE",
"49 351 CURVE SMOOTH",
"49 294 OFFCURVE",
"67 258 OFFCURVE",
"83 223 CURVE SMOOTH",
"97 193 OFFCURVE",
"119 164 OFFCURVE",
"119 112 CURVE",
"167 112 LINE",
"167 459 LINE",
"200 465 LINE",
"215 483 LINE",
"414 490 LINE",
"511 600 LINE",
"541 467 LINE",
"538 464 LINE",
"541 436 LINE",
"550 429 LINE",
"550 427 LINE",
"513 376 LINE",
"536 357 LINE",
"559 389 LINE",
"562 377 LINE",
"551 306 LINE",
"511 358 OFFCURVE",
"424 428 OFFCURVE",
"349 428 CURVE SMOOTH",
"336 428 OFFCURVE",
"306 420 OFFCURVE",
"298 412 CURVE SMOOTH",
"284 398 OFFCURVE",
"274 378 OFFCURVE",
"266 347 CURVE SMOOTH",
"259 321 OFFCURVE",
"229 188 OFFCURVE",
"208 96 CURVE",
"188 68 LINE",
"151 57 LINE",
"70 45 LINE",
"70 0 LINE"
);
},
{
closed = 1;
nodes = (
"136 177 OFFCURVE",
"118 201 OFFCURVE",
"103 231 CURVE SMOOTH",
"87 263 OFFCURVE",
"71 299 OFFCURVE",
"71 351 CURVE SMOOTH",
"71 397 OFFCURVE",
"95 441 OFFCURVE",
"114 478 CURVE",
"125 470 LINE",
"145 464 LINE",
"145 135 LINE",
"138 135 LINE"
);
},
{
closed = 1;
nodes = (
"89 33 LINE",
"157 42 LINE",
"199 54 LINE",
"225 88 LINE",
"246 181 OFFCURVE",
"276 314 OFFCURVE",
"283 337 CURVE SMOOTH",
"290 363 OFFCURVE",
"297 382 OFFCURVE",
"309 394 CURVE SMOOTH",
"314 399 OFFCURVE",
"339 409 OFFCURVE",
"349 409 CURVE SMOOTH",
"422 409 OFFCURVE",
"495 342 OFFCURVE",
"536 293 CURVE",
"446 230 LINE",
"431 254 OFFCURVE",
"382 328 OFFCURVE",
"352 336 CURVE",
"341 331 LINE",
"339 296 OFFCURVE",
"332 245 OFFCURVE",
"317 206 CURVE SMOOTH",
"305 174 OFFCURVE",
"274 100 OFFCURVE",
"251 66 CURVE",
"249 52 OFFCURVE",
"246 29 OFFCURVE",
"245 19 CURVE",
"89 19 LINE"
);
},
{
closed = 1;
nodes = (
"317 156 OFFCURVE",
"330 186 OFFCURVE",
"335 199 CURVE SMOOTH",
"346 228 OFFCURVE",
"356 273 OFFCURVE",
"357 309 CURVE",
"381 295 OFFCURVE",
"417 241 OFFCURVE",
"431 220 CURVE",
"340 156 LINE SMOOTH",
"324 146 OFFCURVE",
"312 136 OFFCURVE",
"303 127 CURVE"
);
},
{
closed = 1;
nodes = (
"701 31 LINE",
"726 44 LINE SMOOTH",
"735 49 OFFCURVE",
"738 65 OFFCURVE",
"730 82 CURVE SMOOTH",
"705 136 LINE",
"488 50 LINE SMOOTH",
"441 31 OFFCURVE",
"392 20 OFFCURVE",
"371 20 CURVE SMOOTH",
"334 20 OFFCURVE",
"301 42 OFFCURVE",
"301 77 CURVE SMOOTH",
"301 94 OFFCURVE",
"312 112 OFFCURVE",
"330 122 CURVE",
"375 63 LINE",
"494 128 OFFCURVE",
"624 159 OFFCURVE",
"755 160 CURVE",
"773 86 LINE SMOOTH",
"777 70 OFFCURVE",
"773 51 OFFCURVE",
"762 42 CURVE SMOOTH",
"753 35 OFFCURVE",
"725 23 OFFCURVE",
"707 16 CURVE"
);
},
{
closed = 1;
nodes = (
"132 484 LINE",
"116 492 LINE",
"112 509 LINE",
"112 523 LINE",
"167 534 LINE",
"167 535 LINE",
"189 525 LINE",
"201 492 LINE",
"190 479 LINE",
"167 472 LINE"
);
},
{
closed = 1;
nodes = (
"127 549 LINE",
"145 554 LINE",
"145 542 LINE",
"134 540 LINE"
);
},
{
closed = 1;
nodes = (
"345 135 LINE",
"561 287 LINE",
"718 322 LINE",
"718 178 LINE",
"602 170 OFFCURVE",
"479 141 OFFCURVE",
"379 86 CURVE"
);
},
{
closed = 1;
nodes = (
"97 597 OFFCURVE",
"71 658 OFFCURVE",
"71 716 CURVE SMOOTH",
"71 767 OFFCURVE",
"89 805 OFFCURVE",
"103 836 CURVE SMOOTH",
"117 866 OFFCURVE",
"136 891 OFFCURVE",
"138 933 CURVE",
"145 933 LINE",
"145 571 LINE",
"119 562 LINE"
);
},
{
closed = 1;
nodes = (
"580 378 LINE",
"572 408 LINE",
"573 409 LINE",
"579 404 LINE",
"618 399 LINE",
"662 431 LINE",
"724 428 LINE",
"720 341 LINE",
"568 309 LINE"
);
},
{
closed = 1;
nodes = (
"588 499 LINE",
"591 503 LINE",
"602 498 LINE",
"597 491 LINE"
);
},
{
closed = 1;
nodes = (
"521 637 LINE",
"408 509 LINE",
"229 501 LINE",
"213 500 LINE",
"203 534 LINE",
"167 548 LINE",
"167 559 LINE",
"200 557 LINE",
"226 532 LINE",
"380 546 LINE",
"465 673 LINE SMOOTH",
"478 693 OFFCURVE",
"520 708 OFFCURVE",
"545 713 CURVE SMOOTH",
"622 729 LINE",
"607 791 LINE",
"562 776 LINE",
"542 831 LINE",
"522 832 LINE",
"563 923 LINE",
"648 875 LINE",
"654 883 OFFCURVE",
"659 887 OFFCURVE",
"668 887 CURVE SMOOTH",
"679 887 OFFCURVE",
"680 877 OFFCURVE",
"680 873 CURVE SMOOTH",
"680 868 OFFCURVE",
"673 857 OFFCURVE",
"669 851 CURVE SMOOTH",
"646 820 LINE",
"687 784 LINE",
"686 732 LINE",
"758 716 LINE",
"608 509 LINE",
"587 518 LINE",
"578 503 LINE",
"574 506 LINE",
"554 483 LINE"
);
},
{
closed = 1;
nodes = (
"583 418 LINE",
"553 444 LINE",
"551 459 LINE",
"577 490 LINE",
"619 456 LINE",
"626 464 LINE",
"618 472 LINE",
"627 484 LINE",
"664 464 LINE",
"833 477 LINE",
"838 485 LINE",
"793 621 LINE",
"770 622 LINE",
"734 486 LINE",
"667 480 LINE",
"635 497 LINE",
"788 709 LINE",
"814 703 LINE SMOOTH",
"833 699 OFFCURVE",
"842 673 OFFCURVE",
"846 655 CURVE SMOOTH",
"892 465 LINE",
"872 439 LINE",
"659 446 LINE",
"617 415 LINE"
);
},
{
closed = 1;
nodes = (
"782 604 LINE",
"815 493 LINE",
"752 487 LINE"
);
},
{
closed = 1;
nodes = (
"594 866 OFFCURVE",
"601 867 OFFCURVE",
"610 868 CURVE",
"602 882 OFFCURVE",
"594 888 OFFCURVE",
"579 888 CURVE SMOOTH",
"575 888 OFFCURVE",
"559 886 OFFCURVE",
"552 878 CURVE",
"562 871 OFFCURVE",
"572 866 OFFCURVE",
"587 866 CURVE SMOOTH"
);
},
{
closed = 1;
nodes = (
"668 825 LINE",
"682 843 LINE",
"688 851 OFFCURVE",
"697 866 OFFCURVE",
"697 875 CURVE SMOOTH",
"697 890 OFFCURVE",
"687 905 OFFCURVE",
"670 905 CURVE SMOOTH",
"661 905 OFFCURVE",
"653 900 OFFCURVE",
"646 895 CURVE",
"568 939 LINE",
"578 970 OFFCURVE",
"606 982 OFFCURVE",
"639 982 CURVE SMOOTH",
"682 982 OFFCURVE",
"755 958 OFFCURVE",
"755 906 CURVE SMOOTH",
"755 868 OFFCURVE",
"738 825 OFFCURVE",
"711 788 CURVE"
);
},
{
closed = 1;
nodes = (
"738 1000 OFFCURVE",
"723 1006 OFFCURVE",
"711 1011 CURVE",
"722 1028 OFFCURVE",
"733 1042 OFFCURVE",
"743 1054 CURVE",
"746 1045 OFFCURVE",
"759 1015 OFFCURVE",
"751 1006 CURVE"
);
},
{
closed = 1;
nodes = (
"759 1073 OFFCURVE",
"772 1083 OFFCURVE",
"782 1084 CURVE SMOOTH",
"789 1085 OFFCURVE",
"793 1082 OFFCURVE",
"793 1076 CURVE SMOOTH",
"793 1062 OFFCURVE",
"756 1058 OFFCURVE",
"745 1057 CURVE"
);
}
);
width = 960;
}
);
unicode = 1300E;
},
{
glyphname = u1300F;
lastChange = "2017-01-25 19:58:54 +0000";
layers = (
{
layerId = UUID0;
paths = (
{
closed = 1;
nodes = (
"157 0 OFFCURVE",
"200 8 OFFCURVE",
"254 29 CURVE SMOOTH",
"465 112 LINE",
"480 78 LINE SMOOTH",
"485 68 OFFCURVE",
"489 61 OFFCURVE",
"478 54 CURVE",
"449 39 LINE",
"463 0 LINE",
"481 0 OFFCURVE",
"522 17 OFFCURVE",
"537 27 CURVE SMOOTH",
"553 38 OFFCURVE",
"563 60 OFFCURVE",
"557 86 CURVE",
"537 179 LINE",
"503 179 LINE",
"503 337 LINE",
"508 446 LINE",
"547 591 LINE",
"575 559 OFFCURVE",
"600 518 OFFCURVE",
"623 476 CURVE",
"622 475 OFFCURVE",
"620 474 OFFCURVE",
"620 473 CURVE",
"617 466 OFFCURVE",
"620 454 OFFCURVE",
"624 443 CURVE",
"612 386 OFFCURVE",
"601 321 OFFCURVE",
"590 265 CURVE",
"562 225 LINE",
"572 145 LINE",
"606 146 LINE",
"605 207 LINE",
"619 224 LINE",
"622 180 LINE",
"652 180 LINE",
"652 285 LINE",
"668 321 LINE",
"673 299 OFFCURVE",
"679 278 OFFCURVE",
"684 256 CURVE",
"673 208 LINE",
"714 139 LINE",
"745 154 LINE",
"720 209 LINE",
"726 230 LINE",
"746 191 LINE",
"773 203 LINE",
"731 300 LINE",
"734 374 OFFCURVE",
"731 416 OFFCURVE",
"705 505 CURVE",
"777 394 LINE",
"783 384 OFFCURVE",
"815 396 OFFCURVE",
"808 416 CURVE",
"767 474 LINE",
"817 447 LINE",
"842 437 OFFCURVE",
"849 471 OFFCURVE",
"832 478 CURVE SMOOTH",
"733 521 LINE",
"757 538 OFFCURVE",
"792 569 OFFCURVE",
"792 604 CURVE SMOOTH",
"792 632 OFFCURVE",
"783 669 OFFCURVE",
"734 669 CURVE SMOOTH",
"690 669 OFFCURVE",
"672 634 OFFCURVE",
"672 602 CURVE SMOOTH",
"672 587 OFFCURVE",
"676 574 OFFCURVE",
"681 563 CURVE",
"640 648 OFFCURVE",
"588 729 OFFCURVE",
"547 739 CURVE SMOOTH",
"522 745 OFFCURVE",
"502 746 OFFCURVE",
"480 745 CURVE",
"480 783 LINE",
"517 832 OFFCURVE",
"540 865 OFFCURVE",
"540 902 CURVE SMOOTH",
"540 963 OFFCURVE",
"477 1001 OFFCURVE",
"404 1001 CURVE SMOOTH",
"353 1001 OFFCURVE",
"327 980 OFFCURVE",
"317 942 CURVE",
"315 929 LINE",
"265 819 LINE",
"296 817 LINE",
"313 773 LINE",
"266 726 LINE",
"303 701 LINE",
"332 758 LINE",
"361 769 LINE",
"367 743 LINE",
"296 715 OFFCURVE",
"291 630 OFFCURVE",
"291 616 CURVE SMOOTH",
"291 588 OFFCURVE",
"309 464 OFFCURVE",
"323 378 CURVE",
"317 303 LINE",
"106 156 LINE",
"63 128 OFFCURVE",
"49 106 OFFCURVE",
"49 78 CURVE SMOOTH",
"49 29 OFFCURVE",
"88 0 OFFCURVE",
"136 0 CURVE SMOOTH"
);
},
{
closed = 1;
nodes = (
"468 31 LINE",
"492 44 LINE SMOOTH",
"502 49 OFFCURVE",
"505 65 OFFCURVE",
"497 82 CURVE SMOOTH",
"472 136 LINE",
"254 50 LINE SMOOTH",
"208 32 OFFCURVE",
"159 20 OFFCURVE",
"137 20 CURVE SMOOTH",
"101 20 OFFCURVE",
"67 42 OFFCURVE",
"67 77 CURVE SMOOTH",
"67 94 OFFCURVE",
"78 112 OFFCURVE",
"97 122 CURVE",
"142 63 LINE",
"260 128 OFFCURVE",
"391 159 OFFCURVE",
"522 160 CURVE",
"540 86 LINE SMOOTH",
"544 70 OFFCURVE",
"540 51 OFFCURVE",
"529 42 CURVE SMOOTH",
"520 35 OFFCURVE",
"492 23 OFFCURVE",
"474 16 CURVE"
);
},
{
closed = 1;
nodes = (
"112 135 LINE",
"327 287 LINE",
"485 322 LINE",
"485 178 LINE",
"369 170 OFFCURVE",
"246 141 OFFCURVE",
"146 86 CURVE"
);
},
{
closed = 1;
nodes = (
"578 222 LINE",
"605 257 LINE",
"617 313 OFFCURVE",
"631 376 OFFCURVE",
"643 434 CURVE",
"648 405 OFFCURVE",
"655 376 OFFCURVE",
"662 348 CURVE",
"655 327 OFFCURVE",
"646 307 OFFCURVE",
"638 287 CURVE",
"639 197 LINE",
"632 197 LINE",
"627 246 LINE",
"618 247 LINE",
"591 214 LINE",
"592 164 LINE",
"584 163 LINE"
);
},
{
closed = 1;
nodes = (
"689 212 LINE",
"700 255 LINE",
"688 320 OFFCURVE",
"673 402 OFFCURVE",
"657 453 CURVE",
"691 490 LINE",
"712 424 OFFCURVE",
"718 359 OFFCURVE",
"718 295 CURVE",
"755 213 LINE",
"749 210 LINE",
"725 254 LINE",
"715 251 LINE",
"704 210 LINE",
"725 164 LINE",
"718 161 LINE"
);
},
{
closed = 1;
nodes = (
"341 379 LINE",
"328 465 OFFCURVE",
"310 587 OFFCURVE",
"311 611 CURVE SMOOTH",
"312 634 OFFCURVE",
"322 718 OFFCURVE",
"389 729 CURVE",
"374 791 LINE",
"329 776 LINE",
"308 831 LINE",
"289 832 LINE",
"329 923 LINE",
"415 875 LINE",
"421 883 OFFCURVE",
"426 887 OFFCURVE",
"435 887 CURVE SMOOTH",
"446 887 OFFCURVE",
"446 877 OFFCURVE",
"446 873 CURVE SMOOTH",
"446 868 OFFCURVE",
"440 857 OFFCURVE",
"436 851 CURVE SMOOTH",
"413 820 LINE",
"462 779 LINE",
"462 726 LINE",
"479 729 OFFCURVE",
"515 731 OFFCURVE",
"544 722 CURVE SMOOTH",
"579 711 OFFCURVE",
"649 593 OFFCURVE",
"679 523 CURVE",
"667 514 OFFCURVE",
"649 500 OFFCURVE",
"637 488 CURVE",
"607 540 OFFCURVE",
"576 594 OFFCURVE",
"538 631 CURVE",
"491 451 LINE",
"487 341 LINE",
"335 309 LINE"
);
},
{
closed = 1;
nodes = (
"360 866 OFFCURVE",
"368 867 OFFCURVE",
"377 868 CURVE",
"368 882 OFFCURVE",
"360 888 OFFCURVE",
"345 888 CURVE SMOOTH",
"342 888 OFFCURVE",
"326 886 OFFCURVE",
"319 878 CURVE",
"328 871 OFFCURVE",
"338 866 OFFCURVE",
"354 866 CURVE SMOOTH"
);
},
{
closed = 1;
nodes = (
"435 825 LINE",
"449 843 LINE",
"455 851 OFFCURVE",
"464 866 OFFCURVE",
"464 875 CURVE SMOOTH",
"464 890 OFFCURVE",
"454 905 OFFCURVE",
"437 905 CURVE SMOOTH",
"427 905 OFFCURVE",
"419 900 OFFCURVE",
"413 895 CURVE",
"334 939 LINE",
"344 970 OFFCURVE",
"373 982 OFFCURVE",
"405 982 CURVE SMOOTH",
"448 982 OFFCURVE",
"521 958 OFFCURVE",
"521 906 CURVE SMOOTH",
"521 868 OFFCURVE",
"495 832 OFFCURVE",
"468 795 CURVE"
);
},
{
closed = 1;
nodes = (
"711 567 OFFCURVE",
"708 586 OFFCURVE",
"708 601 CURVE SMOOTH",
"708 616 OFFCURVE",
"714 631 OFFCURVE",
"731 631 CURVE SMOOTH",
"749 631 OFFCURVE",
"756 620 OFFCURVE",
"756 601 CURVE SMOOTH",
"756 583 OFFCURVE",
"732 557 OFFCURVE",
"719 548 CURVE"
);
}
);
width = 890;
}
);
unicode = 1300F;
},
{
glyphname = u13010;
lastChange = "2017-01-25 19:58:54 +0000";
layers = (
{
layerId = UUID0;
paths = (
{
closed = 1;
nodes = (
"1093 0 LINE",
"1143 28 LINE",
"1219 145 LINE",
"1207 176 LINE",
"1171 193 LINE",
"1166 198 OFFCURVE",
"1156 208 OFFCURVE",
"1145 218 CURVE",
"1174 215 OFFCURVE",
"1232 204 OFFCURVE",
"1239 200 CURVE",
"1246 194 OFFCURVE",
"1260 131 OFFCURVE",
"1269 85 CURVE",
"1313 85 LINE",
"1322 245 LINE",
"1288 279 LINE",
"1253 280 LINE",
"1220 292 OFFCURVE",
"1164 311 OFFCURVE",
"1130 320 CURVE SMOOTH",
"1094 329 OFFCURVE",
"999 345 OFFCURVE",
"955 348 CURVE",
"944 354 OFFCURVE",
"950 351 OFFCURVE",
"940 355 CURVE",
"1005 450 OFFCURVE",
"1091 595 OFFCURVE",
"1091 648 CURVE SMOOTH",
"1091 710 OFFCURVE",
"1063 750 OFFCURVE",
"997 762 CURVE SMOOTH",
"943 772 OFFCURVE",
"833 771 OFFCURVE",
"791 780 CURVE SMOOTH",
"725 794 OFFCURVE",
"643 839 OFFCURVE",
"593 855 CURVE SMOOTH",
"540 869 OFFCURVE",
"497 866 OFFCURVE",
"472 850 CURVE SMOOTH",
"442 831 LINE",
"406 841 LINE",
"370 890 OFFCURVE",
"344 922 OFFCURVE",
"309 933 CURVE SMOOTH",
"251 951 OFFCURVE",
"196 901 OFFCURVE",
"175 831 CURVE SMOOTH",
"174 827 OFFCURVE",
"172 824 OFFCURVE",
"172 820 CURVE",
"158 815 OFFCURVE",
"139 807 OFFCURVE",
"123 788 CURVE SMOOTH",
"101 761 OFFCURVE",
"101 714 OFFCURVE",
"101 696 CURVE SMOOTH",
"101 597 LINE",
"65 591 LINE",
"64 572 LINE",
"56 571 LINE",
"49 558 LINE",
"56 512 LINE",
"64 501 LINE",
"97 482 LINE",
"101 481 LINE",
"101 437 LINE",
"71 430 LINE",
"71 413 LINE",
"59 400 LINE",
"70 350 LINE",
"80 340 LINE",
"101 331 LINE",
"101 241 LINE",
"125 241 LINE",
"125 325 LINE",
"154 325 LINE",
"167 340 LINE",
"188 340 LINE",
"208 330 LINE",
"296 337 OFFCURVE",
"429 350 OFFCURVE",
"474 359 CURVE SMOOTH",
"531 370 OFFCURVE",
"535 593 OFFCURVE",
"534 613 CURVE",
"551 610 OFFCURVE",
"694 589 OFFCURVE",
"738 585 CURVE SMOOTH",
"797 580 OFFCURVE",
"836 582 OFFCURVE",
"890 585 CURVE",
"876 563 OFFCURVE",
"791 415 OFFCURVE",
"794 358 CURVE SMOOTH",
"797 309 OFFCURVE",
"851 271 OFFCURVE",
"891 253 CURVE SMOOTH",
"913 243 OFFCURVE",
"1063 158 OFFCURVE",
"1101 137 CURVE",
"1093 76 LINE",
"1071 52 LINE",
"1020 41 LINE",
"1024 0 LINE"
);
},
{
closed = 1;
nodes = (
"75 513 LINE",
"68 520 LINE",
"63 558 LINE",
"121 559 LINE",
"140 544 LINE",
"144 504 LINE",
"129 494 LINE",
"106 494 LINE"
);
},
{
closed = 1;
nodes = (
"75 581 LINE",
"101 582 LINE",
"101 571 LINE",
"76 570 LINE"
);
},
{
closed = 1;
nodes = (
"174 435 LINE",
"136 445 LINE",
"125 442 LINE",
"125 479 LINE",
"136 478 LINE",
"155 497 LINE",
"167 495 LINE",
"190 481 LINE",
"338 422 LINE",
"302 419 OFFCURVE",
"247 414 OFFCURVE",
"216 411 CURVE"
);
},
{
closed = 1;
nodes = (
"378 426 OFFCURVE",
"377 426 OFFCURVE",
"192 499 CURVE",
"175 511 LINE",
"158 509 LINE",
"156 548 LINE",
"129 571 LINE",
"125 571 LINE",
"125 583 LINE",
"131 583 LINE",
"159 573 LINE",
"201 540 LINE",
"424 464 LINE",
"421 448 OFFCURVE",
"408 429 OFFCURVE",
"379 426 CURVE"
);
},
{
closed = 1;
nodes = (
"394 493 OFFCURVE",
"280 531 OFFCURVE",
"203 557 CURVE",
"168 585 LINE",
"125 599 LINE",
"125 691 LINE SMOOTH",
"125 729 OFFCURVE",
"128 752 OFFCURVE",
"138 767 CURVE SMOOTH",
"145 778 OFFCURVE",
"159 787 OFFCURVE",
"168 792 CURVE",
"169 764 OFFCURVE",
"183 745 OFFCURVE",
"206 730 CURVE",
"218 725 LINE",
"310 646 LINE",
"320 675 LINE",
"387 680 LINE",
"385 723 LINE",
"424 720 LINE",
"423 706 OFFCURVE",
"422 681 OFFCURVE",
"421 665 CURVE SMOOTH",
"419 623 OFFCURVE",
"421 555 OFFCURVE",
"424 483 CURVE"
);
},
{
closed = 1;
nodes = (
"278 721 OFFCURVE",
"285 729 OFFCURVE",
"290 744 CURVE SMOOTH",
"292 750 OFFCURVE",
"293 757 OFFCURVE",
"294 767 CURVE",
"278 762 OFFCURVE",
"272 756 OFFCURVE",
"267 742 CURVE SMOOTH",
"266 739 OFFCURVE",
"262 723 OFFCURVE",
"268 714 CURVE"
);
},
{
closed = 1;
nodes = (
"1040 30 LINE",
"1075 37 LINE",
"1106 63 LINE",
"1123 146 LINE",
"1034 195 OFFCURVE",
"911 263 OFFCURVE",
"893 272 CURVE SMOOTH",
"869 285 OFFCURVE",
"816 312 OFFCURVE",
"813 358 CURVE SMOOTH",
"810 402 OFFCURVE",
"874 523 OFFCURVE",
"923 602 CURVE",
"849 599 OFFCURVE",
"790 598 OFFCURVE",
"746 602 CURVE SMOOTH",
"694 606 OFFCURVE",
"584 622 OFFCURVE",
"516 633 CURVE",
"513 621 LINE",
"514 554 OFFCURVE",
"508 390 OFFCURVE",
"469 377 CURVE SMOOTH",
"438 367 OFFCURVE",
"301 354 OFFCURVE",
"206 347 CURVE",
"184 356 LINE",
"157 355 LINE",
"146 342 LINE",
"121 342 LINE",
"92 356 LINE",
"86 361 LINE",
"78 396 LINE",
"88 409 LINE",
"88 417 LINE",
"136 427 LINE",
"164 418 LINE",
"212 394 LINE",
"276 400 OFFCURVE",
"366 409 OFFCURVE",
"381 410 CURVE SMOOTH",
"417 414 OFFCURVE",
"442 437 OFFCURVE",
"441 465 CURVE SMOOTH",
"438 550 OFFCURVE",
"437 637 OFFCURVE",
"437 659 CURVE SMOOTH",
"437 674 OFFCURVE",
"440 712 OFFCURVE",
"443 737 CURVE",
"368 741 LINE",
"369 694 LINE",
"310 690 LINE",
"304 672 LINE",
"228 737 LINE",
"299 805 LINE",
"293 813 OFFCURVE",
"290 819 OFFCURVE",
"293 828 CURVE SMOOTH",
"296 838 OFFCURVE",
"306 836 OFFCURVE",
"310 834 CURVE SMOOTH",
"314 832 OFFCURVE",
"323 824 OFFCURVE",
"328 818 CURVE SMOOTH",
"351 788 LINE",
"404 822 LINE",
"449 809 LINE",
"479 832 LINE SMOOTH",
"508 854 OFFCURVE",
"555 848 OFFCURVE",
"589 839 CURVE SMOOTH",
"612 833 OFFCURVE",
"726 775 OFFCURVE",
"788 765 CURVE SMOOTH",
"868 752 OFFCURVE",
"939 751 OFFCURVE",
"994 743 CURVE SMOOTH",
"1049 735 OFFCURVE",
"1071 699 OFFCURVE",
"1071 648 CURVE SMOOTH",
"1071 601 OFFCURVE",
"981 449 OFFCURVE",
"913 348 CURVE",
"959 330 OFFCURVE",
"1026 289 OFFCURVE",
"1068 258 CURVE SMOOTH",
"1087 244 OFFCURVE",
"1136 201 OFFCURVE",
"1168 173 CURVE",
"1189 165 LINE",
"1197 144 LINE",
"1172 105 OFFCURVE",
"1136 50 OFFCURVE",
"1130 42 CURVE",
"1088 18 LINE",
"1042 18 LINE"
);
},
{
closed = 1;
nodes = (
"188 765 OFFCURVE",
"184 795 OFFCURVE",
"193 827 CURVE SMOOTH",
"205 868 OFFCURVE",
"250 931 OFFCURVE",
"299 916 CURVE SMOOTH",
"336 905 OFFCURVE",
"363 870 OFFCURVE",
"390 833 CURVE",
"352 810 LINE",
"339 828 LINE",
"333 836 OFFCURVE",
"321 850 OFFCURVE",
"313 852 CURVE SMOOTH",
"299 856 OFFCURVE",
"280 851 OFFCURVE",
"276 834 CURVE SMOOTH",
"274 826 OFFCURVE",
"276 817 OFFCURVE",
"279 809 CURVE",
"214 747 LINE"
);
},
{
closed = 1;
nodes = (
"1272 148 OFFCURVE",
"1257 209 OFFCURVE",
"1250 214 CURVE SMOOTH",
"1240 221 OFFCURVE",
"1158 234 OFFCURVE",
"1123 236 CURVE",
"1106 251 OFFCURVE",
"1088 266 OFFCURVE",
"1077 274 CURVE SMOOTH",
"1057 289 OFFCURVE",
"1016 313 OFFCURVE",
"991 328 CURVE",
"1029 323 OFFCURVE",
"1097 310 OFFCURVE",
"1124 304 CURVE SMOOTH",
"1158 297 OFFCURVE",
"1216 275 OFFCURVE",
"1251 261 CURVE",
"1282 259 LINE",
"1304 238 LINE",
"1297 103 LINE",
"1281 103 LINE"
);
}
);
width = 1371;
}
);
unicode = 13010;
},
{
glyphname = u13011;
lastChange = "2017-01-25 19:58:54 +0000";
layers = (
{
layerId = UUID0;
paths = (
{
closed = 1;
nodes = (
"280 0 LINE",
"289 66 LINE",
"292 70 OFFCURVE",
"296 78 OFFCURVE",
"301 86 CURVE",
"301 83 OFFCURVE",
"301 81 OFFCURVE",
"301 78 CURVE SMOOTH",
"301 29 OFFCURVE",
"340 0 OFFCURVE",
"388 0 CURVE SMOOTH",
"409 0 OFFCURVE",
"452 8 OFFCURVE",
"506 29 CURVE SMOOTH",
"717 112 LINE",
"732 78 LINE SMOOTH",
"737 68 OFFCURVE",
"741 61 OFFCURVE",
"730 54 CURVE",
"701 39 LINE",
"715 0 LINE",
"733 0 OFFCURVE",
"774 17 OFFCURVE",
"789 27 CURVE SMOOTH",
"805 38 OFFCURVE",
"815 60 OFFCURVE",
"809 86 CURVE",
"789 179 LINE",
"755 179 LINE",
"755 337 LINE",
"757 353 OFFCURVE",
"762 372 OFFCURVE",
"768 394 CURVE",
"771 394 LINE",
"817 373 OFFCURVE",
"846 331 OFFCURVE",
"849 309 CURVE",
"887 324 LINE",
"883 351 OFFCURVE",
"867 373 OFFCURVE",
"843 389 CURVE",
"866 390 OFFCURVE",
"885 418 OFFCURVE",
"885 441 CURVE SMOOTH",
"885 469 OFFCURVE",
"855 489 OFFCURVE",
"828 489 CURVE SMOOTH",
"814 489 OFFCURVE",
"802 484 OFFCURVE",
"792 476 CURVE",
"810 539 OFFCURVE",
"828 602 OFFCURVE",
"828 635 CURVE SMOOTH",
"828 664 OFFCURVE",
"823 727 OFFCURVE",
"762 739 CURVE SMOOTH",
"732 745 LINE",
"732 783 LINE",
"769 832 OFFCURVE",
"792 865 OFFCURVE",
"792 902 CURVE SMOOTH",
"792 963 OFFCURVE",
"729 1001 OFFCURVE",
"656 1001 CURVE SMOOTH",
"604 1001 OFFCURVE",
"579 980 OFFCURVE",
"569 942 CURVE",
"567 929 LINE",
"561 916 LINE",
"519 951 OFFCURVE",
"456 1004 OFFCURVE",
"420 1035 CURVE",
"231 804 LINE",
"208 816 LINE",
"196 802 LINE",
"190 806 LINE",
"179 801 LINE",
"160 769 LINE",
"159 758 LINE",
"169 729 LINE",
"148 702 LINE",
"127 711 LINE",
"104 697 LINE",
"86 661 LINE",
"88 650 LINE",
"95 636 LINE",
"49 581 LINE",
"66 565 LINE",
"108 617 LINE",
"120 601 LINE",
"135 603 LINE",
"148 593 LINE",
"155 576 LINE",
"214 536 OFFCURVE",
"304 477 OFFCURVE",
"335 460 CURVE SMOOTH",
"377 438 OFFCURVE",
"510 580 OFFCURVE",
"524 598 CURVE",
"575 378 LINE",
"569 306 LINE",
"530 357 OFFCURVE",
"445 412 OFFCURVE",
"370 412 CURVE SMOOTH",
"357 412 OFFCURVE",
"327 404 OFFCURVE",
"319 396 CURVE SMOOTH",
"305 382 OFFCURVE",
"295 362 OFFCURVE",
"287 331 CURVE SMOOTH",
"280 304 OFFCURVE",
"249 181 OFFCURVE",
"227 96 CURVE",
"207 68 LINE",
"169 57 LINE",
"88 45 LINE",
"88 0 LINE"
);
},
{
closed = 1;
nodes = (
"107 33 LINE",
"176 42 LINE",
"218 54 LINE",
"243 88 LINE",
"265 174 OFFCURVE",
"297 298 OFFCURVE",
"304 321 CURVE SMOOTH",
"311 347 OFFCURVE",
"317 367 OFFCURVE",
"330 377 CURVE SMOOTH",
"336 382 OFFCURVE",
"360 393 OFFCURVE",
"370 393 CURVE SMOOTH",
"442 393 OFFCURVE",
"514 340 OFFCURVE",
"555 293 CURVE",
"465 230 LINE",
"450 251 OFFCURVE",
"403 312 OFFCURVE",
"373 320 CURVE",
"362 315 LINE",
"360 280 OFFCURVE",
"350 245 OFFCURVE",
"336 206 CURVE SMOOTH",
"324 173 OFFCURVE",
"293 100 OFFCURVE",
"270 66 CURVE",
"268 52 OFFCURVE",
"264 29 OFFCURVE",
"263 19 CURVE",
"107 19 LINE"
);
},
{
closed = 1;
nodes = (
"335 156 OFFCURVE",
"348 186 OFFCURVE",
"354 199 CURVE SMOOTH",
"367 227 OFFCURVE",
"377 257 OFFCURVE",
"378 292 CURVE",
"401 279 OFFCURVE",
"435 237 OFFCURVE",
"449 219 CURVE",
"358 156 LINE",
"342 146 OFFCURVE",
"331 136 OFFCURVE",
"322 127 CURVE"
);
},
{
closed = 1;
nodes = (
"720 31 LINE",
"744 44 LINE SMOOTH",
"754 49 OFFCURVE",
"757 65 OFFCURVE",
"749 82 CURVE SMOOTH",
"724 136 LINE",
"506 50 LINE SMOOTH",
"460 32 OFFCURVE",
"411 20 OFFCURVE",
"389 20 CURVE SMOOTH",
"353 20 OFFCURVE",
"319 42 OFFCURVE",
"319 77 CURVE SMOOTH",
"319 94 OFFCURVE",
"330 112 OFFCURVE",
"349 122 CURVE",
"394 63 LINE",
"512 128 OFFCURVE",
"643 159 OFFCURVE",
"774 160 CURVE",
"792 86 LINE SMOOTH",
"796 70 OFFCURVE",
"792 51 OFFCURVE",
"781 42 CURVE SMOOTH",
"772 35 OFFCURVE",
"744 23 OFFCURVE",
"726 16 CURVE"
);
},
{
closed = 1;
nodes = (
"364 135 LINE",
"579 287 LINE",
"737 322 LINE",
"737 178 LINE",
"621 170 OFFCURVE",
"498 141 OFFCURVE",
"398 86 CURVE"
);
},
{
closed = 1;
nodes = (
"265 592 OFFCURVE",
"229 613 OFFCURVE",
"208 625 CURVE",
"194 661 LINE",
"175 687 LINE",
"168 690 LINE",
"187 713 LINE",
"192 709 LINE",
"214 709 LINE",
"221 702 LINE",
"228 681 LINE",
"289 576 LINE"
);
},
{
closed = 1;
nodes = (
"181 732 LINE",
"171 759 LINE",
"171 767 LINE",
"188 794 LINE",
"224 765 LINE",
"228 745 LINE",
"211 720 LINE",
"197 720 LINE"
);
},
{
closed = 1;
nodes = (
"314 566 OFFCURVE",
"308 572 OFFCURVE",
"239 693 CURVE",
"235 710 LINE",
"224 718 LINE",
"240 740 LINE",
"234 772 LINE",
"240 779 LINE",
"256 755 LINE",
"265 714 LINE",
"370 570 LINE",
"359 556 OFFCURVE",
"342 550 OFFCURVE",
"318 560 CURVE"
);
},
{
closed = 1;
nodes = (
"202 795 LINE",
"209 805 LINE",
"224 795 LINE",
"216 785 LINE"
);
},
{
closed = 1;
nodes = (
"590 350 LINE",
"750 389 LINE",
"745 370 OFFCURVE",
"741 353 OFFCURVE",
"739 341 CURVE",
"587 309 LINE"
);
},
{
closed = 1;
nodes = (
"536 638 LINE",
"494 585 OFFCURVE",
"373 466 OFFCURVE",
"341 479 CURVE SMOOTH",
"318 488 OFFCURVE",
"227 549 OFFCURVE",
"165 592 CURVE",
"155 610 LINE",
"138 623 LINE",
"124 616 LINE",
"115 630 LINE",
"103 654 LINE",
"103 660 LINE",
"115 686 LINE",
"131 694 LINE",
"166 676 LINE",
"179 656 LINE",
"195 613 LINE",
"296 554 LINE SMOOTH",
"348 523 OFFCURVE",
"371 538 OFFCURVE",
"411 589 CURVE SMOOTH",
"471 664 LINE SMOOTH",
"486 683 OFFCURVE",
"512 702 OFFCURVE",
"564 713 CURVE SMOOTH",
"641 729 LINE",
"625 791 LINE",
"581 776 LINE",
"560 831 LINE",
"541 832 LINE",
"581 923 LINE",
"667 875 LINE",
"673 883 OFFCURVE",
"678 887 OFFCURVE",
"687 887 CURVE SMOOTH",
"698 887 OFFCURVE",
"698 877 OFFCURVE",
"698 873 CURVE SMOOTH",
"698 868 OFFCURVE",
"692 857 OFFCURVE",
"688 851 CURVE SMOOTH",
"665 820 LINE",
"714 779 LINE",
"714 728 LINE",
"751 723 LINE SMOOTH",
"796 717 OFFCURVE",
"808 657 OFFCURVE",
"808 635 CURVE SMOOTH",
"808 607 OFFCURVE",
"782 508 OFFCURVE",
"761 428 CURVE",
"729 419 OFFCURVE",
"619 391 OFFCURVE",
"591 386 CURVE"
);
},
{
closed = 1;
nodes = (
"276 725 LINE",
"269 760 LINE",
"250 791 LINE",
"356 921 LINE",
"417 909 OFFCURVE",
"479 892 OFFCURVE",
"541 871 CURVE",
"517 819 LINE",
"548 817 LINE",
"572 754 LINE",
"613 769 LINE",
"619 743 LINE",
"565 730 LINE SMOOTH",
"521 719 OFFCURVE",
"482 704 OFFCURVE",
"462 679 CURVE SMOOTH",
"384 582 LINE"
);
},
{
closed = 1;
nodes = (
"807 443 OFFCURVE",
"817 455 OFFCURVE",
"828 453 CURVE SMOOTH",
"835 452 OFFCURVE",
"845 446 OFFCURVE",
"845 437 CURVE SMOOTH",
"845 411 OFFCURVE",
"813 418 OFFCURVE",
"794 426 CURVE"
);
},
{
closed = 1;
nodes = (
"490 911 OFFCURVE",
"432 926 OFFCURVE",
"370 937 CURVE",
"422 1001 LINE",
"422 1002 LINE",
"458 974 OFFCURVE",
"518 927 OFFCURVE",
"553 899 CURVE",
"548 889 LINE"
);
},
{
closed = 1;
nodes = (
"612 866 OFFCURVE",
"620 867 OFFCURVE",
"629 868 CURVE",
"620 882 OFFCURVE",
"612 888 OFFCURVE",
"597 888 CURVE SMOOTH",
"594 888 OFFCURVE",
"578 886 OFFCURVE",
"571 878 CURVE",
"580 871 OFFCURVE",
"590 866 OFFCURVE",
"605 866 CURVE SMOOTH"
);
},
{
closed = 1;
nodes = (
"687 825 LINE",
"701 843 LINE",
"707 851 OFFCURVE",
"716 866 OFFCURVE",
"716 875 CURVE SMOOTH",
"716 890 OFFCURVE",
"706 905 OFFCURVE",
"688 905 CURVE SMOOTH",
"679 905 OFFCURVE",
"671 900 OFFCURVE",
"665 895 CURVE",
"586 939 LINE",
"596 970 OFFCURVE",
"625 982 OFFCURVE",
"657 982 CURVE SMOOTH",
"700 982 OFFCURVE",
"773 958 OFFCURVE",
"773 906 CURVE SMOOTH",
"773 868 OFFCURVE",
"747 832 OFFCURVE",
"720 795 CURVE"
);
}
);
width = 936;
}
);
unicode = 13011;
},
{
glyphname = u13012;
lastChange = "2017-01-25 19:58:54 +0000";
layers = (
{
layerId = UUID0;
paths = (
{
closed = 1;
nodes = (
"107 48 LINE",
"132 57 LINE",
"114 18 LINE",
"135 1 LINE",
"360 224 LINE",
"436 346 LINE",
"410 242 LINE",
"338 128 LINE",
"297 106 LINE",
"268 76 LINE",
"249 6 LINE",
"277 0 LINE",
"298 49 LINE",
"321 63 LINE",
"313 24 LINE",
"339 15 LINE",
"501 248 LINE",
"535 387 LINE",
"632 397 LINE",
"886 315 LINE",
"886 332 LINE",
"932 315 LINE",
"982 319 LINE",
"1124 294 LINE SMOOTH",
"1146 290 OFFCURVE",
"1167 284 OFFCURVE",
"1172 259 CURVE SMOOTH",
"1186 192 LINE",
"1237 192 LINE",
"1237 341 LINE",
"886 428 LINE",
"886 465 LINE",
"1131 522 LINE SMOOTH",
"1135 523 OFFCURVE",
"1140 524 OFFCURVE",
"1144 524 CURVE SMOOTH",
"1158 524 OFFCURVE",
"1168 517 OFFCURVE",
"1172 497 CURVE SMOOTH",
"1186 431 LINE",
"1237 431 LINE",
"1237 599 LINE",
"886 567 LINE",
"886 592 LINE",
"614 544 LINE",
"583 555 OFFCURVE",
"479 582 OFFCURVE",
"422 582 CURVE SMOOTH",
"377 582 OFFCURVE",
"336 544 OFFCURVE",
"333 543 CURVE SMOOTH",
"314 537 LINE",
"276 578 LINE SMOOTH",
"257 598 OFFCURVE",
"238 612 OFFCURVE",
"216 619 CURVE SMOOTH",
"157 638 OFFCURVE",
"103 596 OFFCURVE",
"86 538 CURVE SMOOTH",
"74 498 OFFCURVE",
"85 467 OFFCURVE",
"118 448 CURVE",
"131 442 LINE",
"224 370 LINE",
"227 379 OFFCURVE",
"230 388 OFFCURVE",
"233 396 CURVE",
"292 393 LINE",
"308 432 LINE",
"352 438 LINE",
"348 396 LINE SMOOTH",
"347 378 OFFCURVE",
"304 296 OFFCURVE",
"273 240 CURVE",
"166 124 LINE",
"122 111 LINE",
"86 84 LINE",
"49 13 LINE",
"74 0 LINE"
);
},
{
closed = 1;
nodes = (
"265 17 LINE",
"279 70 LINE",
"306 96 LINE",
"355 122 LINE",
"390 176 OFFCURVE",
"395 185 OFFCURVE",
"429 238 CURVE",
"462 378 LINE",
"516 385 LINE",
"485 255 LINE",
"333 34 LINE",
"328 35 LINE",
"338 80 LINE",
"331 84 LINE",
"292 63 LINE",
"272 16 LINE"
);
},
{
closed = 1;
nodes = (
"66 21 LINE",
"95 75 LINE",
"127 97 LINE",
"181 114 LINE",
"229 163 OFFCURVE",
"243 182 OFFCURVE",
"290 230 CURVE",
"366 380 LINE",
"373 460 LINE",
"296 450 LINE",
"279 409 LINE",
"221 412 LINE",
"220 407 OFFCURVE",
"217 403 OFFCURVE",
"215 398 CURVE",
"144 453 LINE",
"213 509 LINE",
"206 517 OFFCURVE",
"204 522 OFFCURVE",
"206 529 CURVE SMOOTH",
"208 536 OFFCURVE",
"216 534 OFFCURVE",
"219 533 CURVE SMOOTH",
"224 531 OFFCURVE",
"231 524 OFFCURVE",
"236 519 CURVE",
"261 491 LINE",
"312 518 LINE",
"350 524 LINE",
"364 540 OFFCURVE",
"394 561 OFFCURVE",
"423 561 CURVE SMOOTH",
"459 561 OFFCURVE",
"556 540 OFFCURVE",
"596 529 CURVE",
"627 415 LINE",
"440 390 LINE",
"347 236 LINE",
"136 23 LINE",
"131 26 LINE",
"152 72 LINE",
"147 79 LINE",
"105 64 LINE",
"73 19 LINE"
);
},
{
closed = 1;
nodes = (
"194 439 OFFCURVE",
"203 447 OFFCURVE",
"207 461 CURVE SMOOTH",
"209 468 OFFCURVE",
"210 475 OFFCURVE",
"211 484 CURVE",
"193 480 OFFCURVE",
"186 475 OFFCURVE",
"181 461 CURVE SMOOTH",
"180 458 OFFCURVE",
"176 442 OFFCURVE",
"184 434 CURVE"
);
},
{
closed = 1;
nodes = (
"102 480 OFFCURVE",
"102 509 OFFCURVE",
"109 533 CURVE SMOOTH",
"119 566 OFFCURVE",
"159 616 OFFCURVE",
"206 602 CURVE SMOOTH",
"232 594 OFFCURVE",
"247 581 OFFCURVE",
"261 567 CURVE SMOOTH",
"296 530 LINE",
"262 513 LINE",
"251 526 LINE SMOOTH",
"245 533 OFFCURVE",
"230 547 OFFCURVE",
"223 550 CURVE SMOOTH",
"209 556 OFFCURVE",
"190 550 OFFCURVE",
"186 536 CURVE SMOOTH",
"184 529 OFFCURVE",
"186 522 OFFCURVE",
"189 515 CURVE",
"126 464 LINE"
);
},
{
closed = 1;
nodes = (
"650 412 LINE",
"620 525 LINE",
"864 569 LINE",
"864 348 LINE"
);
},
{
closed = 1;
nodes = (
"1189 261 LINE SMOOTH",
"1184 284 OFFCURVE",
"1169 302 OFFCURVE",
"1131 309 CURVE SMOOTH",
"985 335 LINE",
"936 333 LINE",
"886 350 LINE",
"886 410 LINE",
"1216 330 LINE",
"1216 211 LINE",
"1200 211 LINE"
);
},
{
closed = 1;
nodes = (
"1189 499 LINE SMOOTH",
"1183 527 OFFCURVE",
"1172 543 OFFCURVE",
"1146 543 CURVE SMOOTH",
"1141 543 OFFCURVE",
"1136 543 OFFCURVE",
"1129 541 CURVE SMOOTH",
"886 485 LINE",
"886 547 LINE",
"1216 580 LINE",
"1216 449 LINE",
"1200 449 LINE"
);
}
);
width = 1286;
}
);
unicode = 13012;
},
{
glyphname = u13013;
lastChange = "2017-01-25 19:58:54 +0000";
layers = (
{
layerId = UUID0;
paths = (
{
closed = 1;
nodes = (
"434 0 LINE",
"545 351 LINE",
"649 351 LINE",
"654 315 LINE",
"714 106 LINE SMOOTH",
"715 102 OFFCURVE",
"715 98 OFFCURVE",
"715 94 CURVE SMOOTH",
"715 79 OFFCURVE",
"699 69 OFFCURVE",
"680 65 CURVE SMOOTH",
"613 52 LINE",
"613 0 LINE",
"779 0 LINE",
"796 110 OFFCURVE",
"772 265 OFFCURVE",
"750 351 CURVE",
"749 391 OFFCURVE",
"748 409 OFFCURVE",
"751 439 CURVE SMOOTH",
"754 471 OFFCURVE",
"768 501 OFFCURVE",
"768 523 CURVE SMOOTH",
"768 577 OFFCURVE",
"742 612 OFFCURVE",
"684 637 CURVE",
"663 663 OFFCURVE",
"509 799 OFFCURVE",
"459 829 CURVE SMOOTH",
"439 841 OFFCURVE",
"414 844 OFFCURVE",
"395 844 CURVE SMOOTH",
"383 844 OFFCURVE",
"374 841 OFFCURVE",
"366 839 CURVE",
"344 847 LINE",
"333 902 LINE",
"319 970 OFFCURVE",
"280 1001 OFFCURVE",
"233 1001 CURVE SMOOTH",
"182 1001 OFFCURVE",
"121 958 OFFCURVE",
"121 911 CURVE SMOOTH",
"121 899 OFFCURVE",
"124 888 OFFCURVE",
"131 875 CURVE",
"139 864 LINE",
"180 754 LINE",
"187 759 OFFCURVE",
"194 765 OFFCURVE",
"200 771 CURVE",
"249 737 LINE",
"284 762 LINE",
"323 743 LINE",
"313 734 OFFCURVE",
"288 710 OFFCURVE",
"280 691 CURVE SMOOTH",
"273 673 OFFCURVE",
"256 584 OFFCURVE",
"245 522 CURVE",
"153 419 LINE",
"102 404 LINE",
"72 375 LINE",
"49 306 LINE",
"78 299 LINE",
"102 347 LINE",
"124 359 LINE",
"114 321 LINE",
"136 313 LINE",
"309 489 LINE",
"266 408 LINE",
"229 381 LINE",
"205 346 LINE",
"196 273 LINE",
"224 272 LINE",
"238 324 LINE",
"258 340 LINE",
"256 302 LINE",
"282 296 LINE",
"388 482 LINE",
"403 626 LINE",
"549 560 LINE",
"423 351 LINE",
"439 351 LINE",
"422 305 LINE",
"426 255 LINE",
"387 113 LINE",
"383 91 OFFCURVE",
"376 70 OFFCURVE",
"352 65 CURVE SMOOTH",
"285 52 LINE",
"285 0 LINE"
);
},
{
closed = 1;
nodes = (
"304 38 LINE",
"354 48 LINE SMOOTH",
"376 52 OFFCURVE",
"395 68 OFFCURVE",
"402 106 CURVE",
"442 252 LINE",
"440 302 LINE",
"458 351 LINE",
"527 351 LINE",
"422 21 LINE",
"304 21 LINE"
);
},
{
closed = 1;
nodes = (
"632 38 LINE",
"682 48 LINE SMOOTH",
"709 53 OFFCURVE",
"734 65 OFFCURVE",
"734 91 CURVE SMOOTH",
"734 97 OFFCURVE",
"734 102 OFFCURVE",
"732 108 CURVE SMOOTH",
"673 316 LINE",
"668 351 LINE",
"730 351 LINE",
"753 267 OFFCURVE",
"777 120 OFFCURVE",
"762 21 CURVE",
"632 21 LINE"
);
},
{
closed = 1;
nodes = (
"217 342 LINE",
"241 371 LINE",
"284 405 LINE",
"323 477 LINE",
"335 651 LINE",
"316 652 LINE",
"306 511 LINE",
"135 330 LINE",
"130 331 LINE",
"142 375 LINE",
"135 380 LINE",
"96 359 LINE",
"74 315 LINE",
"65 316 LINE",
"83 368 LINE",
"111 393 LINE",
"170 413 LINE",
"265 517 LINE",
"274 577 OFFCURVE",
"288 663 OFFCURVE",
"297 680 CURVE SMOOTH",
"307 699 OFFCURVE",
"334 728 OFFCURVE",
"351 745 CURVE",
"283 783 LINE",
"247 757 LINE",
"199 790 LINE",
"195 787 OFFCURVE",
"190 785 OFFCURVE",
"187 782 CURVE",
"155 866 LINE",
"243 878 LINE",
"243 881 OFFCURVE",
"243 884 OFFCURVE",
"243 886 CURVE SMOOTH",
"243 893 OFFCURVE",
"246 900 OFFCURVE",
"252 900 CURVE SMOOTH",
"262 900 OFFCURVE",
"268 885 OFFCURVE",
"269 874 CURVE SMOOTH",
"274 837 LINE",
"333 833 LINE",
"368 819 LINE",
"374 821 OFFCURVE",
"387 823 OFFCURVE",
"401 823 CURVE SMOOTH",
"416 823 OFFCURVE",
"435 820 OFFCURVE",
"449 811 CURVE SMOOTH",
"476 793 OFFCURVE",
"609 683 OFFCURVE",
"659 637 CURVE",
"564 575 LINE",
"385 654 LINE",
"371 487 LINE",
"275 314 LINE",
"269 314 LINE",
"272 360 LINE",
"265 364 LINE",
"230 336 LINE",
"217 287 LINE",
"209 287 LINE"
);
},
{
closed = 1;
nodes = (
"200 829 OFFCURVE",
"212 836 OFFCURVE",
"228 857 CURVE",
"221 860 OFFCURVE",
"215 862 OFFCURVE",
"209 862 CURVE SMOOTH",
"203 862 OFFCURVE",
"178 854 OFFCURVE",
"178 831 CURVE SMOOTH",
"178 828 OFFCURVE",
"182 829 OFFCURVE",
"184 829 CURVE SMOOTH"
);
},
{
closed = 1;
nodes = (
"570 555 LINE",
"673 624 LINE",
"685 619 OFFCURVE",
"749 595 OFFCURVE",
"749 522 CURVE SMOOTH",
"749 500 OFFCURVE",
"735 466 OFFCURVE",
"731 439 CURVE SMOOTH",
"727 414 OFFCURVE",
"728 392 OFFCURVE",
"729 371 CURVE",
"457 371 LINE"
);
},
{
closed = 1;
nodes = (
"287 855 LINE",
"285 872 LINE SMOOTH",
"282 900 OFFCURVE",
"269 919 OFFCURVE",
"248 919 CURVE SMOOTH",
"233 919 OFFCURVE",
"228 907 OFFCURVE",
"227 895 CURVE",
"146 885 LINE",
"143 892 OFFCURVE",
"142 898 OFFCURVE",
"142 905 CURVE SMOOTH",
"142 941 OFFCURVE",
"187 979 OFFCURVE",
"239 979 CURVE SMOOTH",
"286 979 OFFCURVE",
"309 930 OFFCURVE",
"315 902 CURVE SMOOTH",
"325 851 LINE"
);
}
);
width = 834;
}
);
unicode = 13013;
},
{
glyphname = u13014;
lastChange = "2017-01-25 19:58:54 +0000";
layers = (
{
layerId = UUID0;
paths = (
{
closed = 1;
nodes = (
"496 46 LINE",
"478 156 OFFCURVE",
"431 260 OFFCURVE",
"412 295 CURVE",
"453 301 OFFCURVE",
"552 305 OFFCURVE",
"586 308 CURVE SMOOTH",
"626 312 OFFCURVE",
"638 347 OFFCURVE",
"638 374 CURVE SMOOTH",
"638 375 OFFCURVE",
"623 459 OFFCURVE",
"622 467 CURVE",
"625 539 LINE",
"661 664 LINE",
"708 519 LINE",
"697 372 LINE",
"685 311 LINE",
"710 305 LINE",
"727 334 LINE",
"734 314 LINE",
"719 272 LINE",
"743 265 LINE",
"771 319 LINE",
"771 352 LINE",
"757 378 LINE",
"784 521 LINE",
"729 713 LINE SMOOTH",
"725 729 OFFCURVE",
"716 755 OFFCURVE",
"688 763 CURVE SMOOTH",
"614 783 LINE",
"615 803 LINE",
"662 841 OFFCURVE",
"689 866 OFFCURVE",
"689 906 CURVE SMOOTH",
"689 953 OFFCURVE",
"633 1001 OFFCURVE",
"568 1001 CURVE SMOOTH",
"542 1001 OFFCURVE",
"524 990 OFFCURVE",
"512 968 CURVE",
"508 958 LINE",
"444 877 LINE",
"469 870 LINE",
"476 813 LINE",
"512 816 LINE",
"512 779 LINE",
"475 770 LINE SMOOTH",
"440 762 OFFCURVE",
"419 752 OFFCURVE",
"401 735 CURVE",
"319 690 LINE",
"337 714 OFFCURVE",
"367 753 OFFCURVE",
"381 772 CURVE",
"442 801 LINE",
"434 822 LINE",
"401 819 LINE",
"413 837 LINE",
"456 849 LINE",
"449 871 LINE",
"388 866 LINE",
"361 846 LINE",
"349 818 LINE",
"201 638 LINE",
"207 607 LINE",
"234 590 LINE",
"438 663 LINE",
"480 525 LINE",
"478 492 LINE",
"456 462 OFFCURVE",
"398 455 OFFCURVE",
"353 438 CURVE SMOOTH",
"307 422 OFFCURVE",
"249 402 OFFCURVE",
"218 358 CURVE SMOOTH",
"213 351 OFFCURVE",
"204 322 OFFCURVE",
"199 302 CURVE",
"194 259 LINE",
"159 104 LINE SMOOTH",
"154 84 OFFCURVE",
"145 62 OFFCURVE",
"123 59 CURVE SMOOTH",
"49 48 LINE",
"49 0 LINE",
"205 0 LINE",
"305 299 LINE",
"308 285 OFFCURVE",
"313 270 OFFCURVE",
"320 256 CURVE SMOOTH",
"327 244 OFFCURVE",
"375 173 OFFCURVE",
"409 124 CURVE SMOOTH",
"413 118 OFFCURVE",
"414 107 OFFCURVE",
"414 105 CURVE SMOOTH",
"414 94 OFFCURVE",
"404 83 OFFCURVE",
"390 76 CURVE SMOOTH",
"336 44 LINE",
"351 -1 LINE"
);
},
{
closed = 1;
nodes = (
"66 35 LINE",
"131 44 LINE SMOOTH",
"152 47 OFFCURVE",
"167 63 OFFCURVE",
"176 98 CURVE SMOOTH",
"212 257 LINE",
"218 299 LINE",
"223 319 OFFCURVE",
"230 340 OFFCURVE",
"234 349 CURVE",
"255 347 OFFCURVE",
"282 340 OFFCURVE",
"299 333 CURVE",
"195 20 LINE",
"66 20 LINE"
);
},
{
closed = 1;
nodes = (
"356 38 LINE",
"397 61 LINE SMOOTH",
"416 71 OFFCURVE",
"433 85 OFFCURVE",
"433 103 CURVE SMOOTH",
"433 109 OFFCURVE",
"430 123 OFFCURVE",
"424 131 CURVE SMOOTH",
"390 182 OFFCURVE",
"342 254 OFFCURVE",
"337 263 CURVE SMOOTH",
"329 276 OFFCURVE",
"320 316 OFFCURVE",
"318 327 CURVE",
"349 318 OFFCURVE",
"375 306 OFFCURVE",
"392 294 CURVE",
"409 265 OFFCURVE",
"458 162 OFFCURVE",
"475 61 CURVE",
"361 23 LINE"
);
},
{
closed = 1;
nodes = (
"732 281 LINE",
"746 321 LINE",
"733 352 LINE",
"726 352 LINE",
"707 318 LINE",
"702 319 LINE",
"711 374 LINE",
"725 521 LINE",
"673 681 LINE",
"651 681 LINE",
"608 543 LINE",
"603 464 LINE",
"604 459 OFFCURVE",
"619 373 OFFCURVE",
"619 374 CURVE SMOOTH",
"619 354 OFFCURVE",
"611 329 OFFCURVE",
"584 327 CURVE SMOOTH",
"553 325 OFFCURVE",
"461 318 OFFCURVE",
"400 313 CURVE",
"350 339 OFFCURVE",
"294 354 OFFCURVE",
"246 362 CURVE",
"279 393 OFFCURVE",
"328 413 OFFCURVE",
"359 423 CURVE SMOOTH",
"420 443 OFFCURVE",
"470 451 OFFCURVE",
"496 482 CURVE",
"499 527 LINE",
"452 685 LINE",
"240 607 LINE",
"221 617 LINE",
"219 633 LINE",
"259 682 OFFCURVE",
"324 762 OFFCURVE",
"358 805 CURVE",
"372 834 LINE",
"394 853 LINE",
"440 860 LINE",
"441 854 LINE",
"400 842 LINE",
"382 814 LINE",
"387 809 LINE",
"426 813 LINE",
"427 808 LINE",
"373 782 LINE",
"286 669 LINE",
"292 659 LINE",
"412 723 LINE",
"424 738 OFFCURVE",
"454 749 OFFCURVE",
"474 753 CURVE SMOOTH",
"527 766 LINE",
"527 832 LINE",
"487 828 LINE",
"482 878 LINE",
"467 883 LINE",
"518 949 LINE",
"579 892 LINE",
"584 896 OFFCURVE",
"588 899 OFFCURVE",
"593 899 CURVE SMOOTH",
"603 899 OFFCURVE",
"605 893 OFFCURVE",
"605 889 CURVE SMOOTH",
"605 882 OFFCURVE",
"600 875 OFFCURVE",
"591 868 CURVE SMOOTH",
"566 847 LINE",
"597 803 LINE",
"597 768 LINE",
"686 746 LINE SMOOTH",
"700 742 OFFCURVE",
"708 722 OFFCURVE",
"711 708 CURVE SMOOTH",
"765 525 LINE",
"740 377 LINE",
"755 349 LINE",
"758 320 LINE",
"738 279 LINE"
);
},
{
closed = 1;
nodes = (
"541 911 OFFCURVE",
"534 918 OFFCURVE",
"514 918 CURVE SMOOTH",
"509 918 OFFCURVE",
"504 917 OFFCURVE",
"500 915 CURVE",
"510 902 OFFCURVE",
"521 896 OFFCURVE",
"546 895 CURVE"
);
},
{
closed = 1;
nodes = (
"585 847 LINE",
"600 859 LINE SMOOTH",
"610 867 OFFCURVE",
"620 878 OFFCURVE",
"620 888 CURVE SMOOTH",
"620 900 OFFCURVE",
"612 913 OFFCURVE",
"597 913 CURVE SMOOTH",
"591 913 OFFCURVE",
"586 912 OFFCURVE",
"581 909 CURVE",
"526 962 LINE",
"536 979 OFFCURVE",
"553 985 OFFCURVE",
"571 985 CURVE SMOOTH",
"598 985 OFFCURVE",
"674 956 OFFCURVE",
"674 906 CURVE SMOOTH",
"674 871 OFFCURVE",
"637 842 OFFCURVE",
"606 816 CURVE"
);
}
);
width = 833;
}
);
unicode = 13014;
},
{
glyphname = u13015;
lastChange = "2017-01-25 19:58:54 +0000";
layers = (
{
layerId = UUID0;
paths = (
{
closed = 1;
nodes = (
"209 0 LINE",
"254 241 LINE",
"268 207 OFFCURVE",
"294 140 OFFCURVE",
"310 100 CURVE",
"310 83 OFFCURVE",
"312 62 OFFCURVE",
"289 59 CURVE SMOOTH",
"220 48 LINE",
"220 0 LINE",
"399 0 LINE",
"358 292 LINE",
"401 298 OFFCURVE",
"513 305 OFFCURVE",
"546 308 CURVE SMOOTH",
"586 312 OFFCURVE",
"598 347 OFFCURVE",
"598 374 CURVE SMOOTH",
"598 375 OFFCURVE",
"583 459 OFFCURVE",
"582 467 CURVE",
"585 539 LINE",
"621 664 LINE",
"668 519 LINE",
"657 372 LINE",
"645 311 LINE",
"670 305 LINE",
"687 334 LINE",
"694 314 LINE",
"679 272 LINE",
"703 265 LINE",
"731 319 LINE",
"731 352 LINE",
"717 378 LINE",
"744 521 LINE",
"689 713 LINE SMOOTH",
"684 729 OFFCURVE",
"676 755 OFFCURVE",
"648 763 CURVE SMOOTH",
"574 783 LINE",
"575 803 LINE",
"622 841 OFFCURVE",
"649 866 OFFCURVE",
"649 906 CURVE SMOOTH",
"649 953 OFFCURVE",
"593 1001 OFFCURVE",
"528 1001 CURVE SMOOTH",
"501 1001 OFFCURVE",
"484 990 OFFCURVE",
"472 968 CURVE",
"468 958 LINE",
"404 877 LINE",
"429 870 LINE",
"436 813 LINE",
"472 816 LINE",
"472 779 LINE",
"435 770 LINE SMOOTH",
"400 762 OFFCURVE",
"379 752 OFFCURVE",
"361 735 CURVE",
"259 677 LINE",
"159 792 LINE",
"143 815 LINE",
"117 835 LINE",
"55 841 LINE",
"49 818 LINE",
"92 807 LINE",
"103 789 LINE",
"70 792 LINE",
"62 771 LINE",
"123 742 LINE",
"233 601 LINE",
"398 663 LINE",
"440 525 LINE",
"438 492 LINE",
"416 462 OFFCURVE",
"358 455 OFFCURVE",
"313 438 CURVE SMOOTH",
"267 421 OFFCURVE",
"209 402 OFFCURVE",
"178 358 CURVE SMOOTH",
"173 351 OFFCURVE",
"164 322 OFFCURVE",
"159 302 CURVE",
"154 259 LINE",
"163 104 LINE",
"158 84 OFFCURVE",
"149 62 OFFCURVE",
"126 59 CURVE SMOOTH",
"53 48 LINE",
"53 0 LINE"
);
},
{
closed = 1;
nodes = (
"70 35 LINE",
"135 44 LINE SMOOTH",
"156 47 OFFCURVE",
"171 63 OFFCURVE",
"180 98 CURVE",
"172 257 LINE",
"178 299 LINE",
"183 319 OFFCURVE",
"190 340 OFFCURVE",
"194 349 CURVE",
"214 347 OFFCURVE",
"234 341 OFFCURVE",
"251 334 CURVE",
"243 315 OFFCURVE",
"240 291 OFFCURVE",
"241 264 CURVE",
"197 20 LINE",
"70 20 LINE"
);
},
{
closed = 1;
nodes = (
"237 35 LINE",
"298 44 LINE SMOOTH",
"319 47 OFFCURVE",
"328 72 OFFCURVE",
"328 98 CURVE",
"260 270 LINE",
"257 289 OFFCURVE",
"265 321 OFFCURVE",
"268 328 CURVE",
"291 322 OFFCURVE",
"320 311 OFFCURVE",
"338 301 CURVE",
"379 20 LINE",
"237 20 LINE"
);
},
{
closed = 1;
nodes = (
"692 281 LINE",
"706 321 LINE",
"693 352 LINE",
"686 352 LINE",
"667 318 LINE",
"662 319 LINE",
"671 374 LINE",
"685 521 LINE",
"633 681 LINE",
"611 681 LINE",
"568 543 LINE",
"563 464 LINE",
"564 459 OFFCURVE",
"579 373 OFFCURVE",
"579 374 CURVE SMOOTH",
"579 354 OFFCURVE",
"571 329 OFFCURVE",
"544 327 CURVE SMOOTH",
"513 325 OFFCURVE",
"421 318 OFFCURVE",
"360 313 CURVE",
"310 339 OFFCURVE",
"254 354 OFFCURVE",
"206 362 CURVE",
"239 393 OFFCURVE",
"288 413 OFFCURVE",
"319 423 CURVE SMOOTH",
"380 443 OFFCURVE",
"430 451 OFFCURVE",
"456 482 CURVE",
"458 527 LINE",
"412 685 LINE",
"241 618 LINE",
"133 753 LINE",
"77 777 LINE",
"79 782 LINE",
"118 778 LINE",
"122 784 LINE",
"104 812 LINE",
"63 824 LINE",
"64 830 LINE",
"110 823 LINE",
"132 804 LINE",
"149 779 LINE",
"255 656 LINE",
"372 723 LINE",
"384 738 OFFCURVE",
"414 748 OFFCURVE",
"434 753 CURVE SMOOTH",
"487 766 LINE",
"487 832 LINE",
"447 828 LINE",
"442 878 LINE",
"427 883 LINE",
"478 949 LINE",
"539 892 LINE",
"544 896 OFFCURVE",
"548 899 OFFCURVE",
"553 899 CURVE SMOOTH",
"563 899 OFFCURVE",
"565 893 OFFCURVE",
"565 889 CURVE SMOOTH",
"565 882 OFFCURVE",
"560 875 OFFCURVE",
"551 868 CURVE SMOOTH",
"526 847 LINE",
"557 803 LINE",
"557 768 LINE",
"646 746 LINE SMOOTH",
"660 743 OFFCURVE",
"667 722 OFFCURVE",
"671 708 CURVE SMOOTH",
"725 525 LINE",
"700 377 LINE",
"715 349 LINE",
"718 320 LINE",
"698 279 LINE"
);
},
{
closed = 1;
nodes = (
"501 911 OFFCURVE",
"494 918 OFFCURVE",
"474 918 CURVE SMOOTH",
"469 918 OFFCURVE",
"464 917 OFFCURVE",
"460 915 CURVE",
"470 902 OFFCURVE",
"480 896 OFFCURVE",
"506 895 CURVE"
);
},
{
closed = 1;
nodes = (
"545 847 LINE",
"560 859 LINE SMOOTH",
"570 867 OFFCURVE",
"580 878 OFFCURVE",
"580 888 CURVE SMOOTH",
"580 900 OFFCURVE",
"572 913 OFFCURVE",
"557 913 CURVE SMOOTH",
"551 913 OFFCURVE",
"546 912 OFFCURVE",
"541 909 CURVE",
"486 962 LINE",
"496 979 OFFCURVE",
"513 985 OFFCURVE",
"531 985 CURVE SMOOTH",
"558 985 OFFCURVE",
"634 956 OFFCURVE",
"634 906 CURVE SMOOTH",
"634 871 OFFCURVE",
"597 842 OFFCURVE",
"566 816 CURVE"
);
}
);
width = 792;
}
);
unicode = 13015;
},
{
glyphname = u13016;
lastChange = "2017-01-25 19:58:54 +0000";
layers = (
{
layerId = UUID0;
paths = (
{
closed = 1;
nodes = (
"457 42 LINE",
"440 142 OFFCURVE",
"398 236 OFFCURVE",
"380 268 CURVE",
"417 273 OFFCURVE",
"507 278 OFFCURVE",
"538 280 CURVE SMOOTH",
"575 282 OFFCURVE",
"586 315 OFFCURVE",
"586 339 CURVE SMOOTH",
"586 341 OFFCURVE",
"573 417 OFFCURVE",
"571 425 CURVE",
"575 490 LINE",
"607 604 LINE",
"650 472 LINE",
"639 338 LINE",
"628 283 LINE",
"651 278 LINE",
"667 304 LINE",
"674 286 LINE",
"660 248 LINE",
"683 240 LINE",
"709 290 LINE",
"709 320 LINE",
"696 344 LINE",
"720 474 LINE",
"670 648 LINE SMOOTH",
"666 662 OFFCURVE",
"658 686 OFFCURVE",
"633 693 CURVE SMOOTH",
"568 711 LINE",
"568 730 LINE",
"712 1001 LINE",
"683 1001 LINE",
"634 910 LINE",
"613 932 OFFCURVE",
"592 958 OFFCURVE",
"592 974 CURVE SMOOTH",
"592 982 OFFCURVE",
"596 989 OFFCURVE",
"607 989 CURVE SMOOTH",
"617 989 OFFCURVE",
"624 984 OFFCURVE",
"624 978 CURVE SMOOTH",
"624 974 OFFCURVE",
"618 969 OFFCURVE",
"614 967 CURVE",
"622 957 LINE",
"629 961 OFFCURVE",
"639 970 OFFCURVE",
"639 980 CURVE SMOOTH",
"639 995 OFFCURVE",
"625 1004 OFFCURVE",
"607 1004 CURVE SMOOTH",
"588 1004 OFFCURVE",
"575 991 OFFCURVE",
"575 976 CURVE SMOOTH",
"575 954 OFFCURVE",
"596 930 OFFCURVE",
"614 910 CURVE",
"458 910 LINE",
"458 858 LINE",
"410 797 LINE",
"432 791 LINE",
"438 739 LINE",
"472 742 LINE",
"472 708 LINE",
"437 700 LINE SMOOTH",
"406 693 OFFCURVE",
"387 684 OFFCURVE",
"371 668 CURVE",
"296 627 LINE",
"313 649 OFFCURVE",
"340 684 OFFCURVE",
"353 702 CURVE",
"408 729 LINE",
"400 748 LINE",
"371 745 LINE",
"381 761 LINE",
"420 771 LINE",
"414 792 LINE",
"358 787 LINE",
"334 769 LINE",
"323 744 LINE",
"188 580 LINE",
"194 550 LINE",
"219 535 LINE",
"404 601 LINE",
"443 477 LINE",
"441 447 LINE",
"420 420 OFFCURVE",
"368 414 OFFCURVE",
"326 399 CURVE SMOOTH",
"285 384 OFFCURVE",
"229 366 OFFCURVE",
"202 325 CURVE SMOOTH",
"198 319 OFFCURVE",
"190 292 OFFCURVE",
"185 274 CURVE",
"181 235 LINE",
"149 95 LINE",
"145 77 OFFCURVE",
"136 56 OFFCURVE",
"116 53 CURVE SMOOTH",
"49 43 LINE",
"49 0 LINE",
"192 0 LINE",
"283 271 LINE",
"286 259 OFFCURVE",
"291 245 OFFCURVE",
"296 233 CURVE SMOOTH",
"301 221 OFFCURVE",
"352 150 OFFCURVE",
"377 113 CURVE",
"381 107 OFFCURVE",
"382 98 OFFCURVE",
"382 95 CURVE SMOOTH",
"382 86 OFFCURVE",
"373 76 OFFCURVE",
"361 69 CURVE SMOOTH",
"311 40 LINE",
"324 -1 LINE"
);
},
{
closed = 1;
nodes = (
"66 31 LINE",
"125 40 LINE SMOOTH",
"145 43 OFFCURVE",
"158 58 OFFCURVE",
"166 89 CURVE",
"198 233 LINE",
"204 272 LINE",
"208 290 OFFCURVE",
"215 308 OFFCURVE",
"219 317 CURVE",
"238 315 OFFCURVE",
"262 310 OFFCURVE",
"278 303 CURVE",
"183 18 LINE",
"66 18 LINE"
);
},
{
closed = 1;
nodes = (
"330 34 LINE",
"367 55 LINE SMOOTH",
"384 65 OFFCURVE",
"399 78 OFFCURVE",
"399 94 CURVE SMOOTH",
"399 99 OFFCURVE",
"397 111 OFFCURVE",
"392 119 CURVE",
"387 125 OFFCURVE",
"319 228 OFFCURVE",
"312 239 CURVE SMOOTH",
"305 250 OFFCURVE",
"297 287 OFFCURVE",
"295 297 CURVE",
"323 290 OFFCURVE",
"347 278 OFFCURVE",
"362 268 CURVE",
"377 241 OFFCURVE",
"422 147 OFFCURVE",
"438 55 CURVE",
"334 21 LINE"
);
},
{
closed = 1;
nodes = (
"672 255 LINE",
"684 292 LINE",
"673 320 LINE",
"667 320 LINE",
"648 289 LINE",
"644 291 LINE",
"652 339 LINE",
"666 473 LINE",
"618 619 LINE",
"596 619 LINE",
"558 493 LINE",
"553 422 LINE",
"554 417 OFFCURVE",
"566 346 OFFCURVE",
"567 339 CURVE SMOOTH",
"568 329 OFFCURVE",
"563 300 OFFCURVE",
"536 297 CURVE SMOOTH",
"508 294 OFFCURVE",
"425 288 OFFCURVE",
"370 284 CURVE",
"324 309 OFFCURVE",
"275 322 OFFCURVE",
"231 329 CURVE",
"261 357 OFFCURVE",
"305 375 OFFCURVE",
"334 385 CURVE SMOOTH",
"389 404 OFFCURVE",
"434 410 OFFCURVE",
"458 438 CURVE",
"461 479 LINE",
"418 623 LINE",
"225 552 LINE",
"207 561 LINE",
"205 576 LINE",
"241 620 OFFCURVE",
"301 693 OFFCURVE",
"332 732 CURVE",
"344 758 LINE",
"364 775 LINE",
"406 782 LINE",
"407 777 LINE",
"370 766 LINE",
"354 741 LINE",
"357 735 LINE",
"393 739 LINE",
"395 734 LINE",
"345 710 LINE",
"266 608 LINE",
"271 599 LINE",
"380 657 LINE",
"392 671 OFFCURVE",
"418 681 OFFCURVE",
"437 685 CURVE SMOOTH",
"485 696 LINE",
"485 756 LINE",
"449 753 LINE",
"444 798 LINE",
"431 802 LINE",
"466 847 LINE",
"546 847 LINE",
"546 822 LINE",
"552 823 OFFCURVE",
"560 821 OFFCURVE",
"560 812 CURVE SMOOTH",
"560 798 OFFCURVE",
"545 771 OFFCURVE",
"534 754 CURVE",
"547 728 LINE",
"547 698 LINE",
"629 678 LINE SMOOTH",
"643 675 OFFCURVE",
"648 656 OFFCURVE",
"652 644 CURVE SMOOTH",
"701 478 LINE",
"679 343 LINE",
"693 317 LINE",
"695 292 LINE",
"677 253 LINE"
);
},
{
closed = 1;
nodes = (
"498 828 OFFCURVE",
"491 835 OFFCURVE",
"473 835 CURVE SMOOTH",
"469 835 OFFCURVE",
"464 834 OFFCURVE",
"461 832 CURVE",
"470 820 OFFCURVE",
"479 814 OFFCURVE",
"502 813 CURVE"
);
},
{
closed = 1;
nodes = (
"552 754 LINE",
"562 773 OFFCURVE",
"576 795 OFFCURVE",
"576 817 CURVE SMOOTH",
"576 825 OFFCURVE",
"571 832 OFFCURVE",
"562 832 CURVE",
"562 847 LINE",
"567 847 LINE",
"567 862 LINE",
"473 862 LINE",
"473 895 LINE",
"639 895 LINE",
"558 742 LINE"
);
}
);
width = 769;
}
);
unicode = 13016;
},
{
glyphname = u13017;
lastChange = "2017-01-25 19:58:54 +0000";
layers = (
{
layerId = UUID0;
paths = (
{
closed = 1;
nodes = (
"150 0 LINE",
"150 656 LINE",
"316 511 LINE",
"346 512 LINE",
"477 649 LINE",
"661 560 LINE",
"661 499 LINE",
"542 332 LINE",
"498 113 LINE",
"494 91 OFFCURVE",
"488 70 OFFCURVE",
"463 65 CURVE",
"382 52 LINE",
"382 0 LINE",
"545 0 LINE",
"635 252 LINE",
"702 252 LINE",
"790 127 LINE SMOOTH",
"797 118 OFFCURVE",
"807 105 OFFCURVE",
"807 94 CURVE SMOOTH",
"807 79 OFFCURVE",
"791 69 OFFCURVE",
"771 65 CURVE SMOOTH",
"705 52 LINE",
"705 0 LINE",
"894 0 LINE",
"894 125 OFFCURVE",
"876 177 OFFCURVE",
"826 260 CURVE SMOOTH",
"779 336 LINE",
"822 392 OFFCURVE",
"879 481 OFFCURVE",
"879 523 CURVE SMOOTH",
"879 577 OFFCURVE",
"854 612 OFFCURVE",
"795 637 CURVE",
"780 655 OFFCURVE",
"699 728 OFFCURVE",
"635 780 CURVE",
"750 772 LINE",
"875 639 LINE",
"912 576 LINE",
"936 585 LINE",
"925 628 LINE",
"944 618 LINE",
"963 571 LINE",
"987 581 LINE",
"968 648 LINE",
"946 672 LINE",
"917 682 LINE",
"787 840 LINE",
"597 866 LINE SMOOTH",
"568 870 OFFCURVE",
"530 869 OFFCURVE",
"511 857 CURVE SMOOTH",
"484 841 LINE",
"477 839 LINE",
"455 847 LINE",
"445 902 LINE SMOOTH",
"433 967 OFFCURVE",
"391 1001 OFFCURVE",
"344 1001 CURVE SMOOTH",
"293 1001 OFFCURVE",
"232 958 OFFCURVE",
"232 911 CURVE SMOOTH",
"232 899 OFFCURVE",
"235 888 OFFCURVE",
"242 875 CURVE",
"250 864 LINE",
"291 754 LINE",
"298 759 OFFCURVE",
"306 765 OFFCURVE",
"312 771 CURVE",
"360 737 LINE",
"395 762 LINE",
"435 743 LINE",
"424 734 OFFCURVE",
"383 695 OFFCURVE",
"317 616 CURVE",
"197 715 LINE",
"184 759 LINE",
"160 790 LINE",
"150 794 LINE",
"150 1001 LINE",
"114 1001 LINE",
"114 812 LINE",
"100 819 LINE",
"90 804 LINE",
"82 808 LINE",
"68 801 LINE",
"49 757 LINE",
"51 744 LINE",
"68 710 LINE",
"99 686 LINE",
"114 686 LINE",
"114 0 LINE"
);
},
{
closed = 1;
nodes = (
"400 38 LINE",
"469 48 LINE",
"492 53 OFFCURVE",
"508 68 OFFCURVE",
"517 106 CURVE",
"549 252 LINE",
"616 252 LINE",
"534 21 LINE",
"400 21 LINE"
);
},
{
closed = 1;
nodes = (
"82 715 LINE",
"66 749 LINE",
"64 758 LINE",
"82 793 LINE",
"130 762 LINE",
"138 739 LINE",
"119 704 LINE",
"102 703 LINE"
);
},
{
closed = 1;
nodes = (
"724 38 LINE",
"773 48 LINE SMOOTH",
"801 54 OFFCURVE",
"828 65 OFFCURVE",
"828 91 CURVE SMOOTH",
"828 105 OFFCURVE",
"814 125 OFFCURVE",
"811 130 CURVE SMOOTH",
"728 252 LINE",
"810 252 LINE",
"824 229 LINE SMOOTH",
"844 196 OFFCURVE",
"878 126 OFFCURVE",
"875 21 CURVE",
"724 21 LINE"
);
},
{
closed = 1;
nodes = (
"564 327 LINE",
"681 490 LINE",
"681 555 LINE",
"785 624 LINE",
"836 604 OFFCURVE",
"860 564 OFFCURVE",
"860 522 CURVE SMOOTH",
"860 486 OFFCURVE",
"800 398 OFFCURVE",
"754 341 CURVE",
"794 271 LINE",
"553 271 LINE"
);
},
{
closed = 1;
nodes = (
"311 829 OFFCURVE",
"324 836 OFFCURVE",
"339 857 CURVE",
"332 860 OFFCURVE",
"326 862 OFFCURVE",
"321 862 CURVE SMOOTH",
"314 862 OFFCURVE",
"290 854 OFFCURVE",
"290 831 CURVE SMOOTH",
"290 828 OFFCURVE",
"293 829 OFFCURVE",
"295 829 CURVE SMOOTH"
);
},
{
closed = 1;
nodes = (
"150 680 LINE",
"150 728 LINE",
"154 734 LINE",
"143 767 LINE",
"108 791 LINE",
"98 796 LINE",
"103 805 LINE",
"152 777 LINE",
"169 752 LINE",
"188 700 LINE",
"320 593 LINE",
"380 665 OFFCURVE",
"436 722 OFFCURVE",
"462 745 CURVE",
"395 783 LINE",
"358 757 LINE",
"310 790 LINE",
"307 787 OFFCURVE",
"302 785 OFFCURVE",
"298 782 CURVE",
"267 866 LINE",
"354 878 LINE",
"354 881 OFFCURVE",
"354 884 OFFCURVE",
"354 886 CURVE SMOOTH",
"354 893 OFFCURVE",
"357 900 OFFCURVE",
"363 900 CURVE SMOOTH",
"374 900 OFFCURVE",
"378 885 OFFCURVE",
"380 874 CURVE SMOOTH",
"386 837 LINE",
"444 833 LINE",
"487 817 LINE",
"492 822 OFFCURVE",
"505 834 OFFCURVE",
"525 843 CURVE SMOOTH",
"540 849 OFFCURVE",
"568 851 OFFCURVE",
"593 848 CURVE SMOOTH",
"774 826 LINE",
"906 669 LINE",
"936 659 LINE",
"958 640 LINE",
"974 588 LINE",
"968 586 LINE",
"948 632 LINE",
"918 646 LINE",
"913 641 LINE",
"925 595 LINE",
"916 590 LINE",
"887 647 LINE",
"759 789 LINE",
"585 801 LINE",
"772 638 LINE",
"676 575 LINE",
"471 670 LINE",
"338 530 LINE",
"320 530 LINE"
);
},
{
closed = 1;
nodes = (
"398 855 LINE",
"396 872 LINE SMOOTH",
"393 900 OFFCURVE",
"380 919 OFFCURVE",
"359 919 CURVE SMOOTH",
"344 919 OFFCURVE",
"339 907 OFFCURVE",
"338 895 CURVE",
"257 885 LINE",
"254 892 OFFCURVE",
"253 898 OFFCURVE",
"253 905 CURVE SMOOTH",
"253 941 OFFCURVE",
"298 979 OFFCURVE",
"350 979 CURVE SMOOTH",
"397 979 OFFCURVE",
"420 930 OFFCURVE",
"426 902 CURVE SMOOTH",
"437 851 LINE"
);
}
);
width = 1036;
}
);
unicode = 13017;
},
{
glyphname = u13018;
lastChange = "2017-01-25 19:58:54 +0000";
layers = (
{
layerId = UUID0;
paths = (
{
closed = 1;
nodes = (
"85 0 LINE",
"153 110 LINE",
"222 0 LINE",
"258 0 LINE",
"170 142 LINE",
"170 679 LINE",
"300 565 LINE",
"323 566 LINE",
"436 677 LINE",
"527 539 LINE",
"403 292 LINE",
"414 292 LINE",
"400 253 LINE",
"404 211 LINE",
"371 94 LINE",
"368 76 OFFCURVE",
"362 58 OFFCURVE",
"342 54 CURVE SMOOTH",
"276 43 LINE",
"276 0 LINE",
"417 0 LINE",
"509 292 LINE",
"589 292 LINE",
"593 262 LINE",
"643 88 LINE SMOOTH",
"644 84 OFFCURVE",
"644 81 OFFCURVE",
"644 78 CURVE SMOOTH",
"644 65 OFFCURVE",
"631 58 OFFCURVE",
"615 54 CURVE SMOOTH",
"560 43 LINE",
"560 0 LINE",
"703 0 LINE",
"707 22 OFFCURVE",
"708 47 OFFCURVE",
"708 71 CURVE SMOOTH",
"708 151 OFFCURVE",
"691 244 OFFCURVE",
"679 292 CURVE",
"679 308 OFFCURVE",
"677 320 OFFCURVE",
"677 331 CURVE SMOOTH",
"677 342 OFFCURVE",
"679 352 OFFCURVE",
"680 365 CURVE SMOOTH",
"683 391 OFFCURVE",
"694 416 OFFCURVE",
"694 435 CURVE SMOOTH",
"694 479 OFFCURVE",
"690 492 OFFCURVE",
"661 535 CURVE",
"659 549 OFFCURVE",
"634 637 OFFCURVE",
"616 700 CURVE",
"693 644 LINE",
"735 507 LINE",
"749 454 LINE",
"768 455 LINE",
"771 485 LINE",
"784 472 LINE",
"787 432 LINE",
"810 435 LINE",
"813 489 LINE",
"801 516 LINE",
"779 533 LINE",
"743 694 LINE",
"634 784 LINE SMOOTH",
"597 814 OFFCURVE",
"556 814 OFFCURVE",
"526 813 CURVE",
"513 832 LINE",
"530 875 LINE SMOOTH",
"536 892 OFFCURVE",
"539 907 OFFCURVE",
"539 921 CURVE SMOOTH",
"539 971 OFFCURVE",
"500 1003 OFFCURVE",
"446 1003 CURVE SMOOTH",
"404 1003 OFFCURVE",
"371 985 OFFCURVE",
"370 944 CURVE",
"370 933 LINE",
"351 837 LINE",
"358 839 OFFCURVE",
"367 839 OFFCURVE",
"374 840 CURVE",
"393 797 LINE",
"430 797 LINE",
"449 767 LINE",
"431 765 OFFCURVE",
"414 759 OFFCURVE",
"396 748 CURVE SMOOTH",
"373 734 OFFCURVE",
"329 683 OFFCURVE",
"301 648 CURVE",
"209 724 LINE",
"200 755 LINE",
"181 781 LINE",
"170 786 LINE",
"170 1001 LINE",
"136 1001 LINE",
"136 800 LINE",
"135 801 LINE",
"127 790 LINE",
"121 793 LINE",
"111 787 LINE",
"96 754 LINE",
"98 744 LINE",
"110 718 LINE",
"134 699 LINE",
"136 699 LINE",
"136 141 LINE",
"49 0 LINE"
);
},
{
closed = 1;
nodes = (
"292 31 LINE",
"347 40 LINE",
"366 44 OFFCURVE",
"382 56 OFFCURVE",
"387 88 CURVE",
"419 209 LINE",
"419 251 LINE",
"434 292 LINE",
"492 292 LINE",
"404 18 LINE",
"292 18 LINE"
);
},
{
closed = 1;
nodes = (
"578 31 LINE",
"620 40 LINE SMOOTH",
"643 44 OFFCURVE",
"663 54 OFFCURVE",
"663 76 CURVE SMOOTH",
"663 80 OFFCURVE",
"663 84 OFFCURVE",
"662 89 CURVE SMOOTH",
"613 263 LINE",
"608 292 LINE",
"660 292 LINE",
"673 243 OFFCURVE",
"690 150 OFFCURVE",
"690 76 CURVE SMOOTH",
"690 56 OFFCURVE",
"689 36 OFFCURVE",
"687 18 CURVE",
"578 18 LINE"
);
},
{
closed = 1;
nodes = (
"122 723 LINE",
"110 747 LINE",
"109 753 LINE",
"122 778 LINE",
"157 757 LINE",
"162 740 LINE",
"148 715 LINE",
"136 715 LINE"
);
},
{
closed = 1;
nodes = (
"541 527 LINE",
"644 529 LINE",
"672 494 OFFCURVE",
"675 468 OFFCURVE",
"675 434 CURVE SMOOTH",
"675 415 OFFCURVE",
"664 387 OFFCURVE",
"661 365 CURVE SMOOTH",
"659 350 OFFCURVE",
"659 337 OFFCURVE",
"659 326 CURVE SMOOTH",
"659 320 OFFCURVE",
"659 314 OFFCURVE",
"659 309 CURVE",
"433 309 LINE"
);
},
{
closed = 1;
nodes = (
"791 482 LINE",
"771 502 LINE",
"764 500 LINE",
"761 464 LINE",
"757 464 LINE",
"748 511 LINE",
"705 658 LINE",
"606 726 LINE",
"594 720 LINE",
"643 546 LINE",
"546 543 LINE",
"439 704 LINE",
"317 584 LINE",
"303 584 LINE",
"170 701 LINE",
"170 727 LINE",
"176 736 LINE",
"167 761 LINE",
"141 779 LINE",
"134 784 LINE",
"137 791 LINE",
"174 769 LINE",
"187 750 LINE",
"202 710 LINE",
"303 628 LINE",
"332 664 OFFCURVE",
"380 717 OFFCURVE",
"404 734 CURVE SMOOTH",
"424 749 OFFCURVE",
"449 753 OFFCURVE",
"473 756 CURVE",
"439 813 LINE",
"401 811 LINE",
"382 855 LINE",
"379 854 OFFCURVE",
"375 855 OFFCURVE",
"371 854 CURVE",
"385 927 LINE",
"453 897 LINE",
"455 902 OFFCURVE",
"458 910 OFFCURVE",
"465 910 CURVE SMOOTH",
"470 910 OFFCURVE",
"472 905 OFFCURVE",
"472 900 CURVE SMOOTH",
"472 895 OFFCURVE",
"470 888 OFFCURVE",
"468 883 CURVE SMOOTH",
"456 855 LINE",
"496 827 LINE",
"514 801 LINE",
"517 798 OFFCURVE",
"523 795 OFFCURVE",
"530 795 CURVE SMOOTH",
"582 795 OFFCURVE",
"600 789 OFFCURVE",
"618 774 CURVE SMOOTH",
"728 685 LINE",
"766 525 LINE",
"789 508 LINE",
"802 484 LINE",
"800 444 LINE",
"795 444 LINE"
);
},
{
closed = 1;
nodes = (
"414 883 OFFCURVE",
"422 885 OFFCURVE",
"432 889 CURVE",
"427 898 OFFCURVE",
"422 904 OFFCURVE",
"408 904 CURVE SMOOTH",
"405 904 OFFCURVE",
"385 901 OFFCURVE",
"385 892 CURVE SMOOTH",
"385 888 OFFCURVE",
"398 883 OFFCURVE",
"407 883 CURVE SMOOTH"
);
},
{
closed = 1;
nodes = (
"475 861 LINE",
"480 874 LINE SMOOTH",
"484 883 OFFCURVE",
"487 891 OFFCURVE",
"487 898 CURVE SMOOTH",
"487 912 OFFCURVE",
"478 927 OFFCURVE",
"465 927 CURVE SMOOTH",
"458 927 OFFCURVE",
"452 922 OFFCURVE",
"448 916 CURVE",
"387 945 LINE",
"392 971 OFFCURVE",
"415 984 OFFCURVE",
"445 984 CURVE SMOOTH",
"491 984 OFFCURVE",
"520 955 OFFCURVE",
"520 917 CURVE SMOOTH",
"520 904 OFFCURVE",
"517 891 OFFCURVE",
"514 882 CURVE SMOOTH",
"499 842 LINE"
);
}
);
width = 861;
}
);
unicode = 13018;
},
{
glyphname = u13019;
lastChange = "2017-01-25 19:58:54 +0000";
layers = (
{
layerId = UUID0;
paths = (
{
closed = 1;
nodes = (
"163 569 LINE",
"170 569 LINE",
"182 574 LINE",
"334 556 LINE",
"445 666 LINE",
"471 596 LINE",
"476 553 LINE",
"320 292 LINE",
"391 292 LINE",
"377 253 LINE",
"380 211 LINE",
"348 94 LINE SMOOTH",
"343 77 OFFCURVE",
"339 58 OFFCURVE",
"319 54 CURVE SMOOTH",
"256 43 LINE",
"256 0 LINE",
"396 0 LINE",
"489 292 LINE",
"549 292 LINE",
"554 262 LINE",
"604 88 LINE SMOOTH",
"604 84 OFFCURVE",
"604 81 OFFCURVE",
"604 78 CURVE SMOOTH",
"604 65 OFFCURVE",
"591 58 OFFCURVE",
"575 54 CURVE SMOOTH",
"520 43 LINE",
"520 0 LINE",
"664 0 LINE",
"667 22 OFFCURVE",
"668 47 OFFCURVE",
"668 71 CURVE SMOOTH",
"668 151 OFFCURVE",
"652 244 OFFCURVE",
"640 292 CURVE",
"638 310 OFFCURVE",
"638 327 OFFCURVE",
"638 342 CURVE SMOOTH",
"638 359 OFFCURVE",
"639 376 OFFCURVE",
"641 393 CURVE SMOOTH",
"644 419 OFFCURVE",
"655 444 OFFCURVE",
"655 463 CURVE SMOOTH",
"655 508 OFFCURVE",
"637 534 OFFCURVE",
"607 562 CURVE",
"610 597 LINE",
"628 667 LINE",
"681 565 LINE",
"674 462 LINE",
"669 414 LINE",
"655 406 OFFCURVE",
"650 399 OFFCURVE",
"649 397 CURVE",
"659 390 OFFCURVE",
"671 375 OFFCURVE",
"676 354 CURVE",
"679 359 OFFCURVE",
"686 371 OFFCURVE",
"694 379 CURVE",
"699 372 LINE",
"721 365 LINE",
"736 396 LINE",
"738 394 OFFCURVE",
"738 391 OFFCURVE",
"738 389 CURVE SMOOTH",
"736 382 OFFCURVE",
"728 375 OFFCURVE",
"725 361 CURVE SMOOTH",
"721 341 OFFCURVE",
"729 317 OFFCURVE",
"755 313 CURVE SMOOTH",
"783 307 OFFCURVE",
"797 324 OFFCURVE",
"802 346 CURVE SMOOTH",
"807 375 OFFCURVE",
"789 413 OFFCURVE",
"745 424 CURVE",
"745 443 LINE",
"732 467 LINE",
"740 595 LINE",
"677 743 LINE",
"664 766 OFFCURVE",
"656 787 OFFCURVE",
"599 787 CURVE SMOOTH",
"576 787 LINE",
"576 816 LINE",
"602 855 LINE SMOOTH",
"617 878 OFFCURVE",
"623 899 OFFCURVE",
"623 917 CURVE SMOOTH",
"623 962 OFFCURVE",
"590 1001 OFFCURVE",
"529 1001 CURVE SMOOTH",
"468 1001 OFFCURVE",
"448 974 OFFCURVE",
"449 947 CURVE SMOOTH",
"449 941 OFFCURVE",
"450 932 OFFCURVE",
"450 927 CURVE",
"418 858 LINE",
"426 857 OFFCURVE",
"435 856 OFFCURVE",
"442 855 CURVE",
"450 804 LINE",
"487 801 LINE",
"487 780 LINE",
"467 780 LINE SMOOTH",
"431 780 OFFCURVE",
"400 757 OFFCURVE",
"385 733 CURVE SMOOTH",
"323 639 LINE",
"218 639 LINE",
"190 652 LINE",
"176 656 LINE",
"223 987 LINE",
"189 992 LINE",
"141 658 LINE",
"109 653 LINE",
"112 639 LINE",
"104 638 LINE",
"100 627 LINE",
"106 591 LINE",
"113 584 LINE",
"129 575 LINE",
"49 5 LINE",
"83 0 LINE"
);
},
{
closed = 1;
nodes = (
"272 31 LINE",
"327 40 LINE SMOOTH",
"347 42 OFFCURVE",
"358 57 OFFCURVE",
"367 88 CURVE SMOOTH",
"400 209 LINE",
"400 251 LINE",
"412 292 LINE",
"472 292 LINE",
"384 18 LINE",
"272 18 LINE"
);
},
{
closed = 1;
nodes = (
"125 593 LINE",
"119 602 LINE",
"114 626 LINE",
"155 629 LINE",
"169 619 LINE",
"172 590 LINE",
"163 583 LINE",
"146 583 LINE"
);
},
{
closed = 1;
nodes = (
"539 31 LINE",
"580 40 LINE SMOOTH",
"603 44 OFFCURVE",
"624 54 OFFCURVE",
"624 76 CURVE SMOOTH",
"624 80 OFFCURVE",
"624 84 OFFCURVE",
"622 89 CURVE SMOOTH",
"573 263 LINE",
"569 292 LINE",
"620 292 LINE",
"633 243 OFFCURVE",
"651 150 OFFCURVE",
"651 76 CURVE SMOOTH",
"651 56 OFFCURVE",
"650 36 OFFCURVE",
"647 18 CURVE",
"539 18 LINE"
);
},
{
closed = 1;
nodes = (
"490 541 LINE",
"592 551 LINE",
"620 520 OFFCURVE",
"636 497 OFFCURVE",
"636 462 CURVE SMOOTH",
"636 443 OFFCURVE",
"625 415 OFFCURVE",
"622 393 CURVE SMOOTH",
"620 376 OFFCURVE",
"619 358 OFFCURVE",
"619 341 CURVE SMOOTH",
"619 330 OFFCURVE",
"619 319 OFFCURVE",
"620 309 CURVE",
"350 309 LINE"
);
},
{
closed = 1;
nodes = (
"706 381 LINE",
"699 393 LINE",
"701 400 OFFCURVE",
"713 411 OFFCURVE",
"718 414 CURVE",
"711 442 LINE",
"705 443 LINE",
"694 424 LINE",
"685 420 LINE",
"697 569 LINE",
"633 693 LINE",
"616 689 LINE",
"593 603 LINE",
"590 568 LINE",
"492 558 LINE",
"489 594 LINE",
"456 684 LINE",
"441 687 LINE",
"331 575 LINE",
"186 591 LINE",
"183 623 LINE",
"161 639 LINE",
"123 639 LINE",
"122 646 LINE",
"163 649 LINE",
"183 642 LINE",
"219 624 LINE",
"333 624 LINE",
"399 720 LINE",
"410 737 OFFCURVE",
"426 763 OFFCURVE",
"466 763 CURVE SMOOTH",
"503 763 LINE",
"503 814 LINE",
"462 817 LINE",
"455 868 LINE",
"452 868 OFFCURVE",
"446 870 OFFCURVE",
"442 870 CURVE",
"461 915 LINE",
"533 915 LINE",
"535 917 OFFCURVE",
"537 920 OFFCURVE",
"545 920 CURVE SMOOTH",
"557 920 OFFCURVE",
"559 911 OFFCURVE",
"559 904 CURVE SMOOTH",
"559 898 OFFCURVE",
"551 883 OFFCURVE",
"547 877 CURVE",
"529 847 LINE",
"560 818 LINE",
"560 788 LINE SMOOTH",
"560 773 OFFCURVE",
"565 767 OFFCURVE",
"576 767 CURVE SMOOTH",
"606 767 LINE SMOOTH",
"645 767 OFFCURVE",
"651 751 OFFCURVE",
"660 737 CURVE",
"724 589 LINE",
"715 465 LINE",
"731 440 LINE",
"733 413 LINE",
"715 378 LINE"
);
},
{
closed = 1;
nodes = (
"676 390 OFFCURVE",
"672 393 OFFCURVE",
"668 396 CURVE",
"680 406 OFFCURVE",
"689 416 OFFCURVE",
"707 417 CURVE",
"708 416 OFFCURVE",
"708 415 OFFCURVE",
"708 415 CURVE",
"691 404 OFFCURVE",
"688 395 OFFCURVE",
"679 382 CURVE"
);
},
{
closed = 1;
nodes = (
"741 330 OFFCURVE",
"737 345 OFFCURVE",
"740 358 CURVE SMOOTH",
"743 372 OFFCURVE",
"750 377 OFFCURVE",
"752 387 CURVE SMOOTH",
"754 398 OFFCURVE",
"752 404 OFFCURVE",
"743 410 CURVE",
"744 412 LINE",
"773 403 OFFCURVE",
"793 378 OFFCURVE",
"788 350 CURVE",
"784 334 OFFCURVE",
"775 324 OFFCURVE",
"758 327 CURVE SMOOTH"
);
},
{
closed = 1;
nodes = (
"497 889 OFFCURVE",
"503 893 OFFCURVE",
"510 897 CURVE",
"503 904 OFFCURVE",
"496 909 OFFCURVE",
"484 909 CURVE SMOOTH",
"475 909 OFFCURVE",
"464 905 OFFCURVE",
"464 898 CURVE SMOOTH",
"464 891 OFFCURVE",
"478 889 OFFCURVE",
"486 889 CURVE SMOOTH"
);
},
{
closed = 1;
nodes = (
"548 850 LINE",
"564 875 LINE",
"571 883 OFFCURVE",
"576 897 OFFCURVE",
"576 907 CURVE SMOOTH",
"576 921 OFFCURVE",
"566 937 OFFCURVE",
"549 937 CURVE SMOOTH",
"540 937 OFFCURVE",
"537 935 OFFCURVE",
"534 932 CURVE",
"469 932 LINE",
"469 934 OFFCURVE",
"468 939 OFFCURVE",
"468 946 CURVE SMOOTH",
"468 965 OFFCURVE",
"483 982 OFFCURVE",
"529 982 CURVE SMOOTH",
"579 982 OFFCURVE",
"603 947 OFFCURVE",
"603 914 CURVE SMOOTH",
"603 896 OFFCURVE",
"595 876 OFFCURVE",
"588 866 CURVE SMOOTH",
"566 833 LINE"
);
}
);
width = 852;
}
);
unicode = 13019;
},
{
glyphname = u1301A;
lastChange = "2017-01-25 19:58:54 +0000";
layers = (
{
layerId = UUID0;
paths = (
{
closed = 1;
nodes = (
"844 0 LINE",
"844 27 LINE",
"721 27 LINE",
"723 44 OFFCURVE",
"724 63 OFFCURVE",
"724 81 CURVE SMOOTH",
"724 161 OFFCURVE",
"707 248 OFFCURVE",
"695 292 CURVE",
"692 332 OFFCURVE",
"692 361 OFFCURVE",
"696 393 CURVE SMOOTH",
"696 394 OFFCURVE",
"696 395 OFFCURVE",
"697 396 CURVE",
"754 396 LINE",
"765 384 LINE",
"765 380 LINE",
"772 371 LINE",
"824 366 LINE",
"834 377 LINE",
"834 396 LINE",
"860 396 LINE",
"860 417 LINE",
"833 417 LINE",
"828 445 LINE",
"796 466 LINE",
"796 632 LINE",
"732 743 LINE SMOOTH",
"720 766 OFFCURVE",
"711 787 OFFCURVE",
"655 787 CURVE SMOOTH",
"632 787 LINE",
"632 816 LINE",
"658 855 LINE SMOOTH",
"673 878 OFFCURVE",
"678 899 OFFCURVE",
"678 917 CURVE SMOOTH",
"678 962 OFFCURVE",
"646 1001 OFFCURVE",
"585 1001 CURVE SMOOTH",
"524 1001 OFFCURVE",
"504 974 OFFCURVE",
"504 947 CURVE SMOOTH",
"504 941 OFFCURVE",
"505 932 OFFCURVE",
"506 927 CURVE",
"474 858 LINE",
"482 857 OFFCURVE",
"491 856 OFFCURVE",
"498 855 CURVE",
"505 804 LINE",
"542 801 LINE",
"542 780 LINE",
"522 780 LINE",
"487 780 OFFCURVE",
"456 757 OFFCURVE",
"440 733 CURVE SMOOTH",
"384 647 LINE",
"276 691 LINE",
"255 716 LINE",
"241 727 LINE",
"232 728 LINE",
"268 988 LINE",
"234 993 LINE",
"199 734 LINE",
"177 739 LINE",
"175 723 LINE",
"168 724 LINE",
"161 715 LINE",
"158 679 LINE",
"163 670 LINE",
"177 657 LINE",
"188 652 LINE",
"102 27 LINE",
"49 27 LINE",
"49 0 LINE"
);
},
{
closed = 1;
nodes = (
"328 41 LINE",
"383 49 LINE SMOOTH",
"402 52 OFFCURVE",
"415 66 OFFCURVE",
"423 98 CURVE",
"456 209 LINE",
"453 251 LINE",
"468 292 LINE",
"527 292 LINE",
"440 28 LINE",
"328 28 LINE"
);
},
{
closed = 1;
nodes = (
"220 642 LINE",
"227 643 LINE",
"390 556 LINE",
"501 666 LINE",
"526 596 LINE",
"531 553 LINE",
"487 417 LINE",
"443 417 LINE",
"435 437 OFFCURVE",
"413 454 OFFCURVE",
"397 454 CURVE SMOOTH",
"380 454 OFFCURVE",
"359 437 OFFCURVE",
"351 417 CURVE",
"329 417 LINE",
"329 396 LINE",
"351 396 LINE",
"360 377 OFFCURVE",
"381 360 OFFCURVE",
"397 360 CURVE SMOOTH",
"413 360 OFFCURVE",
"434 377 OFFCURVE",
"443 396 CURVE",
"480 396 LINE",
"446 292 LINE",
"433 253 LINE",
"436 211 LINE",
"403 104 LINE",
"398 86 OFFCURVE",
"395 67 OFFCURVE",
"375 64 CURVE SMOOTH",
"312 53 LINE",
"312 27 LINE",
"137 27 LINE"
);
},
{
closed = 1;
nodes = (
"545 292 LINE",
"605 292 LINE",
"609 262 LINE",
"659 98 LINE SMOOTH",
"660 94 OFFCURVE",
"660 91 OFFCURVE",
"660 87 CURVE SMOOTH",
"660 75 OFFCURVE",
"647 67 OFFCURVE",
"631 64 CURVE SMOOTH",
"576 53 LINE",
"576 27 LINE",
"458 27 LINE"
);
},
{
closed = 1;
nodes = (
"391 379 OFFCURVE",
"374 391 OFFCURVE",
"367 407 CURVE",
"374 423 OFFCURVE",
"391 435 OFFCURVE",
"397 435 CURVE SMOOTH",
"403 435 OFFCURVE",
"420 423 OFFCURVE",
"427 407 CURVE",
"420 391 OFFCURVE",
"403 379 OFFCURVE",
"397 379 CURVE SMOOTH"
);
},
{
closed = 1;
nodes = (
"594 41 LINE",
"636 49 LINE SMOOTH",
"659 54 OFFCURVE",
"679 63 OFFCURVE",
"679 85 CURVE SMOOTH",
"679 90 OFFCURVE",
"679 94 OFFCURVE",
"678 99 CURVE SMOOTH",
"629 263 LINE",
"625 292 LINE",
"676 292 LINE",
"689 247 OFFCURVE",
"707 160 OFFCURVE",
"707 85 CURVE SMOOTH",
"707 65 OFFCURVE",
"706 46 OFFCURVE",
"703 28 CURVE",
"594 28 LINE"
);
},
{
closed = 1;
nodes = (
"182 670 LINE",
"176 675 LINE",
"173 686 LINE",
"175 710 LINE",
"214 699 LINE",
"225 684 LINE",
"221 661 LINE",
"213 657 LINE"
);
},
{
closed = 1;
nodes = (
"500 396 LINE",
"678 396 LINE",
"677 395 OFFCURVE",
"677 394 OFFCURVE",
"677 393 CURVE SMOOTH",
"674 365 OFFCURVE",
"674 334 OFFCURVE",
"675 309 CURVE",
"473 309 LINE"
);
},
{
closed = 1;
nodes = (
"546 541 LINE",
"648 551 LINE",
"676 520 OFFCURVE",
"691 497 OFFCURVE",
"691 462 CURVE SMOOTH",
"691 450 OFFCURVE",
"687 433 OFFCURVE",
"682 417 CURVE",
"505 417 LINE"
);
},
{
closed = 1;
nodes = (
"782 380 LINE",
"775 389 LINE",
"784 417 LINE",
"780 426 LINE",
"773 426 LINE",
"771 417 LINE",
"764 417 LINE",
"761 452 LINE",
"755 595 LINE",
"687 694 LINE",
"672 691 LINE",
"649 603 LINE",
"646 568 LINE",
"548 558 LINE",
"544 594 LINE",
"511 684 LINE",
"497 687 LINE",
"387 577 LINE",
"235 659 LINE",
"240 689 LINE",
"222 709 LINE",
"186 719 LINE",
"187 727 LINE",
"225 720 LINE",
"245 708 LINE",
"273 675 LINE",
"391 626 LINE",
"455 720 LINE SMOOTH",
"467 737 OFFCURVE",
"482 763 OFFCURVE",
"522 763 CURVE SMOOTH",
"559 763 LINE",
"559 814 LINE",
"518 817 LINE",
"511 868 LINE",
"507 868 OFFCURVE",
"501 870 OFFCURVE",
"498 870 CURVE",
"517 915 LINE",
"589 915 LINE",
"590 917 OFFCURVE",
"592 920 OFFCURVE",
"601 920 CURVE SMOOTH",
"613 920 OFFCURVE",
"614 911 OFFCURVE",
"614 904 CURVE SMOOTH",
"614 898 OFFCURVE",
"607 883 OFFCURVE",
"603 877 CURVE",
"584 847 LINE",
"615 818 LINE",
"615 788 LINE SMOOTH",
"615 773 OFFCURVE",
"621 767 OFFCURVE",
"632 767 CURVE SMOOTH",
"662 767 LINE SMOOTH",
"700 767 OFFCURVE",
"707 751 OFFCURVE",
"715 737 CURVE SMOOTH",
"779 626 LINE",
"779 461 LINE",
"815 440 LINE",
"822 414 LINE",
"823 382 LINE",
"818 377 LINE"
);
},
{
closed = 1;
nodes = (
"705 434 OFFCURVE",
"710 450 OFFCURVE",
"710 463 CURVE SMOOTH",
"710 508 OFFCURVE",
"693 534 OFFCURVE",
"663 562 CURVE",
"666 597 LINE",
"684 667 LINE",
"737 594 LINE",
"746 450 LINE",
"750 417 LINE",
"701 417 LINE"
);
},
{
closed = 1;
nodes = (
"552 889 OFFCURVE",
"559 893 OFFCURVE",
"565 897 CURVE",
"559 904 OFFCURVE",
"551 909 OFFCURVE",
"540 909 CURVE SMOOTH",
"530 909 OFFCURVE",
"520 905 OFFCURVE",
"520 898 CURVE SMOOTH",
"520 891 OFFCURVE",
"533 889 OFFCURVE",
"542 889 CURVE SMOOTH"
);
},
{
closed = 1;
nodes = (
"604 850 LINE",
"620 875 LINE",
"626 883 OFFCURVE",
"631 897 OFFCURVE",
"631 907 CURVE SMOOTH",
"631 921 OFFCURVE",
"622 937 OFFCURVE",
"605 937 CURVE SMOOTH",
"595 937 OFFCURVE",
"592 935 OFFCURVE",
"590 932 CURVE",
"525 932 LINE",
"524 934 OFFCURVE",
"523 939 OFFCURVE",
"523 946 CURVE SMOOTH",
"523 965 OFFCURVE",
"539 982 OFFCURVE",
"585 982 CURVE SMOOTH",
"634 982 OFFCURVE",
"658 947 OFFCURVE",
"658 914 CURVE SMOOTH",
"658 896 OFFCURVE",
"650 876 OFFCURVE",
"644 866 CURVE SMOOTH",
"622 833 LINE"
);
}
);
width = 909;
}
);
unicode = 1301A;
},
{
glyphname = u1301B;
lastChange = "2017-01-25 19:58:54 +0000";
layers = (
{
layerId = UUID0;
paths = (
{
closed = 1;
nodes = (
"116 0 LINE",
"116 399 LINE",
"151 466 LINE",
"116 466 LINE",
"116 645 LINE",
"124 646 LINE",
"308 556 LINE",
"419 666 LINE",
"444 596 LINE",
"449 553 LINE",
"405 417 LINE",
"361 417 LINE",
"353 437 OFFCURVE",
"331 454 OFFCURVE",
"315 454 CURVE SMOOTH",
"298 454 OFFCURVE",
"277 437 OFFCURVE",
"269 417 CURVE",
"247 417 LINE",
"247 396 LINE",
"269 396 LINE",
"278 377 OFFCURVE",
"299 360 OFFCURVE",
"315 360 CURVE SMOOTH",
"331 360 OFFCURVE",
"352 377 OFFCURVE",
"361 396 CURVE",
"398 396 LINE",
"364 292 LINE",
"351 253 LINE",
"354 211 LINE",
"321 94 LINE SMOOTH",
"316 77 OFFCURVE",
"313 58 OFFCURVE",
"292 54 CURVE SMOOTH",
"230 43 LINE",
"230 0 LINE",
"370 0 LINE",
"463 292 LINE",
"523 292 LINE",
"527 262 LINE",
"577 88 LINE SMOOTH",
"578 84 OFFCURVE",
"578 81 OFFCURVE",
"578 78 CURVE SMOOTH",
"578 65 OFFCURVE",
"565 58 OFFCURVE",
"549 54 CURVE SMOOTH",
"494 43 LINE",
"494 0 LINE",
"637 0 LINE",
"641 22 OFFCURVE",
"642 47 OFFCURVE",
"642 71 CURVE SMOOTH",
"642 151 OFFCURVE",
"625 244 OFFCURVE",
"613 292 CURVE",
"610 332 OFFCURVE",
"610 361 OFFCURVE",
"614 393 CURVE SMOOTH",
"614 394 OFFCURVE",
"614 395 OFFCURVE",
"615 396 CURVE",
"672 396 LINE",
"683 384 LINE",
"683 380 LINE",
"690 371 LINE",
"742 366 LINE",
"752 377 LINE",
"752 396 LINE",
"778 396 LINE",
"778 417 LINE",
"750 417 LINE",
"746 445 LINE",
"714 466 LINE",
"714 632 LINE",
"650 743 LINE SMOOTH",
"638 766 OFFCURVE",
"629 787 OFFCURVE",
"573 787 CURVE SMOOTH",
"550 787 LINE",
"550 816 LINE",
"583 865 LINE",
"608 829 LINE",
"638 864 LINE",
"605 888 LINE",
"620 896 OFFCURVE",
"636 905 OFFCURVE",
"636 926 CURVE SMOOTH",
"636 940 OFFCURVE",
"628 957 OFFCURVE",
"604 957 CURVE SMOOTH",
"598 957 OFFCURVE",
"593 955 OFFCURVE",
"589 953 CURVE",
"576 981 OFFCURVE",
"547 1001 OFFCURVE",
"503 1001 CURVE SMOOTH",
"475 1001 OFFCURVE",
"454 994 OFFCURVE",
"441 985 CURVE",
"443 990 OFFCURVE",
"444 996 OFFCURVE",
"444 1001 CURVE SMOOTH",
"444 1013 OFFCURVE",
"430 1024 OFFCURVE",
"409 1024 CURVE SMOOTH",
"388 1024 OFFCURVE",
"379 1016 OFFCURVE",
"379 1007 CURVE SMOOTH",
"379 999 OFFCURVE",
"392 1000 OFFCURVE",
"396 1000 CURVE SMOOTH",
"400 1000 OFFCURVE",
"403 999 OFFCURVE",
"403 996 CURVE SMOOTH",
"403 992 OFFCURVE",
"384 983 OFFCURVE",
"384 965 CURVE SMOOTH",
"384 949 OFFCURVE",
"396 936 OFFCURVE",
"403 931 CURVE",
"403 915 LINE",
"418 915 LINE",
"393 858 LINE",
"400 857 OFFCURVE",
"409 856 OFFCURVE",
"416 855 CURVE",
"421 822 LINE",
"369 809 LINE",
"387 769 LINE",
"439 803 LINE",
"461 801 LINE",
"461 780 LINE",
"440 780 LINE SMOOTH",
"405 780 OFFCURVE",
"374 757 OFFCURVE",
"358 733 CURVE SMOOTH",
"302 647 LINE",
"167 701 LINE",
"142 723 LINE",
"126 735 LINE",
"116 735 LINE",
"116 994 LINE",
"82 994 LINE",
"82 735 LINE",
"61 735 LINE",
"62 719 LINE",
"54 719 LINE",
"49 709 LINE",
"51 673 LINE",
"57 665 LINE",
"72 654 LINE",
"82 651 LINE",
"82 466 LINE",
"48 466 LINE",
"82 401 LINE",
"82 0 LINE"
);
},
{
closed = 1;
nodes = (
"246 31 LINE",
"301 40 LINE SMOOTH",
"320 42 OFFCURVE",
"333 57 OFFCURVE",
"341 88 CURVE SMOOTH",
"374 209 LINE",
"371 251 LINE",
"386 292 LINE",
"445 292 LINE",
"358 18 LINE",
"246 18 LINE"
);
},
{
closed = 1;
nodes = (
"309 379 OFFCURVE",
"292 391 OFFCURVE",
"285 407 CURVE",
"292 423 OFFCURVE",
"309 435 OFFCURVE",
"315 435 CURVE SMOOTH",
"321 435 OFFCURVE",
"338 423 OFFCURVE",
"345 407 CURVE",
"338 391 OFFCURVE",
"321 379 OFFCURVE",
"315 379 CURVE SMOOTH"
);
},
{
closed = 1;
nodes = (
"512 31 LINE",
"554 40 LINE SMOOTH",
"577 44 OFFCURVE",
"597 54 OFFCURVE",
"597 76 CURVE SMOOTH",
"597 80 OFFCURVE",
"597 84 OFFCURVE",
"596 89 CURVE SMOOTH",
"547 263 LINE",
"542 292 LINE",
"594 292 LINE",
"607 243 OFFCURVE",
"625 150 OFFCURVE",
"625 76 CURVE SMOOTH",
"625 56 OFFCURVE",
"624 36 OFFCURVE",
"621 18 CURVE",
"512 18 LINE"
);
},
{
closed = 1;
nodes = (
"76 668 LINE",
"69 672 LINE",
"64 682 LINE",
"63 707 LINE",
"104 701 LINE",
"116 687 LINE",
"116 664 LINE",
"109 659 LINE"
);
},
{
closed = 1;
nodes = (
"417 396 LINE",
"596 396 LINE",
"595 395 OFFCURVE",
"595 394 OFFCURVE",
"595 393 CURVE SMOOTH",
"592 365 OFFCURVE",
"592 334 OFFCURVE",
"593 309 CURVE",
"391 309 LINE"
);
},
{
closed = 1;
nodes = (
"464 541 LINE",
"566 551 LINE",
"594 520 OFFCURVE",
"609 497 OFFCURVE",
"609 462 CURVE SMOOTH",
"609 450 OFFCURVE",
"604 433 OFFCURVE",
"600 417 CURVE",
"423 417 LINE"
);
},
{
closed = 1;
nodes = (
"700 380 LINE",
"693 389 LINE",
"702 417 LINE",
"698 426 LINE",
"691 426 LINE",
"689 417 LINE",
"682 417 LINE",
"679 452 LINE",
"673 595 LINE",
"604 694 LINE",
"590 691 LINE",
"567 603 LINE",
"564 568 LINE",
"466 558 LINE",
"462 594 LINE",
"429 684 LINE",
"415 687 LINE",
"305 577 LINE",
"130 664 LINE",
"131 695 LINE",
"110 711 LINE",
"73 717 LINE",
"72 725 LINE",
"112 723 LINE",
"133 714 LINE",
"166 685 LINE",
"309 626 LINE",
"373 720 LINE SMOOTH",
"384 736 OFFCURVE",
"400 763 OFFCURVE",
"440 763 CURVE SMOOTH",
"478 763 LINE",
"478 814 LINE",
"437 817 LINE",
"429 868 LINE",
"426 868 OFFCURVE",
"420 870 OFFCURVE",
"416 870 CURVE",
"436 915 LINE",
"530 915 LINE",
"532 912 OFFCURVE",
"533 907 OFFCURVE",
"533 904 CURVE SMOOTH",
"533 898 OFFCURVE",
"525 883 OFFCURVE",
"521 877 CURVE",
"503 847 LINE",
"534 818 LINE",
"534 788 LINE SMOOTH",
"534 773 OFFCURVE",
"539 767 OFFCURVE",
"550 767 CURVE SMOOTH",
"580 767 LINE SMOOTH",
"618 767 OFFCURVE",
"625 751 OFFCURVE",
"633 737 CURVE SMOOTH",
"697 626 LINE",
"697 461 LINE",
"733 440 LINE",
"740 414 LINE",
"741 382 LINE",
"736 377 LINE"
);
},
{
closed = 1;
nodes = (
"623 434 OFFCURVE",
"628 450 OFFCURVE",
"628 463 CURVE SMOOTH",
"628 508 OFFCURVE",
"611 534 OFFCURVE",
"581 562 CURVE",
"584 597 LINE",
"602 667 LINE",
"655 594 LINE",
"664 450 LINE",
"667 417 LINE",
"619 417 LINE"
);
},
{
closed = 1;
nodes = (
"471 889 OFFCURVE",
"478 893 OFFCURVE",
"484 897 CURVE",
"477 904 OFFCURVE",
"470 909 OFFCURVE",
"458 909 CURVE SMOOTH",
"449 909 OFFCURVE",
"438 905 OFFCURVE",
"438 898 CURVE SMOOTH",
"438 891 OFFCURVE",
"452 889 OFFCURVE",
"460 889 CURVE SMOOTH"
);
},
{
closed = 1;
nodes = (
"522 850 LINE",
"539 875 LINE",
"545 883 OFFCURVE",
"550 897 OFFCURVE",
"550 907 CURVE SMOOTH",
"550 910 OFFCURVE",
"549 912 OFFCURVE",
"548 915 CURVE",
"577 915 LINE",
"577 914 LINE SMOOTH",
"577 896 OFFCURVE",
"569 876 OFFCURVE",
"562 866 CURVE SMOOTH",
"541 833 LINE"
);
},
{
closed = 1;
nodes = (
"442 938 OFFCURVE",
"442 941 OFFCURVE",
"442 946 CURVE SMOOTH",
"442 965 OFFCURVE",
"458 982 OFFCURVE",
"503 982 CURVE SMOOTH",
"542 982 OFFCURVE",
"565 960 OFFCURVE",
"573 935 CURVE",
"442 935 LINE"
);
}
);
width = 827;
}
);
unicode = 1301B;
},
{
glyphname = u1301C;
lastChange = "2017-01-25 19:58:54 +0000";
layers = (
{
layerId = UUID0;
paths = (
{
closed = 1;
nodes = (
"381 0 LINE",
"474 292 LINE",
"554 292 LINE",
"558 262 LINE",
"608 88 LINE SMOOTH",
"609 84 OFFCURVE",
"609 81 OFFCURVE",
"609 78 CURVE SMOOTH",
"609 65 OFFCURVE",
"596 58 OFFCURVE",
"580 54 CURVE SMOOTH",
"524 43 LINE",
"524 0 LINE",
"668 0 LINE",
"671 22 OFFCURVE",
"673 47 OFFCURVE",
"673 71 CURVE SMOOTH",
"673 151 OFFCURVE",
"656 244 OFFCURVE",
"644 292 CURVE",
"644 308 OFFCURVE",
"642 320 OFFCURVE",
"642 331 CURVE SMOOTH",
"642 342 OFFCURVE",
"644 352 OFFCURVE",
"645 365 CURVE SMOOTH",
"648 391 OFFCURVE",
"659 416 OFFCURVE",
"659 435 CURVE SMOOTH",
"659 479 OFFCURVE",
"652 512 OFFCURVE",
"623 555 CURVE",
"621 568 OFFCURVE",
"623 618 OFFCURVE",
"617 686 CURVE SMOOTH",
"611 752 OFFCURVE",
"568 785 OFFCURVE",
"524 791 CURVE",
"524 827 LINE",
"540 855 LINE",
"554 878 OFFCURVE",
"561 899 OFFCURVE",
"561 917 CURVE SMOOTH",
"561 962 OFFCURVE",
"528 1001 OFFCURVE",
"467 1001 CURVE SMOOTH",
"406 1001 OFFCURVE",
"386 974 OFFCURVE",
"387 947 CURVE SMOOTH",
"387 941 OFFCURVE",
"388 932 OFFCURVE",
"388 927 CURVE",
"356 858 LINE",
"364 857 OFFCURVE",
"373 856 OFFCURVE",
"380 855 CURVE",
"388 804 LINE",
"436 801 LINE",
"436 777 LINE",
"410 770 OFFCURVE",
"390 760 OFFCURVE",
"375 729 CURVE SMOOTH",
"311 601 LINE",
"158 654 LINE",
"133 675 LINE",
"103 684 LINE",
"100 684 LINE",
"91 781 LINE SMOOTH",
"89 808 OFFCURVE",
"89 825 OFFCURVE",
"95 836 CURVE SMOOTH",
"99 845 OFFCURVE",
"104 853 OFFCURVE",
"118 857 CURVE",
"116 877 LINE",
"104 874 OFFCURVE",
"90 866 OFFCURVE",
"81 851 CURVE SMOOTH",
"70 833 OFFCURVE",
"71 802 OFFCURVE",
"73 783 CURVE SMOOTH",
"83 683 LINE",
"60 678 LINE",
"60 664 LINE",
"54 663 LINE",
"49 653 LINE",
"54 621 LINE",
"60 614 LINE",
"83 599 LINE",
"91 598 LINE",
"93 570 LINE",
"64 564 LINE",
"64 552 LINE",
"56 543 LINE",
"63 508 LINE",
"71 501 LINE",
"99 489 LINE",
"101 489 LINE",
"107 427 LINE",
"125 428 LINE",
"119 490 LINE",
"123 490 LINE",
"132 500 LINE",
"147 500 LINE",
"161 493 LINE",
"343 515 LINE",
"424 646 LINE",
"491 536 LINE",
"368 292 LINE",
"379 292 LINE",
"365 253 LINE",
"369 211 LINE",
"336 94 LINE",
"333 76 OFFCURVE",
"327 58 OFFCURVE",
"307 54 CURVE SMOOTH",
"241 43 LINE",
"241 0 LINE"
);
},
{
closed = 1;
nodes = (
"257 31 LINE",
"312 40 LINE",
"331 44 OFFCURVE",
"347 56 OFFCURVE",
"352 88 CURVE",
"384 209 LINE",
"384 251 LINE",
"398 292 LINE",
"457 292 LINE",
"369 18 LINE",
"257 18 LINE"
);
},
{
closed = 1;
nodes = (
"67 622 LINE",
"63 627 LINE",
"59 653 LINE",
"100 653 LINE",
"113 644 LINE",
"115 616 LINE",
"105 608 LINE",
"89 608 LINE"
);
},
{
closed = 1;
nodes = (
"543 31 LINE",
"584 40 LINE SMOOTH",
"607 44 OFFCURVE",
"628 54 OFFCURVE",
"628 76 CURVE SMOOTH",
"628 80 OFFCURVE",
"628 84 OFFCURVE",
"626 89 CURVE SMOOTH",
"578 263 LINE",
"573 292 LINE",
"625 292 LINE",
"638 243 OFFCURVE",
"655 150 OFFCURVE",
"655 76 CURVE SMOOTH",
"655 56 OFFCURVE",
"654 36 OFFCURVE",
"651 18 CURVE",
"543 18 LINE"
);
},
{
closed = 1;
nodes = (
"137 567 LINE",
"111 574 LINE",
"108 598 LINE",
"122 608 LINE",
"134 610 LINE",
"148 600 LINE",
"241 559 LINE",
"166 550 LINE"
);
},
{
closed = 1;
nodes = (
"149 615 LINE",
"137 624 LINE",
"125 623 LINE",
"124 646 LINE",
"103 663 LINE",
"68 663 LINE",
"68 670 LINE",
"85 672 LINE",
"106 672 LINE",
"126 664 LINE",
"156 641 LINE",
"303 588 LINE",
"292 564 LINE",
"265 563 LINE"
);
},
{
closed = 1;
nodes = (
"506 530 LINE",
"606 549 LINE",
"605 549 LINE",
"606 549 LINE",
"634 514 OFFCURVE",
"640 468 OFFCURVE",
"640 434 CURVE SMOOTH",
"640 415 OFFCURVE",
"628 387 OFFCURVE",
"626 365 CURVE SMOOTH",
"624 350 OFFCURVE",
"624 337 OFFCURVE",
"624 326 CURVE SMOOTH",
"624 320 OFFCURVE",
"624 314 OFFCURVE",
"624 309 CURVE",
"398 309 LINE"
);
},
{
closed = 1;
nodes = (
"80 510 LINE",
"75 516 LINE",
"69 540 LINE",
"76 549 LINE",
"76 555 LINE",
"110 562 LINE",
"129 556 LINE",
"164 536 LINE",
"304 551 LINE",
"389 723 LINE SMOOTH",
"399 743 OFFCURVE",
"425 764 OFFCURVE",
"452 765 CURVE",
"452 814 LINE",
"400 817 LINE",
"393 868 LINE",
"390 868 OFFCURVE",
"384 870 OFFCURVE",
"380 870 CURVE",
"399 915 LINE",
"471 915 LINE",
"473 917 OFFCURVE",
"475 920 OFFCURVE",
"483 920 CURVE SMOOTH",
"495 920 OFFCURVE",
"497 911 OFFCURVE",
"497 904 CURVE SMOOTH",
"497 898 OFFCURVE",
"489 883 OFFCURVE",
"485 877 CURVE",
"467 847 LINE",
"509 810 LINE",
"509 776 LINE",
"537 776 OFFCURVE",
"590 756 OFFCURVE",
"597 684 CURVE SMOOTH",
"600 651 OFFCURVE",
"599 636 OFFCURVE",
"604 566 CURVE",
"511 546 LINE",
"430 671 LINE",
"418 671 LINE",
"334 528 LINE",
"159 507 LINE",
"144 514 LINE",
"125 513 LINE",
"117 502 LINE",
"100 502 LINE"
);
},
{
closed = 1;
nodes = (
"435 889 OFFCURVE",
"441 893 OFFCURVE",
"448 897 CURVE",
"441 904 OFFCURVE",
"434 909 OFFCURVE",
"422 909 CURVE SMOOTH",
"413 909 OFFCURVE",
"402 905 OFFCURVE",
"402 898 CURVE SMOOTH",
"402 891 OFFCURVE",
"416 889 OFFCURVE",
"424 889 CURVE SMOOTH"
);
},
{
closed = 1;
nodes = (
"487 850 LINE",
"504 875 LINE",
"510 883 OFFCURVE",
"515 897 OFFCURVE",
"515 907 CURVE SMOOTH",
"515 921 OFFCURVE",
"505 937 OFFCURVE",
"489 937 CURVE SMOOTH",
"479 937 OFFCURVE",
"476 935 OFFCURVE",
"474 932 CURVE",
"409 932 LINE",
"408 934 OFFCURVE",
"407 939 OFFCURVE",
"407 946 CURVE SMOOTH",
"407 965 OFFCURVE",
"423 982 OFFCURVE",
"469 982 CURVE SMOOTH",
"518 982 OFFCURVE",
"542 947 OFFCURVE",
"542 914 CURVE SMOOTH",
"542 896 OFFCURVE",
"534 876 OFFCURVE",
"527 866 CURVE SMOOTH",
"506 833 LINE"
);
}
);
width = 722;
}
);
unicode = 1301C;
},
{
glyphname = u1301D;
lastChange = "2017-01-25 19:58:54 +0000";
layers = (
{
layerId = UUID0;
paths = (
{
closed = 1;
nodes = (
"444 0 LINE",
"537 292 LINE",
"616 292 LINE",
"621 262 LINE",
"670 88 LINE SMOOTH",
"671 84 OFFCURVE",
"671 81 OFFCURVE",
"671 78 CURVE SMOOTH",
"671 65 OFFCURVE",
"658 58 OFFCURVE",
"642 54 CURVE SMOOTH",
"587 43 LINE",
"587 0 LINE",
"730 0 LINE",
"734 22 OFFCURVE",
"735 47 OFFCURVE",
"735 71 CURVE SMOOTH",
"735 151 OFFCURVE",
"719 244 OFFCURVE",
"707 292 CURVE",
"705 305 OFFCURVE",
"705 320 OFFCURVE",
"705 331 CURVE SMOOTH",
"705 342 OFFCURVE",
"706 352 OFFCURVE",
"708 365 CURVE SMOOTH",
"710 391 OFFCURVE",
"722 416 OFFCURVE",
"722 435 CURVE SMOOTH",
"722 479 OFFCURVE",
"711 515 OFFCURVE",
"682 558 CURVE",
"643 700 LINE",
"725 613 LINE",
"747 474 LINE",
"760 421 LINE",
"780 421 LINE",
"783 450 LINE",
"795 439 LINE",
"798 399 LINE",
"820 401 LINE",
"824 456 LINE",
"812 483 LINE",
"791 500 LINE",
"774 664 LINE",
"661 784 LINE",
"625 814 OFFCURVE",
"575 810 OFFCURVE",
"544 810 CURVE",
"536 823 LINE",
"560 855 LINE",
"574 878 OFFCURVE",
"580 899 OFFCURVE",
"580 917 CURVE SMOOTH",
"580 962 OFFCURVE",
"548 1001 OFFCURVE",
"487 1001 CURVE SMOOTH",
"426 1001 OFFCURVE",
"406 974 OFFCURVE",
"406 947 CURVE SMOOTH",
"406 941 OFFCURVE",
"407 932 OFFCURVE",
"408 927 CURVE",
"376 858 LINE",
"399 855 LINE",
"407 804 LINE",
"449 801 LINE",
"467 770 LINE",
"454 767 OFFCURVE",
"437 759 OFFCURVE",
"424 748 CURVE SMOOTH",
"295 642 LINE",
"160 661 LINE",
"131 678 LINE",
"105 685 LINE",
"103 684 LINE",
"87 741 LINE SMOOTH",
"85 747 OFFCURVE",
"75 794 OFFCURVE",
"75 808 CURVE SMOOTH",
"75 830 OFFCURVE",
"85 861 OFFCURVE",
"123 861 CURVE SMOOTH",
"144 861 OFFCURVE",
"157 851 OFFCURVE",
"161 846 CURVE",
"173 866 LINE",
"167 873 OFFCURVE",
"150 884 OFFCURVE",
"125 884 CURVE SMOOTH",
"65 884 OFFCURVE",
"49 839 OFFCURVE",
"49 807 CURVE SMOOTH",
"49 786 OFFCURVE",
"61 743 OFFCURVE",
"63 734 CURVE SMOOTH",
"79 678 LINE",
"58 673 LINE",
"50 650 LINE",
"58 616 LINE",
"65 607 LINE",
"93 595 LINE",
"103 595 LINE",
"138 470 LINE",
"161 475 LINE",
"127 598 LINE",
"141 602 LINE",
"155 594 LINE",
"324 570 LINE",
"468 667 LINE",
"555 539 LINE",
"431 292 LINE",
"441 292 LINE",
"428 253 LINE",
"431 211 LINE",
"398 94 LINE",
"395 76 OFFCURVE",
"390 58 OFFCURVE",
"370 54 CURVE SMOOTH",
"304 43 LINE",
"304 0 LINE"
);
},
{
closed = 1;
nodes = (
"319 31 LINE",
"375 40 LINE",
"394 44 OFFCURVE",
"409 56 OFFCURVE",
"415 88 CURVE",
"446 209 LINE",
"446 251 LINE",
"461 292 LINE",
"519 292 LINE",
"432 18 LINE",
"319 18 LINE"
);
},
{
closed = 1;
nodes = (
"605 31 LINE",
"647 40 LINE SMOOTH",
"670 44 OFFCURVE",
"690 54 OFFCURVE",
"690 76 CURVE SMOOTH",
"690 80 OFFCURVE",
"690 84 OFFCURVE",
"689 89 CURVE SMOOTH",
"640 263 LINE",
"636 292 LINE",
"687 292 LINE",
"700 243 OFFCURVE",
"718 150 OFFCURVE",
"718 76 CURVE SMOOTH",
"718 56 OFFCURVE",
"717 36 OFFCURVE",
"714 18 CURVE",
"605 18 LINE"
);
},
{
closed = 1;
nodes = (
"569 531 LINE",
"667 548 LINE",
"695 514 OFFCURVE",
"703 468 OFFCURVE",
"703 434 CURVE SMOOTH",
"703 415 OFFCURVE",
"691 387 OFFCURVE",
"688 365 CURVE SMOOTH",
"687 350 OFFCURVE",
"686 337 OFFCURVE",
"686 326 CURVE SMOOTH",
"686 320 OFFCURVE",
"686 314 OFFCURVE",
"687 309 CURVE",
"460 309 LINE"
);
},
{
closed = 1;
nodes = (
"802 449 LINE",
"782 469 LINE",
"775 467 LINE",
"772 432 LINE",
"768 431 LINE",
"759 479 LINE",
"740 625 LINE",
"639 727 LINE",
"622 720 LINE",
"665 565 LINE",
"570 548 LINE",
"474 694 LINE",
"323 589 LINE",
"153 610 LINE",
"138 617 LINE",
"110 611 LINE",
"94 611 LINE",
"76 619 LINE",
"71 624 LINE",
"65 647 LINE",
"71 661 LINE",
"103 667 LINE",
"122 662 LINE",
"158 644 LINE",
"302 624 LINE",
"432 734 LINE",
"452 749 OFFCURVE",
"468 756 OFFCURVE",
"490 760 CURVE",
"461 814 LINE",
"420 817 LINE",
"413 868 LINE",
"398 870 LINE",
"419 915 LINE",
"491 915 LINE",
"492 917 OFFCURVE",
"494 920 OFFCURVE",
"503 920 CURVE SMOOTH",
"515 920 OFFCURVE",
"516 911 OFFCURVE",
"516 904 CURVE SMOOTH",
"516 898 OFFCURVE",
"509 883 OFFCURVE",
"505 877 CURVE",
"494 852 LINE",
"535 792 LINE",
"586 792 OFFCURVE",
"627 789 OFFCURVE",
"646 774 CURVE",
"759 654 LINE",
"777 493 LINE",
"800 475 LINE",
"813 452 LINE",
"811 412 LINE",
"806 412 LINE"
);
},
{
closed = 1;
nodes = (
"454 889 OFFCURVE",
"461 893 OFFCURVE",
"467 897 CURVE",
"460 904 OFFCURVE",
"453 909 OFFCURVE",
"441 909 CURVE SMOOTH",
"432 909 OFFCURVE",
"422 905 OFFCURVE",
"422 898 CURVE SMOOTH",
"422 891 OFFCURVE",
"435 889 OFFCURVE",
"444 889 CURVE SMOOTH"
);
},
{
closed = 1;
nodes = (
"513 853 LINE",
"523 875 LINE",
"530 883 OFFCURVE",
"535 897 OFFCURVE",
"535 907 CURVE SMOOTH",
"535 921 OFFCURVE",
"525 937 OFFCURVE",
"508 937 CURVE SMOOTH",
"499 937 OFFCURVE",
"496 935 OFFCURVE",
"493 932 CURVE",
"428 932 LINE",
"428 934 OFFCURVE",
"427 939 OFFCURVE",
"427 946 CURVE SMOOTH",
"427 965 OFFCURVE",
"442 982 OFFCURVE",
"488 982 CURVE SMOOTH",
"538 982 OFFCURVE",
"562 947 OFFCURVE",
"562 914 CURVE SMOOTH",
"562 896 OFFCURVE",
"554 876 OFFCURVE",
"547 866 CURVE SMOOTH",
"526 833 LINE"
);
}
);
width = 873;
}
);
unicode = 1301D;
},
{
glyphname = u1301E;
lastChange = "2017-01-25 19:58:54 +0000";
layers = (
{
layerId = UUID0;
paths = (
{
closed = 1;
nodes = (
"427 0 LINE",
"520 292 LINE",
"600 292 LINE",
"604 262 LINE",
"654 88 LINE SMOOTH",
"655 84 OFFCURVE",
"655 81 OFFCURVE",
"655 78 CURVE SMOOTH",
"655 65 OFFCURVE",
"642 58 OFFCURVE",
"625 54 CURVE SMOOTH",
"570 43 LINE",
"570 0 LINE",
"714 0 LINE",
"717 22 OFFCURVE",
"719 47 OFFCURVE",
"719 71 CURVE SMOOTH",
"719 151 OFFCURVE",
"702 244 OFFCURVE",
"690 292 CURVE",
"688 305 OFFCURVE",
"688 320 OFFCURVE",
"688 331 CURVE SMOOTH",
"688 342 OFFCURVE",
"689 352 OFFCURVE",
"691 365 CURVE SMOOTH",
"694 391 OFFCURVE",
"705 405 OFFCURVE",
"705 424 CURVE SMOOTH",
"705 468 OFFCURVE",
"695 504 OFFCURVE",
"665 547 CURVE",
"661 689 LINE",
"707 603 LINE",
"729 463 LINE",
"743 411 LINE",
"763 411 LINE",
"766 439 LINE",
"778 428 LINE",
"782 389 LINE",
"804 389 LINE",
"807 445 LINE",
"795 473 LINE",
"774 489 LINE",
"758 653 LINE",
"706 751 LINE",
"680 791 OFFCURVE",
"633 793 OFFCURVE",
"603 793 CURVE",
"603 827 LINE",
"619 855 LINE",
"633 878 OFFCURVE",
"639 899 OFFCURVE",
"639 917 CURVE SMOOTH",
"639 962 OFFCURVE",
"607 1001 OFFCURVE",
"546 1001 CURVE SMOOTH",
"485 1001 OFFCURVE",
"465 974 OFFCURVE",
"465 947 CURVE SMOOTH",
"465 941 OFFCURVE",
"466 932 OFFCURVE",
"467 927 CURVE",
"435 858 LINE",
"443 857 OFFCURVE",
"452 856 OFFCURVE",
"458 855 CURVE",
"466 804 LINE",
"514 801 LINE",
"514 777 LINE",
"497 774 OFFCURVE",
"445 756 OFFCURVE",
"433 743 CURVE",
"338 706 LINE",
"188 721 LINE",
"146 745 LINE",
"104 745 LINE",
"104 716 LINE",
"131 716 LINE",
"145 710 LINE",
"145 707 LINE",
"118 707 LINE",
"92 713 LINE",
"66 734 LINE",
"49 714 LINE",
"75 686 LINE",
"105 672 LINE",
"168 668 LINE",
"341 628 LINE",
"485 661 LINE",
"538 528 LINE",
"414 292 LINE",
"425 292 LINE",
"411 253 LINE",
"415 211 LINE",
"382 94 LINE",
"378 76 OFFCURVE",
"373 58 OFFCURVE",
"353 54 CURVE SMOOTH",
"287 43 LINE",
"287 0 LINE"
);
},
{
closed = 1;
nodes = (
"303 31 LINE",
"358 40 LINE",
"377 44 OFFCURVE",
"393 56 OFFCURVE",
"398 88 CURVE",
"430 209 LINE",
"430 251 LINE",
"444 292 LINE",
"502 292 LINE",
"415 18 LINE",
"303 18 LINE"
);
},
{
closed = 1;
nodes = (
"589 31 LINE",
"630 40 LINE SMOOTH",
"653 44 OFFCURVE",
"674 54 OFFCURVE",
"674 76 CURVE SMOOTH",
"674 80 OFFCURVE",
"674 84 OFFCURVE",
"672 89 CURVE SMOOTH",
"624 263 LINE",
"619 292 LINE",
"670 292 LINE",
"683 243 OFFCURVE",
"701 150 OFFCURVE",
"701 76 CURVE SMOOTH",
"701 56 OFFCURVE",
"700 36 OFFCURVE",
"697 18 CURVE",
"589 18 LINE"
);
},
{
closed = 1;
nodes = (
"553 521 LINE",
"650 538 LINE",
"679 503 OFFCURVE",
"686 458 OFFCURVE",
"686 423 CURVE SMOOTH",
"686 404 OFFCURVE",
"674 387 OFFCURVE",
"672 365 CURVE SMOOTH",
"670 350 OFFCURVE",
"669 337 OFFCURVE",
"669 326 CURVE SMOOTH",
"669 320 OFFCURVE",
"669 314 OFFCURVE",
"670 309 CURVE",
"444 309 LINE"
);
},
{
closed = 1;
nodes = (
"786 438 LINE",
"765 458 LINE",
"758 456 LINE",
"755 420 LINE",
"751 420 LINE",
"743 468 LINE",
"722 608 LINE",
"662 717 LINE",
"643 709 LINE",
"648 554 LINE",
"553 537 LINE",
"497 684 LINE",
"340 647 LINE",
"174 680 LINE",
"109 685 LINE",
"83 697 LINE",
"63 716 LINE",
"66 720 LINE",
"89 703 LINE",
"117 696 LINE",
"166 696 LINE",
"166 709 LINE",
"132 725 LINE",
"113 725 LINE",
"113 734 LINE",
"139 734 LINE",
"186 708 LINE",
"343 688 LINE",
"441 726 LINE",
"459 743 OFFCURVE",
"505 759 OFFCURVE",
"531 763 CURVE",
"531 814 LINE",
"479 817 LINE",
"472 868 LINE",
"468 868 OFFCURVE",
"462 870 OFFCURVE",
"458 870 CURVE",
"478 915 LINE",
"550 915 LINE",
"551 917 OFFCURVE",
"553 920 OFFCURVE",
"562 920 CURVE SMOOTH",
"574 920 OFFCURVE",
"575 911 OFFCURVE",
"575 904 CURVE SMOOTH",
"575 898 OFFCURVE",
"568 883 OFFCURVE",
"564 877 CURVE",
"545 847 LINE",
"588 810 LINE",
"588 775 LINE",
"603 775 LINE SMOOTH",
"654 775 OFFCURVE",
"674 765 OFFCURVE",
"688 745 CURVE",
"743 644 LINE",
"761 482 LINE",
"784 464 LINE",
"797 441 LINE",
"794 401 LINE",
"790 401 LINE"
);
},
{
closed = 1;
nodes = (
"513 889 OFFCURVE",
"520 893 OFFCURVE",
"526 897 CURVE",
"520 904 OFFCURVE",
"512 909 OFFCURVE",
"500 909 CURVE SMOOTH",
"491 909 OFFCURVE",
"481 905 OFFCURVE",
"481 898 CURVE SMOOTH",
"481 891 OFFCURVE",
"494 889 OFFCURVE",
"503 889 CURVE SMOOTH"
);
},
{
closed = 1;
nodes = (
"566 850 LINE",
"583 875 LINE",
"589 883 OFFCURVE",
"594 897 OFFCURVE",
"594 907 CURVE SMOOTH",
"594 921 OFFCURVE",
"584 937 OFFCURVE",
"567 937 CURVE SMOOTH",
"558 937 OFFCURVE",
"555 935 OFFCURVE",
"552 932 CURVE",
"487 932 LINE",
"487 934 OFFCURVE",
"486 939 OFFCURVE",
"486 946 CURVE SMOOTH",
"486 965 OFFCURVE",
"501 982 OFFCURVE",
"547 982 CURVE SMOOTH",
"597 982 OFFCURVE",
"621 947 OFFCURVE",
"621 914 CURVE SMOOTH",
"621 896 OFFCURVE",
"613 876 OFFCURVE",
"606 866 CURVE SMOOTH",
"584 833 LINE"
);
}
);
width = 856;
}
);
unicode = 1301E;
},
{
glyphname = u1301F;
lastChange = "2017-01-25 19:58:54 +0000";
layers = (
{
layerId = UUID0;
paths = (
{
closed = 1;
nodes = (
"373 0 LINE",
"372 64 LINE",
"393 248 LINE",
"418 292 LINE",
"511 292 LINE",
"516 256 LINE",
"639 110 LINE",
"631 69 LINE",
"611 49 LINE",
"572 40 LINE",
"576 0 LINE",
"626 0 LINE",
"663 18 LINE",
"723 104 LINE",
"603 292 LINE",
"601 305 OFFCURVE",
"601 320 OFFCURVE",
"601 331 CURVE SMOOTH",
"601 342 OFFCURVE",
"603 352 OFFCURVE",
"604 365 CURVE SMOOTH",
"607 391 OFFCURVE",
"618 422 OFFCURVE",
"618 441 CURVE SMOOTH",
"618 486 OFFCURVE",
"608 504 OFFCURVE",
"578 547 CURVE",
"578 558 LINE",
"720 544 LINE",
"736 586 LINE",
"667 688 LINE SMOOTH",
"648 715 OFFCURVE",
"635 730 OFFCURVE",
"622 748 CURVE SMOOTH",
"592 785 OFFCURVE",
"542 793 OFFCURVE",
"512 793 CURVE",
"512 827 LINE",
"528 855 LINE",
"542 878 OFFCURVE",
"548 899 OFFCURVE",
"548 917 CURVE SMOOTH",
"548 962 OFFCURVE",
"516 1001 OFFCURVE",
"455 1001 CURVE SMOOTH",
"394 1001 OFFCURVE",
"374 974 OFFCURVE",
"375 947 CURVE SMOOTH",
"375 941 OFFCURVE",
"376 932 OFFCURVE",
"376 927 CURVE",
"344 858 LINE",
"352 857 OFFCURVE",
"361 856 OFFCURVE",
"368 855 CURVE",
"375 804 LINE",
"418 801 LINE",
"418 777 LINE",
"401 774 OFFCURVE",
"358 755 OFFCURVE",
"346 743 CURVE",
"270 673 LINE",
"146 771 LINE",
"135 809 LINE",
"104 830 LINE",
"79 830 LINE",
"52 787 LINE",
"49 762 LINE",
"78 728 LINE",
"112 720 LINE",
"266 583 LINE",
"396 673 LINE",
"450 528 LINE",
"302 256 LINE",
"309 99 LINE SMOOTH",
"309 81 OFFCURVE",
"311 63 OFFCURVE",
"291 59 CURVE SMOOTH",
"219 41 LINE",
"219 0 LINE"
);
},
{
closed = 1;
nodes = (
"234 29 LINE",
"295 44 LINE SMOOTH",
"315 47 OFFCURVE",
"328 61 OFFCURVE",
"327 93 CURVE SMOOTH",
"322 251 LINE",
"344 292 LINE",
"397 292 LINE",
"376 253 LINE",
"354 64 LINE",
"355 18 LINE",
"234 18 LINE"
);
},
{
closed = 1;
nodes = (
"588 29 LINE",
"614 34 LINE",
"644 60 LINE",
"659 113 LINE",
"537 263 LINE",
"532 292 LINE",
"579 291 LINE",
"701 105 LINE",
"683 78 OFFCURVE",
"657 40 OFFCURVE",
"653 34 CURVE",
"623 16 LINE",
"589 16 LINE"
);
},
{
closed = 1;
nodes = (
"466 521 LINE",
"563 538 LINE",
"592 503 OFFCURVE",
"599 475 OFFCURVE",
"599 440 CURVE SMOOTH",
"599 421 OFFCURVE",
"587 387 OFFCURVE",
"585 365 CURVE SMOOTH",
"583 350 OFFCURVE",
"583 337 OFFCURVE",
"583 326 CURVE SMOOTH",
"583 320 OFFCURVE",
"583 314 OFFCURVE",
"583 309 CURVE",
"351 309 LINE"
);
},
{
closed = 1;
nodes = (
"403 701 LINE",
"270 608 LINE",
"125 730 LINE",
"87 741 LINE",
"64 767 LINE",
"67 783 LINE",
"85 816 LINE",
"99 816 LINE",
"120 803 LINE",
"79 791 LINE",
"81 756 LINE",
"106 761 LINE",
"109 741 LINE",
"123 743 LINE",
"118 776 LINE",
"93 772 LINE",
"93 783 LINE",
"125 790 LINE",
"133 764 LINE",
"273 650 LINE",
"354 726 LINE",
"372 743 OFFCURVE",
"409 759 OFFCURVE",
"435 763 CURVE",
"435 814 LINE",
"388 817 LINE",
"381 868 LINE",
"377 868 OFFCURVE",
"372 870 OFFCURVE",
"368 870 CURVE",
"387 915 LINE",
"459 915 LINE",
"460 917 OFFCURVE",
"462 920 OFFCURVE",
"471 920 CURVE SMOOTH",
"483 920 OFFCURVE",
"484 911 OFFCURVE",
"484 904 CURVE SMOOTH",
"484 898 OFFCURVE",
"477 883 OFFCURVE",
"473 877 CURVE",
"455 847 LINE",
"497 810 LINE",
"497 775 LINE",
"512 775 LINE SMOOTH",
"563 775 OFFCURVE",
"589 759 OFFCURVE",
"602 744 CURVE SMOOTH",
"617 727 OFFCURVE",
"635 703 OFFCURVE",
"656 673 CURVE SMOOTH",
"718 585 LINE",
"709 559 LINE",
"486 579 LINE",
"486 583 LINE",
"521 589 LINE",
"522 595 LINE",
"498 613 LINE",
"464 612 LINE",
"463 618 LINE",
"500 623 LINE",
"525 613 LINE",
"552 589 LINE",
"678 588 LINE",
"680 595 LINE",
"573 715 LINE",
"556 709 LINE",
"559 602 LINE",
"553 602 LINE",
"531 624 LINE",
"501 634 LINE",
"451 625 LINE",
"454 603 LINE",
"488 604 LINE",
"504 595 LINE",
"475 589 LINE",
"474 569 LINE",
"561 560 LINE",
"561 554 LINE",
"466 537 LINE"
);
},
{
closed = 1;
nodes = (
"572 691 LINE",
"654 602 LINE",
"576 601 LINE"
);
},
{
closed = 1;
nodes = (
"422 889 OFFCURVE",
"429 893 OFFCURVE",
"436 897 CURVE",
"429 904 OFFCURVE",
"421 909 OFFCURVE",
"410 909 CURVE SMOOTH",
"400 909 OFFCURVE",
"390 905 OFFCURVE",
"390 898 CURVE SMOOTH",
"390 891 OFFCURVE",
"403 889 OFFCURVE",
"412 889 CURVE SMOOTH"
);
},
{
closed = 1;
nodes = (
"475 850 LINE",
"492 875 LINE",
"498 883 OFFCURVE",
"503 897 OFFCURVE",
"503 907 CURVE SMOOTH",
"503 921 OFFCURVE",
"493 937 OFFCURVE",
"477 937 CURVE SMOOTH",
"467 937 OFFCURVE",
"464 935 OFFCURVE",
"461 932 CURVE",
"396 932 LINE",
"396 934 OFFCURVE",
"395 939 OFFCURVE",
"395 946 CURVE SMOOTH",
"395 965 OFFCURVE",
"411 982 OFFCURVE",
"457 982 CURVE SMOOTH",
"506 982 OFFCURVE",
"530 947 OFFCURVE",
"530 914 CURVE SMOOTH",
"530 896 OFFCURVE",
"522 876 OFFCURVE",
"515 866 CURVE SMOOTH",
"494 833 LINE"
);
}
);
width = 785;
}
);
unicode = 1301F;
},
{
glyphname = u13020;
lastChange = "2017-01-25 19:58:54 +0000";
layers = (
{
layerId = UUID0;
paths = (
{
closed = 1;
nodes = (
"342 0 LINE",
"435 292 LINE",
"515 292 LINE",
"519 262 LINE",
"569 88 LINE SMOOTH",
"570 84 OFFCURVE",
"570 81 OFFCURVE",
"570 78 CURVE SMOOTH",
"570 65 OFFCURVE",
"557 58 OFFCURVE",
"541 54 CURVE SMOOTH",
"485 43 LINE",
"485 0 LINE",
"629 0 LINE",
"632 22 OFFCURVE",
"634 47 OFFCURVE",
"634 71 CURVE SMOOTH",
"634 151 OFFCURVE",
"617 244 OFFCURVE",
"605 292 CURVE",
"603 305 OFFCURVE",
"595 333 OFFCURVE",
"595 344 CURVE SMOOTH",
"595 355 OFFCURVE",
"595 365 OFFCURVE",
"596 378 CURVE SMOOTH",
"599 404 OFFCURVE",
"601 405 OFFCURVE",
"601 424 CURVE SMOOTH",
"601 468 OFFCURVE",
"590 504 OFFCURVE",
"561 547 CURVE",
"575 679 LINE",
"745 674 LINE",
"862 832 LINE",
"902 869 LINE",
"917 907 LINE",
"889 919 LINE",
"879 895 LINE",
"869 884 LINE",
"866 885 LINE",
"875 910 LINE",
"890 933 LINE",
"920 947 LINE",
"906 973 LINE",
"870 959 LINE",
"846 937 LINE",
"813 874 LINE",
"717 754 LINE",
"604 764 LINE",
"580 771 OFFCURVE",
"555 779 OFFCURVE",
"533 782 CURVE",
"533 827 LINE",
"549 855 LINE",
"563 878 OFFCURVE",
"569 899 OFFCURVE",
"569 917 CURVE SMOOTH",
"569 962 OFFCURVE",
"537 1001 OFFCURVE",
"476 1001 CURVE SMOOTH",
"415 1001 OFFCURVE",
"395 974 OFFCURVE",
"396 947 CURVE SMOOTH",
"396 941 OFFCURVE",
"397 932 OFFCURVE",
"397 927 CURVE",
"365 858 LINE",
"373 857 OFFCURVE",
"382 856 OFFCURVE",
"389 855 CURVE",
"396 804 LINE",
"439 801 LINE",
"439 777 LINE",
"417 775 OFFCURVE",
"366 769 OFFCURVE",
"342 761 CURVE",
"252 754 LINE",
"157 874 LINE",
"124 937 LINE",
"100 959 LINE",
"63 973 LINE",
"49 947 LINE",
"80 933 LINE",
"94 910 LINE",
"104 885 LINE",
"101 884 LINE",
"90 895 LINE",
"81 919 LINE",
"52 907 LINE",
"67 869 LINE",
"107 832 LINE",
"224 674 LINE",
"397 679 LINE",
"434 528 LINE",
"329 292 LINE",
"340 292 LINE",
"326 253 LINE",
"328 211 LINE",
"297 94 LINE SMOOTH",
"292 77 OFFCURVE",
"288 58 OFFCURVE",
"268 54 CURVE SMOOTH",
"202 43 LINE",
"202 0 LINE"
);
},
{
closed = 1;
nodes = (
"218 31 LINE",
"273 40 LINE",
"292 44 OFFCURVE",
"305 57 OFFCURVE",
"313 88 CURVE SMOOTH",
"345 209 LINE",
"345 251 LINE",
"359 292 LINE",
"417 292 LINE",
"330 18 LINE",
"218 18 LINE"
);
},
{
closed = 1;
nodes = (
"504 31 LINE",
"545 40 LINE SMOOTH",
"568 44 OFFCURVE",
"589 54 OFFCURVE",
"589 76 CURVE SMOOTH",
"589 80 OFFCURVE",
"589 84 OFFCURVE",
"587 89 CURVE SMOOTH",
"539 263 LINE",
"534 292 LINE",
"585 292 LINE",
"598 243 OFFCURVE",
"616 150 OFFCURVE",
"616 76 CURVE SMOOTH",
"616 56 OFFCURVE",
"615 36 OFFCURVE",
"612 18 CURVE",
"504 18 LINE"
);
},
{
closed = 1;
nodes = (
"450 521 LINE",
"543 538 LINE",
"571 503 OFFCURVE",
"582 458 OFFCURVE",
"582 423 CURVE SMOOTH",
"582 404 OFFCURVE",
"580 400 OFFCURVE",
"577 378 CURVE SMOOTH",
"575 363 OFFCURVE",
"575 351 OFFCURVE",
"575 339 CURVE SMOOTH",
"575 333 OFFCURVE",
"577 322 OFFCURVE",
"583 309 CURVE",
"360 309 LINE"
);
},
{
closed = 1;
nodes = (
"412 698 LINE",
"235 692 LINE",
"119 843 LINE",
"75 879 LINE",
"66 903 LINE",
"74 906 LINE",
"81 888 LINE",
"107 863 LINE",
"122 870 LINE",
"107 915 LINE",
"88 940 LINE",
"63 952 LINE",
"67 959 LINE",
"93 948 LINE",
"114 929 LINE",
"140 867 LINE",
"243 735 LINE",
"350 744 LINE",
"371 752 OFFCURVE",
"424 760 OFFCURVE",
"456 763 CURVE",
"456 814 LINE",
"409 817 LINE",
"402 868 LINE",
"398 868 OFFCURVE",
"393 870 OFFCURVE",
"389 870 CURVE",
"408 915 LINE",
"480 915 LINE",
"481 917 OFFCURVE",
"483 920 OFFCURVE",
"492 920 CURVE SMOOTH",
"504 920 OFFCURVE",
"505 911 OFFCURVE",
"505 904 CURVE SMOOTH",
"505 898 OFFCURVE",
"498 883 OFFCURVE",
"494 877 CURVE",
"476 847 LINE",
"518 810 LINE",
"518 765 LINE",
"560 761 OFFCURVE",
"576 754 OFFCURVE",
"595 747 CURVE",
"726 735 LINE",
"830 867 LINE",
"855 929 LINE",
"876 948 LINE",
"902 959 LINE",
"907 952 LINE",
"881 940 LINE",
"862 915 LINE",
"848 870 LINE",
"862 863 LINE",
"889 888 LINE",
"896 906 LINE",
"903 903 LINE",
"894 879 LINE",
"850 843 LINE",
"734 692 LINE",
"558 698 LINE",
"543 554 LINE",
"449 537 LINE"
);
},
{
closed = 1;
nodes = (
"443 889 OFFCURVE",
"450 893 OFFCURVE",
"457 897 CURVE",
"450 904 OFFCURVE",
"442 909 OFFCURVE",
"431 909 CURVE SMOOTH",
"421 909 OFFCURVE",
"411 905 OFFCURVE",
"411 898 CURVE SMOOTH",
"411 891 OFFCURVE",
"424 889 OFFCURVE",
"433 889 CURVE SMOOTH"
);
},
{
closed = 1;
nodes = (
"496 850 LINE",
"513 875 LINE",
"519 883 OFFCURVE",
"524 897 OFFCURVE",
"524 907 CURVE SMOOTH",
"524 921 OFFCURVE",
"514 937 OFFCURVE",
"498 937 CURVE SMOOTH",
"488 937 OFFCURVE",
"485 935 OFFCURVE",
"482 932 CURVE",
"417 932 LINE",
"417 934 OFFCURVE",
"416 939 OFFCURVE",
"416 946 CURVE SMOOTH",
"416 965 OFFCURVE",
"432 982 OFFCURVE",
"478 982 CURVE SMOOTH",
"527 982 OFFCURVE",
"551 947 OFFCURVE",
"551 914 CURVE SMOOTH",
"551 896 OFFCURVE",
"543 876 OFFCURVE",
"536 866 CURVE SMOOTH",
"515 833 LINE"
);
}
);
width = 969;
}
);
unicode = 13020;
},
{
glyphname = u13021;
lastChange = "2017-01-25 19:58:54 +0000";
layers = (
{
layerId = UUID0;
paths = (
{
closed = 1;
nodes = (
"104 13 LINE",
"87 42 LINE",
"88 70 LINE",
"94 95 LINE",
"97 95 LINE",
"100 80 LINE",
"94 54 LINE",
"124 48 LINE",
"133 88 LINE",
"121 142 LINE",
"129 232 LINE",
"143 248 LINE",
"219 240 LINE",
"243 233 OFFCURVE",
"287 226 OFFCURVE",
"310 224 CURVE",
"310 200 LINE",
"270 197 LINE",
"262 146 LINE",
"255 146 OFFCURVE",
"247 144 OFFCURVE",
"239 144 CURVE",
"271 74 LINE",
"270 69 OFFCURVE",
"269 60 OFFCURVE",
"269 55 CURVE SMOOTH",
"269 27 OFFCURVE",
"289 0 OFFCURVE",
"350 0 CURVE SMOOTH",
"411 0 OFFCURVE",
"443 39 OFFCURVE",
"443 85 CURVE SMOOTH",
"443 102 OFFCURVE",
"437 123 OFFCURVE",
"422 146 CURVE",
"403 175 LINE",
"403 220 LINE",
"425 222 OFFCURVE",
"458 231 OFFCURVE",
"481 238 CURVE",
"581 248 LINE",
"595 232 LINE",
"604 142 LINE",
"591 88 LINE",
"600 48 LINE",
"630 54 LINE",
"625 80 LINE",
"627 95 LINE",
"630 95 LINE",
"636 70 LINE",
"637 42 LINE",
"620 13 LINE",
"646 0 LINE",
"668 32 LINE",
"675 64 LINE",
"665 134 LINE",
"650 304 LINE",
"627 325 LINE",
"449 322 LINE",
"438 454 LINE",
"468 497 OFFCURVE",
"478 533 OFFCURVE",
"478 578 CURVE SMOOTH",
"478 597 OFFCURVE",
"477 598 OFFCURVE",
"474 624 CURVE SMOOTH",
"472 636 OFFCURVE",
"472 646 OFFCURVE",
"472 658 CURVE SMOOTH",
"472 668 OFFCURVE",
"480 696 OFFCURVE",
"482 710 CURVE",
"494 758 OFFCURVE",
"511 851 OFFCURVE",
"511 931 CURVE SMOOTH",
"511 955 OFFCURVE",
"510 979 OFFCURVE",
"506 1001 CURVE",
"363 1001 LINE",
"363 958 LINE",
"418 947 LINE SMOOTH",
"434 944 OFFCURVE",
"447 936 OFFCURVE",
"447 924 CURVE SMOOTH",
"447 920 OFFCURVE",
"447 917 OFFCURVE",
"446 913 CURVE SMOOTH",
"396 740 LINE",
"392 710 LINE",
"313 710 LINE",
"220 1001 LINE",
"80 1001 LINE",
"80 958 LINE",
"146 947 LINE SMOOTH",
"166 944 OFFCURVE",
"169 925 OFFCURVE",
"174 907 CURVE SMOOTH",
"205 790 LINE",
"204 748 LINE",
"217 710 LINE",
"207 710 LINE",
"311 473 LINE",
"275 322 LINE",
"97 325 LINE",
"74 304 LINE",
"59 134 LINE",
"49 64 LINE",
"56 32 LINE",
"78 0 LINE"
);
},
{
closed = 1;
nodes = (
"316 92 OFFCURVE",
"323 98 OFFCURVE",
"330 104 CURVE",
"324 109 OFFCURVE",
"317 113 OFFCURVE",
"307 113 CURVE SMOOTH",
"298 113 OFFCURVE",
"285 111 OFFCURVE",
"285 103 CURVE SMOOTH",
"285 97 OFFCURVE",
"295 92 OFFCURVE",
"304 92 CURVE SMOOTH"
);
},
{
closed = 1;
nodes = (
"305 19 OFFCURVE",
"290 36 OFFCURVE",
"290 55 CURVE SMOOTH",
"290 63 OFFCURVE",
"291 67 OFFCURVE",
"291 69 CURVE",
"356 69 LINE",
"358 67 OFFCURVE",
"361 64 OFFCURVE",
"371 64 CURVE SMOOTH",
"388 64 OFFCURVE",
"397 81 OFFCURVE",
"397 95 CURVE SMOOTH",
"397 104 OFFCURVE",
"393 119 OFFCURVE",
"386 126 CURVE",
"366 151 LINE",
"384 169 LINE",
"410 136 LINE SMOOTH",
"417 125 OFFCURVE",
"424 105 OFFCURVE",
"424 88 CURVE SMOOTH",
"424 54 OFFCURVE",
"400 19 OFFCURVE",
"351 19 CURVE SMOOTH"
);
},
{
closed = 1;
nodes = (
"68 37 LINE",
"61 65 LINE",
"76 134 LINE",
"90 294 LINE",
"104 308 LINE",
"289 303 LINE",
"326 464 LINE",
"421 447 LINE",
"435 303 LINE",
"621 308 LINE",
"634 294 LINE",
"648 134 LINE",
"663 65 LINE",
"656 37 LINE",
"642 13 LINE",
"634 17 LINE",
"648 42 LINE",
"650 72 LINE",
"636 118 LINE",
"621 116 LINE",
"613 80 LINE",
"617 61 LINE",
"609 60 LINE",
"604 84 LINE",
"620 139 LINE",
"610 242 LINE",
"592 264 LINE",
"473 255 LINE",
"453 247 OFFCURVE",
"429 240 OFFCURVE",
"388 237 CURVE",
"388 192 LINE",
"345 154 LINE",
"368 124 LINE",
"372 119 OFFCURVE",
"379 103 OFFCURVE",
"379 98 CURVE SMOOTH",
"379 90 OFFCURVE",
"377 81 OFFCURVE",
"366 81 CURVE SMOOTH",
"357 81 OFFCURVE",
"355 85 OFFCURVE",
"354 86 CURVE",
"282 86 LINE",
"262 132 LINE",
"266 132 OFFCURVE",
"272 134 OFFCURVE",
"275 134 CURVE",
"283 185 LINE",
"326 188 LINE",
"326 238 LINE",
"294 241 OFFCURVE",
"248 249 OFFCURVE",
"228 257 CURVE",
"132 264 LINE",
"114 242 LINE",
"104 139 LINE",
"121 84 LINE",
"115 60 LINE",
"107 61 LINE",
"111 80 LINE",
"103 116 LINE",
"88 118 LINE",
"74 72 LINE",
"76 42 LINE",
"90 17 LINE",
"83 13 LINE"
);
},
{
closed = 1;
nodes = (
"327 481 LINE",
"238 692 LINE",
"460 692 LINE",
"455 680 OFFCURVE",
"452 668 OFFCURVE",
"452 663 CURVE SMOOTH",
"452 651 OFFCURVE",
"453 638 OFFCURVE",
"455 624 CURVE SMOOTH",
"457 602 OFFCURVE",
"459 598 OFFCURVE",
"459 579 CURVE SMOOTH",
"459 544 OFFCURVE",
"449 498 OFFCURVE",
"420 463 CURVE"
);
},
{
closed = 1;
nodes = (
"222 750 LINE",
"222 792 LINE",
"190 913 LINE SMOOTH",
"182 945 OFFCURVE",
"169 958 OFFCURVE",
"150 962 CURVE",
"95 970 LINE",
"95 983 LINE",
"208 983 LINE",
"295 710 LINE",
"237 710 LINE"
);
},
{
closed = 1;
nodes = (
"416 739 LINE",
"465 912 LINE SMOOTH",
"466 917 OFFCURVE",
"466 921 OFFCURVE",
"466 926 CURVE SMOOTH",
"466 948 OFFCURVE",
"446 958 OFFCURVE",
"423 962 CURVE SMOOTH",
"381 970 LINE",
"381 983 LINE",
"490 983 LINE",
"493 965 OFFCURVE",
"494 946 OFFCURVE",
"494 926 CURVE SMOOTH",
"494 851 OFFCURVE",
"476 759 OFFCURVE",
"463 710 CURVE",
"412 710 LINE"
);
}
);
width = 724;
}
);
unicode = 13021;
},
{
glyphname = u13022;
lastChange = "2017-01-25 19:58:54 +0000";
layers = (
{
layerId = UUID0;
paths = (
{
closed = 1;
nodes = (
"342 0 LINE",
"435 292 LINE",
"514 292 LINE",
"519 262 LINE",
"568 88 LINE SMOOTH",
"569 84 OFFCURVE",
"569 81 OFFCURVE",
"569 78 CURVE SMOOTH",
"569 65 OFFCURVE",
"556 58 OFFCURVE",
"540 54 CURVE SMOOTH",
"485 43 LINE",
"485 0 LINE",
"628 0 LINE",
"632 22 OFFCURVE",
"633 47 OFFCURVE",
"633 71 CURVE SMOOTH",
"633 151 OFFCURVE",
"616 244 OFFCURVE",
"604 292 CURVE",
"603 305 OFFCURVE",
"594 333 OFFCURVE",
"594 344 CURVE SMOOTH",
"594 355 OFFCURVE",
"594 365 OFFCURVE",
"596 378 CURVE SMOOTH",
"599 404 OFFCURVE",
"600 405 OFFCURVE",
"600 424 CURVE SMOOTH",
"600 468 OFFCURVE",
"590 504 OFFCURVE",
"560 547 CURVE",
"581 679 LINE SMOOTH",
"589 730 OFFCURVE",
"577 782 OFFCURVE",
"529 782 CURVE",
"529 827 LINE",
"544 855 LINE",
"559 878 OFFCURVE",
"565 899 OFFCURVE",
"565 917 CURVE SMOOTH",
"565 962 OFFCURVE",
"533 1001 OFFCURVE",
"472 1001 CURVE SMOOTH",
"411 1001 OFFCURVE",
"391 974 OFFCURVE",
"391 947 CURVE SMOOTH",
"391 941 OFFCURVE",
"392 932 OFFCURVE",
"393 927 CURVE",
"361 858 LINE",
"369 857 OFFCURVE",
"377 856 OFFCURVE",
"384 855 CURVE",
"392 804 LINE",
"435 801 LINE",
"435 777 LINE",
"412 775 OFFCURVE",
"377 774 OFFCURVE",
"346 769 CURVE",
"327 769 LINE",
"272 889 LINE",
"250 957 LINE",
"230 983 LINE",
"197 1003 LINE",
"179 981 LINE",
"206 961 LINE",
"217 936 LINE",
"221 910 LINE",
"218 910 LINE",
"209 922 LINE",
"205 947 LINE",
"174 941 LINE",
"183 901 LINE",
"215 857 LINE",
"253 767 LINE",
"251 767 LINE",
"157 866 LINE",
"124 929 LINE",
"100 951 LINE",
"63 965 LINE",
"49 939 LINE",
"80 925 LINE",
"94 902 LINE",
"104 877 LINE",
"101 876 LINE",
"90 887 LINE",
"81 911 LINE",
"52 899 LINE",
"67 861 LINE",
"107 824 LINE",
"216 687 LINE",
"397 679 LINE",
"433 528 LINE",
"329 292 LINE",
"339 292 LINE",
"326 253 LINE",
"327 211 LINE",
"296 94 LINE SMOOTH",
"292 77 OFFCURVE",
"288 58 OFFCURVE",
"268 54 CURVE SMOOTH",
"202 43 LINE",
"202 0 LINE"
);
},
{
closed = 1;
nodes = (
"217 31 LINE",
"272 40 LINE",
"292 44 OFFCURVE",
"304 57 OFFCURVE",
"313 88 CURVE SMOOTH",
"344 209 LINE",
"344 251 LINE",
"359 292 LINE",
"417 292 LINE",
"330 18 LINE",
"217 18 LINE"
);
},
{
closed = 1;
nodes = (
"503 31 LINE",
"545 40 LINE SMOOTH",
"568 44 OFFCURVE",
"588 54 OFFCURVE",
"588 76 CURVE SMOOTH",
"588 80 OFFCURVE",
"588 84 OFFCURVE",
"587 89 CURVE SMOOTH",
"538 263 LINE",
"534 292 LINE",
"585 292 LINE",
"598 243 OFFCURVE",
"616 150 OFFCURVE",
"616 76 CURVE SMOOTH",
"616 56 OFFCURVE",
"615 36 OFFCURVE",
"612 18 CURVE",
"503 18 LINE"
);
},
{
closed = 1;
nodes = (
"449 521 LINE",
"542 538 LINE",
"571 503 OFFCURVE",
"581 458 OFFCURVE",
"581 423 CURVE SMOOTH",
"581 404 OFFCURVE",
"579 400 OFFCURVE",
"577 378 CURVE SMOOTH",
"575 363 OFFCURVE",
"574 351 OFFCURVE",
"574 339 CURVE SMOOTH",
"574 333 OFFCURVE",
"577 322 OFFCURVE",
"583 309 CURVE",
"360 309 LINE"
);
},
{
closed = 1;
nodes = (
"411 698 LINE",
"227 705 LINE",
"119 835 LINE",
"75 872 LINE",
"66 896 LINE",
"74 898 LINE",
"81 880 LINE",
"107 855 LINE",
"122 862 LINE",
"107 907 LINE",
"88 932 LINE",
"63 944 LINE",
"67 952 LINE",
"93 940 LINE",
"114 921 LINE",
"140 859 LINE",
"242 748 LINE",
"354 752 LINE",
"380 758 OFFCURVE",
"420 760 OFFCURVE",
"452 763 CURVE",
"452 814 LINE",
"405 817 LINE",
"397 868 LINE",
"394 868 OFFCURVE",
"388 870 OFFCURVE",
"384 870 CURVE",
"404 915 LINE",
"476 915 LINE",
"477 917 OFFCURVE",
"479 920 OFFCURVE",
"488 920 CURVE SMOOTH",
"500 920 OFFCURVE",
"501 911 OFFCURVE",
"501 904 CURVE SMOOTH",
"501 898 OFFCURVE",
"494 883 OFFCURVE",
"490 877 CURVE",
"471 847 LINE",
"514 810 LINE",
"514 765 LINE",
"556 767 OFFCURVE",
"568 729 OFFCURVE",
"564 698 CURVE SMOOTH",
"543 554 LINE",
"448 537 LINE"
);
},
{
closed = 1;
nodes = (
"229 866 LINE",
"192 910 LINE",
"188 935 LINE",
"195 937 LINE",
"199 917 LINE",
"221 887 LINE",
"236 892 LINE",
"229 938 LINE",
"216 967 LINE",
"193 984 LINE",
"199 990 LINE",
"222 974 LINE",
"239 951 LINE",
"254 886 LINE",
"309 768 LINE",
"270 767 LINE"
);
},
{
closed = 1;
nodes = (
"439 889 OFFCURVE",
"446 893 OFFCURVE",
"452 897 CURVE",
"445 904 OFFCURVE",
"438 909 OFFCURVE",
"426 909 CURVE SMOOTH",
"417 909 OFFCURVE",
"407 905 OFFCURVE",
"407 898 CURVE SMOOTH",
"407 891 OFFCURVE",
"420 889 OFFCURVE",
"429 889 CURVE SMOOTH"
);
},
{
closed = 1;
nodes = (
"492 850 LINE",
"508 875 LINE",
"515 883 OFFCURVE",
"520 897 OFFCURVE",
"520 907 CURVE SMOOTH",
"520 921 OFFCURVE",
"510 937 OFFCURVE",
"493 937 CURVE SMOOTH",
"483 937 OFFCURVE",
"480 935 OFFCURVE",
"478 932 CURVE",
"413 932 LINE",
"413 934 OFFCURVE",
"412 939 OFFCURVE",
"412 946 CURVE SMOOTH",
"412 965 OFFCURVE",
"427 982 OFFCURVE",
"473 982 CURVE SMOOTH",
"522 982 OFFCURVE",
"546 947 OFFCURVE",
"546 914 CURVE SMOOTH",
"546 896 OFFCURVE",
"539 876 OFFCURVE",
"532 866 CURVE SMOOTH",
"510 833 LINE"
);
}
);
width = 682;
}
);
unicode = 13022;
},
